<?xml version="1.0" encoding="utf-8"?>
<!-- Generator: Adobe Illustrator 16.0.0, SVG Export Plug-In . SVG Version: 6.00 Build 0)  -->
<!DOCTYPE svg PUBLIC "-//W3C//DTD SVG 1.1//EN" "http://www.w3.org/Graphics/SVG/1.1/DTD/svg11.dtd">
<svg version="1.1" id="Layer_1" xmlns="http://www.w3.org/2000/svg" xmlns:xlink="http://www.w3.org/1999/xlink" x="0px" y="0px"
	 width="1280px" height="49.498px" viewBox="0 0 1280 49.498" enable-background="new 0 0 1280 49.498" xml:space="preserve">
<g>
	<path fill="#FCAB0F" d="M399.392,14.02c3.733,1.207,8.409,3.324,10.819,6.791c3.596,5.17,4.372,12.494,9.813,17.935
		c5.441,5.443,12.844,6.553,17.4,6.553c8.163,0,78.909,0,92.513,0c0.395,0,0.772-0.016,1.14-0.041l216.466-0.109
		c0.663,0.096,1.372,0.15,2.141,0.15c13.604,0,84.35,0,92.513,0c4.556,0,11.959-1.109,17.4-6.553
		c5.441-5.441,6.217-12.765,9.812-17.935c2.41-3.467,7.088-5.584,10.82-6.791H1280V9.926V8.29V4.198H0V8.29v1.636v4.094H399.392z"/>
</g>
</svg>
