<?xml version="1.0" encoding="utf-8"?>
<!-- Generator: Adobe Illustrator 16.0.0, SVG Export Plug-In . SVG Version: 6.00 Build 0)  -->
<!DOCTYPE svg PUBLIC "-//W3C//DTD SVG 1.1//EN" "http://www.w3.org/Graphics/SVG/1.1/DTD/svg11.dtd">
<svg version="1.1" id="Layer_1" xmlns="http://www.w3.org/2000/svg" xmlns:xlink="http://www.w3.org/1999/xlink" x="0px" y="0px"
	 width="50px" height="50px" viewBox="0 0 50 50" enable-background="new 0 0 50 50" xml:space="preserve">
<g>
	<circle fill="#283E58" cx="25" cy="25.001" r="22.001"/>
	<path fill="#FFFFFF" d="M33.622,37.671H21.104c0,0-1.748-0.15-1.748-1.697V35.13h9.977c0,0,1.828-0.141,1.828-1.617V17.409h2.391
		c0,0,1.818,0,1.818,1.617v16.877C35.37,35.903,35.38,37.671,33.622,37.671L33.622,37.671z M28.603,34.304H16.042
		c-1.688,0-1.758-1.758-1.758-1.758V13.999c0-1.615,1.688-1.67,1.688-1.67H28.63c1.547,0,1.67,1.67,1.67,1.67v18.547
		C30.3,32.546,30.054,34.304,28.603,34.304L28.603,34.304z M23.565,15.724h-7.594v1.688h7.594V15.724L23.565,15.724z M28.63,19.942
		H15.972v0.844H28.63V19.942L28.63,19.942z M28.63,22.474H15.972v0.844H28.63V22.474L28.63,22.474z M28.63,25.005H15.972v0.844
		H28.63V25.005L28.63,25.005z M28.63,27.536H15.972v0.844H28.63V27.536L28.63,27.536z M28.63,30.067h-4.221v0.844h4.221V30.067
		L28.63,30.067z"/>
</g>
</svg>
