<?xml version="1.0" encoding="utf-8"?>
<!-- Generator: Adobe Illustrator 16.0.0, SVG Export Plug-In . SVG Version: 6.00 Build 0)  -->
<!DOCTYPE svg PUBLIC "-//W3C//DTD SVG 1.1//EN" "http://www.w3.org/Graphics/SVG/1.1/DTD/svg11.dtd">
<svg version="1.1" id="Layer_1" xmlns="http://www.w3.org/2000/svg" xmlns:xlink="http://www.w3.org/1999/xlink" x="0px" y="0px"
	 width="50px" height="50px" viewBox="0 0 50 50" enable-background="new 0 0 50 50" xml:space="preserve">
<g>
	<circle fill="#283E58" cx="25" cy="25.001" r="22.001"/>
	<path fill="#FFFFFF" d="M30.798,37.417c-2.613,0-4.732-2.119-4.732-4.732s2.119-4.73,4.732-4.73s4.732,2.119,4.732,4.73
		C35.53,35.298,33.411,37.417,30.798,37.417L30.798,37.417z M33.694,31.302c-0.334-0.279-0.877-0.279-1.211,0l-2.43,2.025
		l-0.451-0.451c-0.271-0.273-0.713-0.273-0.984,0c-0.271,0.271-0.271,0.711,0,0.982l0.619,0.619
		c0.033,0.131,0.094,0.258,0.217,0.357c0.17,0.145,0.396,0.211,0.619,0.209c0.082,0.002,0.162-0.014,0.24-0.041
		c0.129-0.033,0.25-0.082,0.352-0.168l3.029-2.523C34.028,32.034,34.028,31.581,33.694,31.302L33.694,31.302z M24.479,32.685
		c0,1.496,0.521,2.867,1.391,3.949H15.792c-0.871,0-1.578-0.707-1.578-1.58V17.679c0-0.871,0.707-1.578,1.578-1.578h3.949v1.975
		c0,0.654,0.295,1.184,0.658,1.184h6.58c0.363,0,0.658-0.529,0.658-1.184v-1.975h3.949c0.873,0,1.58,0.707,1.58,1.58v9.15
		c-0.732-0.297-1.531-0.465-2.369-0.465C27.308,26.366,24.479,29.196,24.479,32.685L24.479,32.685z M26.06,18.47h-4.738
		c-0.436,0-0.791-0.354-0.791-0.789v-1.58c0-0.436,0.354-0.791,0.791-0.791h0.047c-0.031-0.127-0.047-0.26-0.047-0.395
		c0-1.09,1.061-1.975,2.369-1.975s2.369,0.885,2.369,1.975c0,0.135-0.018,0.268-0.049,0.395h0.049c0.436,0,0.789,0.355,0.789,0.791
		v1.58C26.849,18.116,26.495,18.47,26.06,18.47L26.06,18.47z M24.479,14.521h-1.58v1.58h1.58V14.521L24.479,14.521z"/>
</g>
</svg>
