<?xml version="1.0" encoding="utf-8"?>
<!-- Generator: Adobe Illustrator 16.0.0, SVG Export Plug-In . SVG Version: 6.00 Build 0)  -->
<!DOCTYPE svg PUBLIC "-//W3C//DTD SVG 1.1//EN" "http://www.w3.org/Graphics/SVG/1.1/DTD/svg11.dtd">
<svg version="1.1" id="Layer_1" xmlns="http://www.w3.org/2000/svg" xmlns:xlink="http://www.w3.org/1999/xlink" x="0px" y="0px"
	 width="107px" height="107px" viewBox="0 0 107 107" enable-background="new 0 0 107 107" xml:space="preserve">
<g id="icon_2" display="none">
	<g display="inline">
		<g>
			<path id="SVGID_9_" fill="#3F566F" d="M33.064,102.41c-6.253-2.645-11.866-6.43-16.688-11.249
				C11.557,86.34,7.772,80.727,5.127,74.473C2.39,68,1.001,61.124,1.001,54.038s1.388-13.963,4.126-20.436
				c2.645-6.252,6.43-11.866,11.249-16.688c4.821-4.819,10.435-8.604,16.688-11.249c6.473-2.738,13.35-4.126,20.436-4.126
				s13.963,1.388,20.436,4.126c6.252,2.645,11.867,6.43,16.688,11.249c4.817,4.821,8.604,10.435,11.248,16.688
				c2.737,6.473,4.127,13.35,4.127,20.436s-1.39,13.963-4.127,20.437c-2.646,6.252-6.431,11.865-11.248,16.688
				c-4.819,4.818-10.437,8.604-16.688,11.249c-6.473,2.737-13.35,4.126-20.436,4.126S39.537,105.146,33.064,102.41"/>
		</g>
	</g>
	<path display="inline" fill="none" d="M53.5,4.538c27.338,0,49.498,22.161,49.498,49.5s-22.16,49.499-49.498,49.499
		C26.161,103.537,4,81.376,4,54.038S26.161,4.538,53.5,4.538L53.5,4.538z"/>
	<path display="inline" fill="#47627E" d="M53.5,4.538c27.338,0,49.498,22.161,49.498,49.5s-22.16,49.499-49.498,49.499
		C26.161,103.537,4,81.376,4,54.038S26.161,4.538,53.5,4.538L53.5,4.538z"/>
	<g display="inline">
		<g>
			<defs>
				<path id="SVGID_1_" d="M53.5,4.538c27.338,0,49.498,22.161,49.498,49.5s-22.16,49.499-49.498,49.499
					C26.161,103.537,4,81.376,4,54.038S26.161,4.538,53.5,4.538L53.5,4.538z"/>
			</defs>
			<clipPath id="SVGID_2_">
				<use xlink:href="#SVGID_1_"  overflow="visible"/>
			</clipPath>
			<polygon clip-path="url(#SVGID_2_)" fill="#283E58" points="85.198,104.521 -49.133,107.537 25.356,-3.52 			"/>
		</g>
		<g>
			<defs>
				<path id="SVGID_3_" d="M53.5,4.538c27.338,0,49.498,22.161,49.498,49.5s-22.16,49.499-49.498,49.499
					C26.161,103.537,4,81.376,4,54.038S26.161,4.538,53.5,4.538L53.5,4.538z"/>
			</defs>
			<clipPath id="SVGID_4_">
				<use xlink:href="#SVGID_3_"  overflow="visible"/>
			</clipPath>
			<g opacity="0.6" clip-path="url(#SVGID_4_)">
				<path d="M99.761,21.154c-3.509-3.088-12.226-5.299-16.046-7.934C68.703,2.87,61.734,4.538,41.564,7.751
					c-2.563,0.408-4.674,2.288-7.063,3.314c-5.041,2.171-8.026,5.334-9.578,11.17c-1.603,6.029-5.736,11.392-8.804,17.023
					c-0.643,1.181-1.46,2.268-1.97,4.03c8.748-6.451,17.657-11.021,29.465-4.426c-17.229-1.866-27.658,6.445-35.003,19.244
					C3.452,67.095-0.73,76.673,0.403,87.952c3.873-1.494,7.981-1.634,7.981-7.403c0-1.943,2.966-3.891,4.624-5.892
					c4.383,4.542,4.233,7.344-0.326,11.977c6.243,7.621,1.394,14.691-2.186,22.716c3.508-1.701,6.066-2.942,8.568-4.154
					c-2.068,3.051-4.122,6.08-6.175,9.107c-5.931,0-11.861,0-17.793,0c-0.777-29.88,2.811-58.998,15.921-86.701
					c-5.216-0.618-9.85-0.575-11.801-6.056C-3.36,14.317-1.502,7.825,4.617,4.395c6.601-3.702,15.591-2.021,19.524,4.067
					c1.791,2.774,3.274,3.027,5.823,1.301c1.56-1.058,3.346-1.887,5.143-2.467c7.573-2.43,17.98-4.729,25.581-7.075
					c2.791,0,2.791,0,5.582,0c2.846,0.625,5.805,0.938,8.518,1.931c8.376,3.052,16.656,6.368,24.974,9.581
					C99.761,14.874,99.761,18.013,99.761,21.154z M6.033,48.345c10.231-9.807,16.222-21,14.458-26.57
					C13.555,29.174,9.285,37.777,6.033,48.345z"/>
			</g>
		</g>
	</g>
	<g display="inline">
		<g>
			<g>
				<defs>
					<path id="SVGID_5_" d="M78.387,72.251H29.613c-1.995,0-3.614-1.619-3.614-3.619V35.156c0-1.999,1.619-3.618,3.614-3.618h48.774
						c1.996,0,3.613,1.619,3.613,3.618v33.477C82,70.632,80.383,72.251,78.387,72.251L78.387,72.251z M54.902,88.538L48.58,70.441
						h20.775L54.902,88.538L54.902,88.538z"/>
				</defs>
				<clipPath id="SVGID_6_">
					<use xlink:href="#SVGID_5_"  overflow="visible"/>
				</clipPath>
				<g clip-path="url(#SVGID_6_)">
					
						<image overflow="visible" enable-background="new    " width="562" height="851" xlink:href="624EC2D9D8214CCC.jpeg"  transform="matrix(0.9982 0 0 0.9988 -248.0005 -670.4639)">
					</image>
				</g>
			</g>
		</g>
		<g>
			<g>
				<defs>
					<path id="SVGID_7_" d="M35.935,42.393h37.034c0.996,0,1.807,0.813,1.807,1.81c0,1-0.811,1.812-1.807,1.812H35.935
						c-0.998,0-1.805-0.812-1.805-1.812C34.13,43.206,34.937,42.393,35.935,42.393L35.935,42.393z"/>
				</defs>
				<clipPath id="SVGID_8_">
					<use xlink:href="#SVGID_7_"  overflow="visible"/>
				</clipPath>
				<g clip-path="url(#SVGID_8_)">
					
						<image overflow="visible" enable-background="new    " width="562" height="851" xlink:href="624EC2D9D8214CCC.jpeg"  transform="matrix(0.9982 0 0 0.9988 -248.0005 -670.4639)">
					</image>
				</g>
			</g>
		</g>
		<g>
			<g>
				<defs>
					<path id="SVGID_10_" d="M35.935,50.538h37.034c0.996,0,1.807,0.81,1.807,1.81c0,0.999-0.811,1.809-1.807,1.809H35.935
						c-0.998,0-1.805-0.81-1.805-1.809C34.13,51.347,34.937,50.538,35.935,50.538L35.935,50.538z"/>
				</defs>
				<clipPath id="SVGID_11_">
					<use xlink:href="#SVGID_10_"  overflow="visible"/>
				</clipPath>
				<g clip-path="url(#SVGID_11_)">
					
						<image overflow="visible" enable-background="new    " width="562" height="851" xlink:href="624EC2D9D8214CCC.jpeg"  transform="matrix(0.9982 0 0 0.9988 -248.0005 -670.4639)">
					</image>
				</g>
			</g>
		</g>
		<g>
			<g>
				<defs>
					<path id="SVGID_12_" d="M35.935,58.68h37.034c0.996,0,1.807,0.812,1.807,1.81c0,1-0.811,1.81-1.807,1.81H35.935
						c-0.998,0-1.805-0.81-1.805-1.81C34.13,59.492,34.937,58.68,35.935,58.68L35.935,58.68z"/>
				</defs>
				<clipPath id="SVGID_13_">
					<use xlink:href="#SVGID_12_"  overflow="visible"/>
				</clipPath>
				<g clip-path="url(#SVGID_13_)">
					
						<image overflow="visible" enable-background="new    " width="562" height="851" xlink:href="624EC2D9D8214CD4.jpeg"  transform="matrix(0.9982 0 0 0.9988 -248.0005 -670.4639)">
					</image>
				</g>
			</g>
		</g>
	</g>
</g>
<g id="icon_3" display="none">
	<g display="inline">
		<g>
			<g>
				<path id="SVGID_21_" fill="#3F566F" d="M33.064,102.312c-6.253-2.645-11.866-6.43-16.688-11.248
					c-4.819-4.821-8.604-10.436-11.249-16.688C2.389,67.902,1.001,61.025,1.001,53.94c0-7.086,1.388-13.963,4.126-20.436
					c2.645-6.252,6.43-11.866,11.249-16.688c4.821-4.819,10.435-8.604,16.688-11.249c6.473-2.738,13.35-4.126,20.436-4.126
					s13.963,1.388,20.436,4.126c6.252,2.645,11.867,6.43,16.688,11.249c4.817,4.821,8.604,10.435,11.248,16.688
					c2.737,6.473,4.127,13.35,4.127,20.436c0,7.085-1.39,13.962-4.127,20.436c-2.646,6.253-6.431,11.866-11.248,16.688
					c-4.819,4.818-10.437,8.604-16.688,11.248c-6.473,2.738-13.35,4.127-20.436,4.127S39.538,105.051,33.064,102.312"/>
			</g>
		</g>
		<path fill="none" d="M53.5,4.441c27.338,0,49.498,22.161,49.498,49.5c0,27.339-22.16,49.499-49.498,49.499
			c-27.339,0-49.5-22.16-49.5-49.499C4,26.603,26.162,4.441,53.5,4.441L53.5,4.441z"/>
		<path fill="#47627E" d="M53.5,4.441c27.338,0,49.498,22.161,49.498,49.5c0,27.339-22.16,49.499-49.498,49.499
			c-27.339,0-49.5-22.16-49.5-49.499C4,26.603,26.162,4.441,53.5,4.441L53.5,4.441z"/>
		<path fill="none" d="M53.5,3.94c27.34,0,49.5,22.164,49.5,49.501c0,27.336-22.161,49.5-49.5,49.5
			c-27.337,0-49.499-22.164-49.499-49.5C4.001,26.104,26.163,3.94,53.5,3.94L53.5,3.94z"/>
		<g>
			<g>
				<defs>
					<path id="SVGID_14_" d="M53.5,4.44c27.34,0,49.5,22.164,49.5,49.501c0,27.336-22.161,49.5-49.5,49.5
						c-27.337,0-49.499-22.164-49.499-49.5C4.001,26.604,26.163,4.44,53.5,4.44L53.5,4.44z"/>
				</defs>
				<clipPath id="SVGID_15_">
					<use xlink:href="#SVGID_14_"  overflow="visible"/>
				</clipPath>
				<polygon clip-path="url(#SVGID_15_)" fill="#283E58" points="139.38,105.941 16.373,104.051 79.539,-2.1 				"/>
			</g>
			<g>
				<defs>
					<path id="SVGID_16_" d="M53.5,4.44c27.34,0,49.5,22.164,49.5,49.501c0,27.336-22.161,49.5-49.5,49.5
						c-27.337,0-49.499-22.164-49.499-49.5C4.001,26.604,26.163,4.44,53.5,4.44L53.5,4.44z"/>
				</defs>
				<clipPath id="SVGID_17_">
					<use xlink:href="#SVGID_16_"  overflow="visible"/>
				</clipPath>
				<path opacity="0.6" clip-path="url(#SVGID_17_)" enable-background="new    " d="M95.744,45.167
					c-0.301-4.333,9.072-5.837,8.727-7.315c-0.5-2.144-2.666-4.642-4.746-5.534c-6.006-2.577-9.439-1.475-13.773,3.429
					c-4.491,5.08-7.025,10.885-4.166,17.509c4.588,10.633,12.059,12.905,24.138,11.369c17.261-2.193,27.759-13.725,32.767-29.529
					c2.5-7.899,2.063-16.737,2.861-25.158c0.063-0.651-0.605-1.37-0.969-2.127c-10.163,8.099-12.091,8.611-16.915,3.831
					c5.776-1.346,9.532-4.7,9.851-10.45c0.282-5.114,0.221-10.302-0.332-15.386c-0.478-4.395-1.861-8.69-2.744-12.588
					c15.404,21.122,20.045,54.885,4.646,78.878c-9.471,14.759-23.58,22.194-40.668,24.802c-9.236,1.41-18.452,3.137-27.518,5.371
					c-3.409,0.84-6.586,3.242-9.43,5.489c-1.324,1.044-1.598,3.416-2.348,5.187c1.508,0.533,3.656-0.537,4.873,1.723
					c0.165,2.438-0.284,4.708-3.753,4.654c-3.292-0.049-5.044-2.063-4.759-5.182c0.46-5.031,2.16-10.527,6.551-13.457
					c1.814-1.211,3.537-1.961,5.355-3.166c1.99-1.32,4.281-2.672,6.569-2.947c3.965-0.479,8.045,0.086,12.042-0.235
					c2.223-0.179,5.939-0.858,6.245-2.028c0.724-2.761,0.729-5.81-2.532-8.324c-6.578-5.069-9.096-12.237-7.576-20.505
					c1.502-8.164,9.014-15.75,16.539-17.033c5.52-0.942,11.889,1.438,14.118,6.449c1.072,2.412,0.741,6.394-0.628,8.648
					C107.062,43.363,101.16,53.417,95.744,45.167z"/>
			</g>
		</g>
	</g>
	<g display="inline">
		
			<image overflow="visible" opacity="0.47" enable-background="new    " width="568" height="878" xlink:href="624EC2D9D8214CD7.png"  transform="matrix(1 0 0 1 -166.9531 -34)">
		</image>
		<g>
			<g>
				<g>
					<defs>
						<path id="SVGID_18_" d="M65.389,84.415H34.714c-4.259,0-7.712-3.44-7.712-7.685V30.625c0-4.246,3.454-7.684,7.712-7.684h36
							c4.261,0,7.716,3.438,7.716,7.684v40.799L65.389,84.415L65.389,84.415z"/>
					</defs>
					<clipPath id="SVGID_19_">
						<use xlink:href="#SVGID_18_"  overflow="visible"/>
					</clipPath>
					<g clip-path="url(#SVGID_19_)">
						
							<image overflow="visible" enable-background="new    " width="562" height="872" xlink:href="624EC2D9D8214CD4.jpeg"  transform="matrix(0.9982 0 0 0.9989 -163.9995 -31.0605)">
						</image>
					</g>
				</g>
			</g>
		</g>
	</g>
	<g display="inline">
		<g>
			<defs>
				<path id="SVGID_20_" d="M50.994,38.827H37.002c-0.552,0-0.998-0.873-0.998-1.947c0-1.074,0.446-1.944,0.998-1.944h13.992
					c0.553,0,1,0.87,1,1.944C51.994,37.954,51.547,38.827,50.994,38.827L50.994,38.827z M50.994,46.607H37.002
					c-0.552,0-0.998-0.87-0.998-1.944c0-1.074,0.446-1.944,0.998-1.944h13.992c0.553,0,1,0.87,1,1.944
					C51.994,45.737,51.547,46.607,50.994,46.607L50.994,46.607z M50.994,54.389H37.002c-0.552,0-0.998-0.87-0.998-1.947
					c0-1.072,0.446-1.944,0.998-1.944h13.992c0.553,0,1,0.872,1,1.944C51.995,53.519,51.547,54.389,50.994,54.389L50.994,54.389z"/>
			</defs>
			<clipPath id="SVGID_22_">
				<use xlink:href="#SVGID_20_"  overflow="visible"/>
			</clipPath>
			<g clip-path="url(#SVGID_22_)">
				
					<image overflow="visible" enable-background="new    " width="562" height="872" xlink:href="624EC2D9D8214CD4.jpeg"  transform="matrix(0.9982 0 0 0.9989 -163.9995 -31.0605)">
				</image>
			</g>
		</g>
	</g>
	<g display="inline">
		<g>
			<defs>
				<path id="SVGID_23_" d="M50.994,61.826H37.002c-0.552,0-0.998-0.87-0.998-1.945c0-1.074,0.446-1.943,0.998-1.943h13.992
					c0.553,0,1,0.869,1,1.943C51.995,60.956,51.547,61.826,50.994,61.826L50.994,61.826z M44.996,69.607h-7.993
					c-0.552,0-0.998-0.869-0.998-1.946c0-1.072,0.446-1.945,0.998-1.945h7.993c0.55,0,0.999,0.873,0.999,1.945
					C45.994,68.738,45.546,69.607,44.996,69.607L44.996,69.607z"/>
			</defs>
			<clipPath id="SVGID_24_">
				<use xlink:href="#SVGID_23_"  overflow="visible"/>
			</clipPath>
			<g clip-path="url(#SVGID_24_)">
				
					<image overflow="visible" enable-background="new    " width="562" height="872" xlink:href="624EC2D9D8214CDC.jpeg"  transform="matrix(0.9982 0 0 0.9989 -163.9995 -31.0605)">
				</image>
			</g>
		</g>
	</g>
	<g display="inline">
		<g>
			<defs>
				<path id="SVGID_25_" d="M63.492,53.941c4.141,0,7.5,3.358,7.5,7.5c0,4.142-3.358,7.5-7.5,7.5c-4.143,0-7.501-3.358-7.501-7.5
					C55.991,57.299,59.35,53.941,63.492,53.941L63.492,53.941z"/>
			</defs>
			<clipPath id="SVGID_26_">
				<use xlink:href="#SVGID_25_"  overflow="visible"/>
			</clipPath>
			<g clip-path="url(#SVGID_26_)">
				
					<image overflow="visible" enable-background="new    " width="562" height="872" xlink:href="624EC2D9D8214CDC.jpeg"  transform="matrix(0.9982 0 0 0.9989 -163.9995 -31.0605)">
				</image>
			</g>
		</g>
	</g>
	<g display="inline">
		<g>
			<defs>
				<polygon id="SVGID_27_" points="69.475,52.086 64.001,61.941 55,61.941 55,52.19 				"/>
			</defs>
			<clipPath id="SVGID_28_">
				<use xlink:href="#SVGID_27_"  overflow="visible"/>
			</clipPath>
		</g>
		<g>
			<defs>
				<polygon id="SVGID_29_" points="69.475,52.086 64.001,61.941 55,61.941 55,52.19 				"/>
			</defs>
			<defs>
				<path id="SVGID_30_" d="M63.492,53.941c4.141,0,7.5,3.358,7.5,7.5c0,4.142-3.358,7.5-7.5,7.5c-4.143,0-7.501-3.358-7.501-7.5
					C55.991,57.299,59.35,53.941,63.492,53.941L63.492,53.941z"/>
			</defs>
			<clipPath id="SVGID_31_">
				<use xlink:href="#SVGID_29_"  overflow="visible"/>
			</clipPath>
			<clipPath id="SVGID_32_" clip-path="url(#SVGID_31_)">
				<use xlink:href="#SVGID_30_"  overflow="visible"/>
			</clipPath>
			<g clip-path="url(#SVGID_32_)">
				
					<image overflow="visible" enable-background="new    " width="562" height="872" xlink:href="3562297C3CD019DB.jpeg"  transform="matrix(0.9982 0 0 0.9989 -163.9995 -31.0605)">
				</image>
			</g>
		</g>
	</g>
	<g display="inline">
		<g>
			<defs>
				<path id="SVGID_33_" d="M63.49,57.928c1.934,0,3.501,1.568,3.501,3.499c0,1.935-1.568,3.503-3.501,3.503
					c-1.932,0-3.5-1.568-3.5-3.503C59.99,59.496,61.559,57.928,63.49,57.928L63.49,57.928z"/>
			</defs>
			<clipPath id="SVGID_34_">
				<use xlink:href="#SVGID_33_"  overflow="visible"/>
			</clipPath>
			<g clip-path="url(#SVGID_34_)">
				
					<image overflow="visible" enable-background="new    " width="562" height="872" xlink:href="3562297C3CD019D9.jpeg"  transform="matrix(0.9982 0 0 0.9989 -163.9995 -31.0605)">
				</image>
			</g>
		</g>
	</g>
	<g display="inline">
		<g>
			<defs>
				<path id="SVGID_35_" d="M59.014,46.189V35.695c0-0.413-0.899-0.75-2.01-0.75c-1.109,0-2.008,0.337-2.008,0.75V46.19
					c0,0.413,0.898,0.75,2.008,0.75C58.114,46.94,59.014,46.603,59.014,46.189L59.014,46.189z"/>
			</defs>
			<clipPath id="SVGID_36_">
				<use xlink:href="#SVGID_35_"  overflow="visible"/>
			</clipPath>
			<g clip-path="url(#SVGID_36_)">
				
					<image overflow="visible" enable-background="new    " width="562" height="872" xlink:href="3562297C3CD019DF.jpeg"  transform="matrix(0.9982 0 0 0.9989 -163.9995 -31.0605)">
				</image>
			</g>
		</g>
	</g>
	<g display="inline">
		<g>
			<defs>
				<path id="SVGID_37_" d="M65.012,46.189v-7.295c0-0.414-0.897-0.749-2.007-0.749c-1.108,0-2.008,0.335-2.008,0.749v7.295
					c0,0.413,0.897,0.75,2.008,0.75C64.114,46.94,65.012,46.603,65.012,46.189L65.012,46.189z"/>
			</defs>
			<clipPath id="SVGID_38_">
				<use xlink:href="#SVGID_37_"  overflow="visible"/>
			</clipPath>
			<g clip-path="url(#SVGID_38_)">
				
					<image overflow="visible" enable-background="new    " width="562" height="872" xlink:href="3562297C3CD019D9.jpeg"  transform="matrix(0.9982 0 0 0.9989 -163.9995 -31.0605)">
				</image>
			</g>
		</g>
	</g>
	<g display="inline">
		<g>
			<defs>
				<path id="SVGID_39_" d="M71.014,46.189v-2.495c0-0.414-0.9-0.749-2.009-0.749s-2.01,0.335-2.01,0.749v2.495
					c0,0.413,0.901,0.75,2.01,0.75C70.113,46.94,71.014,46.603,71.014,46.189L71.014,46.189z"/>
			</defs>
			<clipPath id="SVGID_40_">
				<use xlink:href="#SVGID_39_"  overflow="visible"/>
			</clipPath>
			<g clip-path="url(#SVGID_40_)">
				
					<image overflow="visible" enable-background="new    " width="562" height="872" xlink:href="3562297C3CD019DB.jpeg"  transform="matrix(0.9982 0 0 0.9989 -163.9995 -31.0605)">
				</image>
			</g>
		</g>
	</g>
	<g display="inline">
		<g>
			<defs>
				<path id="SVGID_41_" d="M78.43,71.605l-12.856,12.81h-1.288V78.01c0-4.244,3.454-7.682,7.715-7.682h6.43V71.605L78.43,71.605z"
					/>
			</defs>
			<clipPath id="SVGID_42_">
				<use xlink:href="#SVGID_41_"  overflow="visible"/>
			</clipPath>
			<g clip-path="url(#SVGID_42_)">
				
					<image overflow="visible" enable-background="new    " width="562" height="872" xlink:href="3562297C3CD019D9.jpeg"  transform="matrix(0.9982 0 0 0.9989 -163.9995 -31.0605)">
				</image>
			</g>
		</g>
	</g>
</g>
<g id="Capa_4" display="none">
	<g display="inline">
		<g>
			<g>
				<path id="SVGID_49_" fill="#3F566F" d="M33.064,102.312c-6.253-2.645-11.866-6.43-16.688-11.248
					c-4.819-4.821-8.604-10.436-11.249-16.688C2.389,67.902,1.001,61.025,1.001,53.94c0-7.086,1.388-13.963,4.126-20.436
					c2.645-6.252,6.43-11.866,11.249-16.688c4.821-4.819,10.435-8.604,16.688-11.249c6.473-2.738,13.35-4.126,20.436-4.126
					s13.963,1.388,20.436,4.126c6.252,2.645,11.867,6.43,16.688,11.249c4.817,4.821,8.604,10.435,11.248,16.688
					c2.737,6.473,4.127,13.35,4.127,20.436c0,7.085-1.39,13.962-4.127,20.436c-2.646,6.253-6.431,11.866-11.248,16.688
					c-4.819,4.818-10.437,8.604-16.688,11.248c-6.473,2.738-13.35,4.127-20.436,4.127S39.538,105.051,33.064,102.312"/>
			</g>
		</g>
		<path fill="none" d="M53.5,4.441c27.338,0,49.498,22.161,49.498,49.5c0,27.339-22.16,49.499-49.498,49.499
			c-27.339,0-49.5-22.16-49.5-49.499C4,26.603,26.162,4.441,53.5,4.441L53.5,4.441z"/>
		<path fill="#47627E" d="M53.5,4.441c27.338,0,49.498,22.161,49.498,49.5c0,27.339-22.16,49.499-49.498,49.499
			c-27.339,0-49.5-22.16-49.5-49.499C4,26.603,26.162,4.441,53.5,4.441L53.5,4.441z"/>
		<path fill="none" d="M53.5,3.94c27.34,0,49.5,22.164,49.5,49.501c0,27.336-22.161,49.5-49.5,49.5
			c-27.337,0-49.499-22.164-49.499-49.5C4.001,26.104,26.163,3.94,53.5,3.94L53.5,3.94z"/>
		<g>
			<g>
				<defs>
					<path id="SVGID_43_" d="M53.5,4.44c27.34,0,49.5,22.164,49.5,49.501c0,27.336-22.161,49.5-49.5,49.5
						c-27.337,0-49.499-22.164-49.499-49.5C4.001,26.604,26.163,4.44,53.5,4.44L53.5,4.44z"/>
				</defs>
				<clipPath id="SVGID_44_">
					<use xlink:href="#SVGID_43_"  overflow="visible"/>
				</clipPath>
				<polygon clip-path="url(#SVGID_44_)" fill="#283E58" points="139.38,105.941 16.373,104.051 79.539,-2.1 				"/>
			</g>
			<g>
				<defs>
					<path id="SVGID_45_" d="M53.5,4.44c27.34,0,49.5,22.164,49.5,49.501c0,27.336-22.161,49.5-49.5,49.5
						c-27.337,0-49.499-22.164-49.499-49.5C4.001,26.604,26.163,4.44,53.5,4.44L53.5,4.44z"/>
				</defs>
				<clipPath id="SVGID_46_">
					<use xlink:href="#SVGID_45_"  overflow="visible"/>
				</clipPath>
				<path opacity="0.6" clip-path="url(#SVGID_46_)" enable-background="new    " d="M95.744,45.167
					c-0.301-4.333,9.072-5.837,8.727-7.315c-0.5-2.144-2.666-4.642-4.746-5.534c-6.006-2.577-9.439-1.475-13.773,3.429
					c-4.491,5.08-7.025,10.885-4.166,17.509c4.588,10.633,12.059,12.905,24.138,11.369c17.261-2.193,27.759-13.725,32.767-29.529
					c2.5-7.899,2.063-16.737,2.861-25.158c0.063-0.651-0.605-1.37-0.969-2.127c-10.163,8.099-12.091,8.611-16.915,3.831
					c5.776-1.346,9.532-4.7,9.851-10.45c0.282-5.114,0.221-10.302-0.332-15.386c-0.478-4.395-1.861-8.69-2.744-12.588
					c15.404,21.122,20.045,54.885,4.646,78.878c-9.471,14.759-23.58,22.194-40.668,24.802c-9.236,1.41-18.452,3.137-27.518,5.371
					c-3.409,0.84-6.586,3.242-9.43,5.489c-1.324,1.044-1.598,3.416-2.348,5.187c1.508,0.533,3.656-0.537,4.873,1.723
					c0.165,2.438-0.284,4.708-3.753,4.654c-3.292-0.049-5.044-2.063-4.759-5.182c0.46-5.031,2.16-10.527,6.551-13.457
					c1.814-1.211,3.537-1.961,5.355-3.166c1.99-1.32,4.281-2.672,6.569-2.947c3.965-0.479,8.045,0.086,12.042-0.235
					c2.223-0.179,5.939-0.858,6.245-2.028c0.724-2.761,0.729-5.81-2.532-8.324c-6.578-5.069-9.096-12.237-7.576-20.505
					c1.502-8.164,9.014-15.75,16.539-17.033c5.52-0.942,11.889,1.438,14.118,6.449c1.072,2.412,0.741,6.394-0.628,8.648
					C107.062,43.363,101.16,53.417,95.744,45.167z"/>
			</g>
		</g>
	</g>
	<g display="inline">
		<g>
			<defs>
				<path id="SVGID_47_" d="M58.63,75.677H18.943c-1.625,0-2.941-1.329-2.941-2.971v-27.49c0-1.641,1.316-2.971,2.941-2.971H58.63
					c1.623,0,2.94,1.33,2.94,2.971v27.49C61.572,74.348,60.253,75.677,58.63,75.677L58.63,75.677z M28.128,89.05l-5.145-14.858
					H39.89L28.128,89.05L28.128,89.05z"/>
			</defs>
			<clipPath id="SVGID_48_">
				<use xlink:href="#SVGID_47_"  overflow="visible"/>
			</clipPath>
			<g clip-path="url(#SVGID_48_)">
				
					<image overflow="visible" enable-background="new    " width="562" height="851" xlink:href="3562297C3CD019C7.jpeg"  transform="matrix(0.9982 0 0 0.9988 -267.9985 -100.9502)">
				</image>
			</g>
		</g>
	</g>
	<g display="inline">
		<g>
			<defs>
				<path id="SVGID_50_" d="M24.087,51.16h30.136c0.811,0,1.469,0.665,1.469,1.486c0,0.82-0.658,1.485-1.469,1.485H24.087
					c-0.813,0-1.471-0.665-1.471-1.485C22.617,51.825,23.275,51.16,24.087,51.16L24.087,51.16z"/>
			</defs>
			<clipPath id="SVGID_51_">
				<use xlink:href="#SVGID_50_"  overflow="visible"/>
			</clipPath>
			<g clip-path="url(#SVGID_51_)">
				
					<image overflow="visible" enable-background="new    " width="562" height="851" xlink:href="3562297C3CD019C9.jpeg"  transform="matrix(0.9982 0 0 0.9988 -267.9985 -100.9502)">
				</image>
			</g>
		</g>
	</g>
	<g display="inline">
		<g>
			<defs>
				<path id="SVGID_52_" d="M24.087,57.848h30.136c0.811,0,1.469,0.664,1.469,1.484s-0.658,1.484-1.469,1.484H24.087
					c-0.813,0-1.471-0.664-1.471-1.484S23.275,57.848,24.087,57.848L24.087,57.848z"/>
			</defs>
			<clipPath id="SVGID_53_">
				<use xlink:href="#SVGID_52_"  overflow="visible"/>
			</clipPath>
			<g clip-path="url(#SVGID_53_)">
				
					<image overflow="visible" enable-background="new    " width="562" height="851" xlink:href="3562297C3CD019CB.jpeg"  transform="matrix(0.9982 0 0 0.9988 -267.9985 -100.9502)">
				</image>
			</g>
		</g>
	</g>
	<g display="inline">
		<g>
			<defs>
				<path id="SVGID_54_" d="M24.087,64.534h30.136c0.811,0,1.469,0.665,1.469,1.485s-0.658,1.485-1.469,1.485H24.087
					c-0.813,0-1.471-0.665-1.471-1.485C22.617,65.199,23.275,64.534,24.087,64.534L24.087,64.534z"/>
			</defs>
			<clipPath id="SVGID_55_">
				<use xlink:href="#SVGID_54_"  overflow="visible"/>
			</clipPath>
			<g clip-path="url(#SVGID_55_)">
				
					<image overflow="visible" enable-background="new    " width="562" height="851" xlink:href="3562297C3CD019C9.jpeg"  transform="matrix(0.9982 0 0 0.9988 -267.9985 -100.9502)">
				</image>
			</g>
		</g>
	</g>
	<path display="inline" fill="#FCAB0F" d="M88.061,59.484H48.373c-1.623,0-2.941-1.332-2.941-2.974v-27.49
		c0-1.641,1.318-2.971,2.941-2.971h39.688c1.625,0,2.94,1.33,2.94,2.971V56.51C91.001,58.152,89.686,59.484,88.061,59.484
		L88.061,59.484z M79.824,72.855l-11.76-14.859h16.903L79.824,72.855L79.824,72.855z"/>
	<path display="inline" fill="#FFFFFF" d="M65.134,52.285c0.864,0.559,1.864,0.937,3.082,0.908c1.218,0.029,2.218-0.349,3.082-0.908
		v-2.266h-6.163L65.134,52.285L65.134,52.285z M71.168,48.705c0-4.771,5.07-6.295,4.689-11.046c-0.238-2.998-2.27-6.362-7.643-6.362
		s-7.402,3.364-7.643,6.362c-0.381,4.751,4.689,6.276,4.689,11.046H71.168z"/>
</g>
<g id="Capa_5" display="none">
	<g display="inline">
		<g>
			<path id="SVGID_63_" fill="#3F566F" d="M33.064,101.873c-6.253-2.645-11.866-6.43-16.688-11.249
				c-4.819-4.821-8.604-10.435-11.249-16.688C2.39,67.463,1.001,60.586,1.001,53.5s1.388-13.963,4.126-20.436
				c2.645-6.252,6.43-11.866,11.249-16.688c4.821-4.819,10.435-8.604,16.688-11.249C39.537,2.39,46.414,1.002,53.5,1.002
				S67.463,2.39,73.936,5.128c6.252,2.645,11.867,6.43,16.688,11.249c4.817,4.821,8.604,10.435,11.248,16.688
				c2.737,6.473,4.127,13.35,4.127,20.436s-1.39,13.963-4.127,20.437c-2.646,6.252-6.431,11.865-11.248,16.688
				c-4.819,4.818-10.437,8.604-16.688,11.249C67.463,104.611,60.586,106,53.5,106S39.537,104.609,33.064,101.873"/>
		</g>
	</g>
	<path display="inline" fill="none" d="M53.5,4.001c27.338,0,49.498,22.161,49.498,49.5S80.838,103,53.5,103
		C26.161,103,4,80.839,4,53.5S26.161,4.001,53.5,4.001L53.5,4.001z"/>
	<path display="inline" fill="#47627E" d="M53.5,4.001c27.338,0,49.498,22.161,49.498,49.5S80.838,103,53.5,103
		C26.161,103,4,80.839,4,53.5S26.161,4.001,53.5,4.001L53.5,4.001z"/>
	<g display="inline">
		<g>
			<defs>
				<path id="SVGID_56_" d="M53.5,4.001c27.338,0,49.498,22.161,49.498,49.5S80.838,103,53.5,103C26.161,103,4,80.839,4,53.5
					S26.161,4.001,53.5,4.001L53.5,4.001z"/>
			</defs>
			<clipPath id="SVGID_57_">
				<use xlink:href="#SVGID_56_"  overflow="visible"/>
			</clipPath>
			<polygon clip-path="url(#SVGID_57_)" fill="#283E58" points="85.198,103.984 -49.133,107 25.356,-4.057 			"/>
		</g>
		<g>
			<defs>
				<path id="SVGID_58_" d="M53.5,4.001c27.338,0,49.498,22.161,49.498,49.5S80.838,103,53.5,103C26.161,103,4,80.839,4,53.5
					S26.161,4.001,53.5,4.001L53.5,4.001z"/>
			</defs>
			<clipPath id="SVGID_59_">
				<use xlink:href="#SVGID_58_"  overflow="visible"/>
			</clipPath>
			<g opacity="0.6" clip-path="url(#SVGID_59_)">
				<path d="M99.761,20.617c-3.509-3.088-12.226-5.299-16.046-7.934c-15.012-10.35-21.98-8.682-42.151-5.469
					c-2.563,0.408-4.674,2.288-7.063,3.314c-5.041,2.171-8.026,5.334-9.578,11.17c-1.603,6.029-5.736,11.392-8.804,17.023
					c-0.643,1.181-1.46,2.268-1.97,4.03c8.748-6.451,17.657-11.021,29.465-4.426C26.385,36.459,15.956,44.77,8.611,57.568
					c-5.159,8.99-9.341,18.567-8.208,29.847c3.873-1.494,7.981-1.634,7.981-7.403c0-1.943,2.966-3.891,4.624-5.892
					c4.383,4.542,4.233,7.344-0.326,11.978c6.243,7.62,1.394,14.69-2.186,22.715c3.508-1.701,6.066-2.942,8.568-4.154
					c-2.068,3.051-4.122,6.081-6.175,9.107c-5.931,0-11.861,0-17.793,0c-0.777-29.88,2.811-58.998,15.921-86.701
					c-5.216-0.618-9.85-0.575-11.801-6.056C-3.36,13.78-1.502,7.288,4.617,3.858c6.601-3.702,15.591-2.021,19.524,4.067
					c1.791,2.774,3.274,3.027,5.823,1.301c1.56-1.058,3.346-1.887,5.143-2.467c7.573-2.43,17.98-4.729,25.581-7.075
					c2.791,0,2.791,0,5.582,0c2.846,0.625,5.805,0.938,8.518,1.931c8.376,3.052,16.656,6.368,24.974,9.581
					C99.761,14.336,99.761,17.476,99.761,20.617z M6.033,47.808c10.231-9.807,16.222-21,14.458-26.57
					C13.555,28.637,9.285,37.24,6.033,47.808z"/>
			</g>
		</g>
	</g>
	<g display="inline">
		<g>
			<g>
				<defs>
					
						<rect id="SVGID_60_" x="35.16" y="17.893" transform="matrix(0.8644 -0.5027 0.5027 0.8644 -15.9909 32.2217)" width="33.186" height="55.739"/>
				</defs>
				<clipPath id="SVGID_61_">
					<use xlink:href="#SVGID_60_"  overflow="visible"/>
				</clipPath>
				<g clip-path="url(#SVGID_61_)">
					
						<image overflow="visible" enable-background="new    " width="39" height="89" xlink:href="3562297C3CD019E2.jpeg"  transform="matrix(0.7362 -0.4282 0.4282 0.7362 23.2344 29.7388)">
					</image>
				</g>
			</g>
		</g>
		<g>
			<g>
				<defs>
					
						<rect id="SVGID_62_" x="22.353" y="42.911" transform="matrix(-0.5028 -0.8644 0.8644 -0.5028 38.7213 119.6622)" width="62.848" height="11.567"/>
				</defs>
				<clipPath id="SVGID_64_">
					<use xlink:href="#SVGID_62_"  overflow="visible"/>
				</clipPath>
				<g clip-path="url(#SVGID_64_)">
					
						<image overflow="visible" enable-background="new    " width="39" height="89" xlink:href="3562297C3CD019E2.jpeg"  transform="matrix(0.7362 -0.4282 0.4282 0.7362 23.2344 29.7388)">
					</image>
				</g>
			</g>
		</g>
		<g>
			<g>
				<defs>
					
						<rect id="SVGID_65_" x="33.411" y="34.699" transform="matrix(-0.5027 -0.8644 0.8644 -0.5027 57.3619 113.4819)" width="55.821" height="11.087"/>
				</defs>
				<clipPath id="SVGID_66_">
					<use xlink:href="#SVGID_65_"  overflow="visible"/>
				</clipPath>
				<g clip-path="url(#SVGID_66_)">
					
						<image overflow="visible" enable-background="new    " width="39" height="89" xlink:href="3562297C3CD019EE.jpeg"  transform="matrix(0.7362 -0.4282 0.4282 0.7362 23.2344 29.7388)">
					</image>
				</g>
			</g>
		</g>
		<g>
			<g>
				<defs>
					<path id="SVGID_67_" d="M77.798,74.816c-1.071,6.146-5.368,6.507-5.368,6.507s-2.354,3.571-8.176,1.472
						c-6.275-2.265-12.799-4.618-12.799-4.618l28.668-16.673C80.124,61.504,78.939,68.268,77.798,74.816L77.798,74.816z
						 M68.54,74.633c-2.642,1.536-6.007,0.674-7.521-1.929c-1.514-2.601-0.6-5.954,2.041-7.49c2.641-1.534,6.01-0.672,7.521,1.929
						C72.096,69.744,71.18,73.098,68.54,74.633L68.54,74.633z M65.584,76.535c-2.139,1.244-3.525-1.38-6.895-2.02
						c-0.791-0.148-6.945,4.246-7.233,3.752c-1.512-2.601-0.599-5.955,2.042-7.492c2.641-1.535,6.008-0.67,7.521,1.929
						C62.533,75.307,68.227,74.999,65.584,76.535L65.584,76.535z M75.538,65.083c0.601,2.315,0.948,2.918-1.251,4.198
						c-2.641,1.535-2.189,0.463-3.703-2.139c-1.512-2.601-0.6-5.955,2.042-7.492c2.64-1.534,6.008-0.67,7.521,1.931
						C80.398,62.016,75.417,64.619,75.538,65.083L75.538,65.083z"/>
				</defs>
				<clipPath id="SVGID_68_">
					<use xlink:href="#SVGID_67_"  overflow="visible"/>
				</clipPath>
				<g clip-path="url(#SVGID_68_)">
					
						<image overflow="visible" enable-background="new    " width="39" height="89" xlink:href="3562297C3CD019EE.jpeg"  transform="matrix(0.7362 -0.4282 0.4282 0.7362 23.2344 29.7388)">
					</image>
				</g>
			</g>
		</g>
		<g>
			<g>
				<defs>
					<polygon id="SVGID_69_" points="77.812,74.721 75.686,86.918 64.055,82.723 					"/>
				</defs>
				<clipPath id="SVGID_70_">
					<use xlink:href="#SVGID_69_"  overflow="visible"/>
				</clipPath>
				<g clip-path="url(#SVGID_70_)">
					
						<image overflow="visible" enable-background="new    " width="39" height="89" xlink:href="3562297C3CD019E2.jpeg"  transform="matrix(0.7362 -0.4282 0.4282 0.7362 23.2344 29.7388)">
					</image>
				</g>
			</g>
		</g>
	</g>
</g>
<g>
	<defs>
		<path id="SVGID_71_" d="M36.291,93.199c-5.002-2.116-9.492-5.144-13.351-8.999c-3.854-3.857-6.883-8.349-8.999-13.351
			c-2.19-5.178-3.301-10.68-3.301-16.349c0-5.669,1.11-11.171,3.301-16.349c2.116-5.003,5.145-9.494,8.999-13.351
			c3.858-3.855,8.349-6.884,13.351-9c5.179-2.189,10.681-3.3,16.35-3.3c5.669,0,11.17,1.11,16.349,3.3
			c5.001,2.116,9.494,5.145,13.35,9c3.855,3.856,6.883,8.348,8.999,13.351c2.19,5.178,3.302,10.68,3.302,16.349
			c0,5.669-1.111,11.171-3.302,16.349c-2.116,5.002-5.144,9.493-8.999,13.351c-3.855,3.855-8.349,6.883-13.35,8.999
			C63.811,95.389,58.31,96.5,52.64,96.5C46.971,96.5,41.469,95.389,36.291,93.199"/>
	</defs>
	<use xlink:href="#SVGID_71_"  overflow="visible" fill-rule="evenodd" clip-rule="evenodd" fill="#3F566F"/>
	<clipPath id="SVGID_72_">
		<use xlink:href="#SVGID_71_"  overflow="visible"/>
	</clipPath>
</g>
<path fill-rule="evenodd" clip-rule="evenodd" fill="none" d="M52.64,14.9c21.871,0,39.599,17.729,39.599,39.601
	c0,21.87-17.729,39.6-39.599,39.6c-21.872,0-39.601-17.729-39.601-39.6C13.04,32.629,30.768,14.9,52.64,14.9L52.64,14.9z"/>
<g>
	<defs>
		<path id="SVGID_73_" d="M52.64,14.9c21.871,0,39.599,17.729,39.599,39.601c0,21.87-17.729,39.6-39.599,39.6
			c-21.872,0-39.601-17.729-39.601-39.6C13.04,32.629,30.768,14.9,52.64,14.9L52.64,14.9z"/>
	</defs>
	<clipPath id="SVGID_74_">
		<use xlink:href="#SVGID_73_"  overflow="visible"/>
	</clipPath>
</g>
<path fill-rule="evenodd" clip-rule="evenodd" fill="#47627E" d="M52.64,14.9c21.871,0,39.599,17.729,39.599,39.601
	c0,21.87-17.729,39.6-39.599,39.6c-21.872,0-39.601-17.729-39.601-39.6C13.04,32.629,30.768,14.9,52.64,14.9L52.64,14.9z"/>
<path fill-rule="evenodd" clip-rule="evenodd" fill="none" d="M52.639,14.5c21.873,0,39.602,17.73,39.602,39.601
	c0,21.871-17.729,39.602-39.602,39.602c-21.87,0-39.6-17.73-39.6-39.602C13.04,32.23,30.769,14.5,52.639,14.5L52.639,14.5z"/>
<g>
	<defs>
		<path id="SVGID_75_" d="M52.639,14.899c21.873,0,39.602,17.73,39.602,39.602c0,21.87-17.729,39.602-39.602,39.602
			c-21.87,0-39.6-17.731-39.6-39.602C13.04,32.629,30.769,14.899,52.639,14.899L52.639,14.899z"/>
	</defs>
	<clipPath id="SVGID_76_">
		<use xlink:href="#SVGID_75_"  overflow="visible"/>
	</clipPath>
	<polygon clip-path="url(#SVGID_76_)" fill="#283E58" points="121.346,96.102 22.937,94.589 73.471,9.667 121.346,96.102 	"/>
	<path opacity="0.6" clip-path="url(#SVGID_76_)" fill-rule="evenodd" clip-rule="evenodd" d="M86.436,47.482
		c-0.241-3.467,7.258-4.671,6.981-5.853c-0.4-1.715-2.133-3.714-3.797-4.428c-4.805-2.062-7.552-1.18-11.02,2.744
		c-3.593,4.063-5.62,8.708-3.333,14.006c3.671,8.507,9.647,10.326,19.312,9.096c13.809-1.755,22.207-10.98,26.213-23.625
		c2.002-6.318,1.651-13.389,2.29-20.127c0.05-0.52-0.485-1.095-0.775-1.701c-8.13,6.479-9.673,6.889-13.532,3.064
		c4.621-1.077,7.625-3.76,7.88-8.359c0.227-4.092,0.177-8.243-0.265-12.311c-0.382-3.516-1.49-6.951-2.196-10.07
		c12.325,16.897,16.037,43.909,3.719,63.104c-7.578,11.808-18.865,17.756-32.535,19.842c-7.389,1.128-14.762,2.51-22.014,4.297
		c-2.729,0.672-5.27,2.595-7.546,4.393c-1.058,0.835-1.277,2.731-1.877,4.148c1.207,0.427,2.413,0.853,3.898,1.378
		c0.133,1.95-0.227,3.768-3.002,3.724c-2.634-0.039-4.036-1.65-3.808-4.146c0.369-4.025,2.124-7.349,5.637-9.69
		c1.452-0.97,2.434-2.645,3.891-3.608c1.592-1.056,3.425-2.138,5.255-2.357c3.172-0.384,6.436,0.068,9.633-0.188
		c1.779-0.144,4.753-0.687,4.997-1.623c0.578-2.208,0.582-4.647-2.026-6.66c-5.262-4.056-7.276-9.791-6.061-16.405
		c1.201-6.531,7.21-12.6,13.23-13.626c4.415-0.754,9.513,1.15,11.295,5.159c0.858,1.93,0.594,5.114-0.501,6.919
		C95.49,46.038,90.769,54.081,86.436,47.482z"/>
</g>
<path opacity="0.3" fill="#122735" d="M66.809,76.417H30.974c-1.657,0-3-1.344-3-3V35.583c0-1.656,1.343-3,3-3h43.333
	c1.658,0,3,1.344,3,3v30.225L66.809,76.417z"/>
<path fill="#FFFFFF" d="M67.31,76.168H31.475c-1.657,0-3-1.344-3-3V35.333c0-1.656,1.343-3,3-3h43.332c1.658,0,3,1.344,3,3v30.225
	L67.31,76.168z"/>
<path fill="#F6A509" d="M77.807,46.152H28.475V35.334c0-1.657,1.343-3,3-3h43.332c1.658,0,3,1.343,3,3V46.152z"/>
<g>
	<circle fill="#47627E" cx="36.908" cy="39.243" r="1.796"/>
	<circle fill="#283E58" cx="69.374" cy="39.243" r="1.796"/>
</g>
<g>
	<path d="M40.366,70.442v-1.511l1.93-1.871c4.64-4.417,6.737-6.768,6.764-9.507c0-1.844-0.895-3.549-3.605-3.549
		c-1.65,0-3.02,0.839-3.857,1.536l-0.783-1.732c1.258-1.062,3.047-1.846,5.143-1.846c3.915,0,5.563,2.685,5.563,5.283
		c0,3.354-2.432,6.067-6.262,9.757l-1.454,1.343V68.4h8.164v2.042H40.366z"/>
	<path d="M65.552,54.34h-6.933l-0.699,4.668c0.42-0.055,0.811-0.111,1.481-0.111c1.397,0,2.796,0.308,3.913,0.978
		c1.426,0.812,2.602,2.377,2.602,4.67c0,3.549-2.824,6.206-6.767,6.206c-1.985,0-3.661-0.561-4.528-1.119l0.615-1.873
		c0.754,0.449,2.236,1.007,3.886,1.007c2.32,0,4.304-1.511,4.304-3.942c-0.027-2.348-1.592-4.025-5.227-4.025
		c-1.035,0-1.846,0.111-2.516,0.196l1.174-8.723h8.694V54.34z"/>
</g>
<path fill="#C6C3AE" d="M67.578,76.169v-7.066c0-2.055,1.666-3.722,3.723-3.722l6.506,0.178L67.578,76.169z"/>
</svg>
