<?xml version="1.0" encoding="utf-8"?>
<!-- Generator: Adobe Illustrator 16.0.0, SVG Export Plug-In . SVG Version: 6.00 Build 0)  -->
<!DOCTYPE svg PUBLIC "-//W3C//DTD SVG 1.1//EN" "http://www.w3.org/Graphics/SVG/1.1/DTD/svg11.dtd">
<svg version="1.1" id="Layer_1" xmlns="http://www.w3.org/2000/svg" xmlns:xlink="http://www.w3.org/1999/xlink" x="0px" y="0px"
	 width="50px" height="50px" viewBox="0 0 50 50" enable-background="new 0 0 50 50" xml:space="preserve">
<g>
	<circle fill="#283E58" cx="25" cy="25.001" r="22.001"/>
	<g>
		<path fill="#FFFFFF" d="M32.051,26.464c-0.329-5.979-0.782-8.38-4.643-9.829c-1.375-0.518-0.642-1.402-1.835-1.432
			s-0.527,0.891-1.938,1.339c-3.96,1.256-4.591,3.631-5.364,9.581c-0.324,2.506-2.357,1.823-2.451,4.342
			c-0.067,1.836,3.897,4.199,9.025,4.326c5.128,0.126,9.262-2.036,9.33-3.873C34.27,28.4,32.19,28.98,32.051,26.464z M24.904,33.239
			c-4.58-0.113-7.511-2.292-7.495-2.734c0.028-0.763,2.444-2.38,7.68-2.251c5.237,0.13,7.531,1.773,7.5,2.625
			C32.569,31.382,29.484,33.354,24.904,33.239z M25.057,29.137c-2.395-0.06-4.198,0.247-5.454,0.67
			c0.42,0.862,1.599,1.503,3.015,1.538c1.802,0.045,3.299-0.907,3.344-2.125c0.001-0.015-0.002-0.029-0.002-0.044
			C25.669,29.157,25.369,29.145,25.057,29.137z"/>
	</g>
</g>
</svg>
