<?xml version="1.0" encoding="utf-8"?>
<!-- Generator: Adobe Illustrator 16.0.0, SVG Export Plug-In . SVG Version: 6.00 Build 0)  -->
<!DOCTYPE svg PUBLIC "-//W3C//DTD SVG 1.1//EN" "http://www.w3.org/Graphics/SVG/1.1/DTD/svg11.dtd">
<svg version="1.1" id="Layer_1" xmlns="http://www.w3.org/2000/svg" xmlns:xlink="http://www.w3.org/1999/xlink" x="0px" y="0px"
	 width="50px" height="50px" viewBox="0 0 50 50" enable-background="new 0 0 50 50" xml:space="preserve">
<g>
	<circle fill="#283E58" cx="24.999" cy="24.951" r="22.001"/>
	<g id="CALENDAR__x2F__OK_2_">
		<g id="CALENDAR__x2F__OK_3_">
			<g>
				<path fill="#FFFFFF" d="M31.115,18.201c0.622,0,1.125-0.504,1.125-1.125v-3c0-0.621-0.503-1.125-1.125-1.125
					c-0.621,0-1.125,0.504-1.125,1.125v3C29.99,17.697,30.494,18.201,31.115,18.201z M35.99,15.951h-2.25v1.125
					c0,1.449-1.175,2.625-2.625,2.625c-1.449,0-2.625-1.176-2.625-2.625v-1.125h-6.75v1.125c0,1.449-1.175,2.625-2.625,2.625
					s-2.625-1.176-2.625-2.625v-1.125h-2.25c-0.622,0-1.125,0.504-1.125,1.125v18.75c0,0.621,0.503,1.125,1.125,1.125h21.75
					c0.622,0,1.125-0.504,1.125-1.125v-18.75C37.115,16.455,36.612,15.951,35.99,15.951z M34.865,34.701h-19.5v-12.75h19.5V34.701z
					 M19.116,18.201c0.622,0,1.125-0.504,1.125-1.125v-3c0-0.621-0.503-1.125-1.125-1.125s-1.125,0.504-1.125,1.125v3
					C17.991,17.697,18.494,18.201,19.116,18.201z M23.195,31.746c0.204,0.203,0.485,0.33,0.795,0.33s0.592-0.127,0.795-0.33
					l5.25-5.25c0.204-0.203,0.329-0.484,0.329-0.795c0-0.621-0.503-1.125-1.125-1.125c-0.311,0-0.592,0.125-0.795,0.33l-4.455,4.453
					l-1.83-1.83c-0.204-0.203-0.485-0.328-0.795-0.328c-0.622,0-1.125,0.504-1.125,1.125c0,0.311,0.126,0.592,0.33,0.795
					L23.195,31.746z"/>
			</g>
		</g>
	</g>
</g>
</svg>
