<?xml version="1.0" encoding="utf-8"?>
<!-- Generator: Adobe Illustrator 16.0.0, SVG Export Plug-In . SVG Version: 6.00 Build 0)  -->
<!DOCTYPE svg PUBLIC "-//W3C//DTD SVG 1.1//EN" "http://www.w3.org/Graphics/SVG/1.1/DTD/svg11.dtd">
<svg version="1.1" id="Layer_1" xmlns="http://www.w3.org/2000/svg" xmlns:xlink="http://www.w3.org/1999/xlink" x="0px" y="0px"
	 width="100px" height="50px" viewBox="0 0 100 50" enable-background="new 0 0 100 50" xml:space="preserve">
<g>
	<path fill="none" stroke="#FFFFFF" stroke-linecap="round" stroke-linejoin="round" stroke-miterlimit="10" d="M42.9,21.309
		c6.66,11.526,14.378,12.692,13.522,11.898c-6.072-4.55-8.681-11.558-9.481-14.245c2.611,4.063,8.72,17.991,26.551,22.977
		c17.78,4.971,31.428-10.88,21.119-22.616c-3.901-4.442-12.422-4.146-15.604,1.669c-2.053,3.751,1.31,8.937,5.626,8.015
		c-0.828-2.904,6.112-3.252,6.54,3.139c0.54,8.034-15.265,9.026-23.705,0.1c-6.06-6.412-9.945-14.131-17.378-19.1
		c-7.738-5.174-17.556-8.07-26.965-7.128C8.014,7.532-1.296,19.323,4.17,32.101c5.236,12.231,20.313,13.652,25.993,2.044
		c6.314-12.9-17.475-18.511-14.769-5.72c0.699-0.465,1.377-0.409,2.041,0.165c1.146,4.021-10.383,0.973-8.149-6.726
		C13.53,7.242,34.434,6.662,42.9,21.309z"/>
</g>
</svg>
