<?xml version="1.0" encoding="utf-8"?>
<!-- Generator: Adobe Illustrator 16.0.0, SVG Export Plug-In . SVG Version: 6.00 Build 0)  -->
<!DOCTYPE svg PUBLIC "-//W3C//DTD SVG 1.1//EN" "http://www.w3.org/Graphics/SVG/1.1/DTD/svg11.dtd">
<svg version="1.1" id="Capa_1" xmlns="http://www.w3.org/2000/svg" xmlns:xlink="http://www.w3.org/1999/xlink" x="0px" y="0px"
	 width="96.576px" height="38.035px" viewBox="0 0 96.576 38.035" enable-background="new 0 0 96.576 38.035" xml:space="preserve">
<g>
	<path fill="none" stroke="#FCA309" stroke-linecap="round" stroke-linejoin="round" stroke-miterlimit="10" d="M40.809,15.968
		c6.66,11.524,14.378,12.691,13.521,11.897c-6.071-4.55-8.681-11.558-9.48-14.244c2.611,4.063,8.72,17.99,26.551,22.977
		c17.78,4.971,31.428-10.88,21.119-22.615c-3.901-4.442-12.422-4.146-15.604,1.669c-2.053,3.751,1.31,8.937,5.626,8.015
		c-0.828-2.904,6.112-3.252,6.54,3.139c0.54,8.034-15.265,9.026-23.705,0.1c-6.06-6.411-9.945-14.131-17.377-19.1
		c-7.738-5.174-17.557-8.07-26.966-7.128C5.923,2.19-3.388,13.981,2.079,26.759C7.315,38.99,22.393,40.41,28.072,28.803
		c6.314-12.899-17.475-18.511-14.769-5.72c0.699-0.465,1.377-0.409,2.041,0.165c1.146,4.02-10.383,0.972-8.149-6.726
		C11.439,1.9,32.343,1.32,40.809,15.968z"/>
</g>
</svg>
