<?xml version="1.0" encoding="utf-8"?>
<!-- Generator: Adobe Illustrator 16.0.0, SVG Export Plug-In . SVG Version: 6.00 Build 0)  -->
<!DOCTYPE svg PUBLIC "-//W3C//DTD SVG 1.1//EN" "http://www.w3.org/Graphics/SVG/1.1/DTD/svg11.dtd">
<svg version="1.1" id="Layer_1" xmlns="http://www.w3.org/2000/svg" xmlns:xlink="http://www.w3.org/1999/xlink" x="0px" y="0px"
	 width="51.841px" height="50.668px" viewBox="0 0 51.841 50.668" enable-background="new 0 0 51.841 50.668" xml:space="preserve">
<g>
	<path fill="#DBDBDB" d="M25.922,50.335c13.807,0,25-11.193,25-25.001c0-13.809-11.193-25.001-25-25.001
		C12.113,0.333,0.92,11.525,0.92,25.334C0.92,39.142,12.113,50.335,25.922,50.335z M25.922,5.768
		c10.805,0,19.564,8.76,19.564,19.566s-8.76,19.565-19.564,19.565c-10.808,0-19.567-8.759-19.567-19.565S15.114,5.768,25.922,5.768z
		 M21.029,35.796h9.783V24.681h6.114L25.921,14.328L14.915,24.681h6.114V35.796z"/>
</g>
</svg>
