<?xml version="1.0" encoding="utf-8"?>
<!-- Generator: Adobe Illustrator 16.0.4, SVG Export Plug-In . SVG Version: 6.00 Build 0)  -->
<!DOCTYPE svg PUBLIC "-//W3C//DTD SVG 1.1//EN" "http://www.w3.org/Graphics/SVG/1.1/DTD/svg11.dtd">
<svg version="1.1" id="Layer_1" xmlns="http://www.w3.org/2000/svg" xmlns:xlink="http://www.w3.org/1999/xlink" x="0px" y="0px"
	 width="107px" height="107px" viewBox="0 0 107 107" enable-background="new 0 0 107 107" xml:space="preserve">
<g id="icon_1">
	<g>
		<g>
			<path id="SVGID_1_" fill="#3F566F" d="M33.063,101.873c-6.253-2.645-11.866-6.43-16.688-11.249
				c-4.819-4.821-8.604-10.435-11.249-16.688C2.388,67.463,1,60.586,1,53.5s1.388-13.963,4.126-20.436
				c2.645-6.252,6.43-11.866,11.249-16.688c4.821-4.819,10.435-8.604,16.688-11.249c6.473-2.738,13.35-4.126,20.436-4.126
				S67.461,2.39,73.934,5.128c6.252,2.645,11.867,6.43,16.688,11.249c4.817,4.821,8.604,10.435,11.248,16.688
				c2.737,6.473,4.127,13.35,4.127,20.436s-1.39,13.963-4.127,20.437c-2.646,6.252-6.431,11.865-11.248,16.688
				c-4.82,4.818-10.437,8.604-16.688,11.249C67.461,104.611,60.584,106,53.498,106S39.536,104.609,33.063,101.873"/>
		</g>
	</g>
	<path fill="none" d="M53.499,4.001c27.338,0,49.498,22.161,49.498,49.5S80.836,103,53.499,103c-27.339,0-49.5-22.161-49.5-49.499
		S26.16,4.001,53.499,4.001L53.499,4.001z"/>
	<path fill="#47627E" d="M53.25,4.001c27.338,0,49.498,22.161,49.498,49.5S80.587,103,53.25,103c-27.339,0-49.5-22.161-49.5-49.499
		S25.911,4.001,53.25,4.001L53.25,4.001z"/>
	<g>
		<g>
			<defs>
				<path id="SVGID_2_" d="M53.499,4.001c27.338,0,49.498,22.161,49.498,49.5S80.836,103,53.499,103
					c-27.339,0-49.5-22.161-49.5-49.499S26.16,4.001,53.499,4.001L53.499,4.001z"/>
			</defs>
			<clipPath id="SVGID_3_">
				<use xlink:href="#SVGID_2_"  overflow="visible"/>
			</clipPath>
			<polygon clip-path="url(#SVGID_3_)" fill="#283E58" points="85.197,103.984 -49.134,107 25.355,-4.057 			"/>
		</g>
		<g>
			<defs>
				<path id="SVGID_4_" d="M53.499,4.001c27.338,0,49.498,22.161,49.498,49.5S80.836,103,53.499,103
					c-27.339,0-49.5-22.161-49.5-49.499S26.16,4.001,53.499,4.001L53.499,4.001z"/>
			</defs>
			<clipPath id="SVGID_5_">
				<use xlink:href="#SVGID_4_"  overflow="visible"/>
			</clipPath>
			<g opacity="0.6" clip-path="url(#SVGID_5_)">
				<path d="M99.759,20.617c-3.509-3.088-12.226-5.299-16.046-7.934c-15.012-10.35-21.98-8.682-42.15-5.469
					C39,7.623,36.889,9.502,34.5,10.528c-5.041,2.171-8.026,5.334-9.578,11.17c-1.603,6.029-5.736,11.392-8.804,17.023
					c-0.643,1.181-1.46,2.268-1.97,4.03c8.748-6.451,17.657-11.021,29.465-4.426C26.384,36.459,15.955,44.771,8.61,57.568
					c-5.159,8.99-9.341,18.567-8.208,29.847c3.873-1.494,7.981-1.634,7.981-7.403c0-1.943,2.966-3.891,4.624-5.892
					c4.383,4.542,4.233,7.344-0.326,11.978c6.243,7.62,1.394,14.69-2.186,22.715c3.508-1.701,6.066-2.942,8.568-4.154
					c-2.068,3.051-4.122,6.081-6.175,9.107c-5.931,0-11.861,0-17.793,0c-0.777-29.88,2.811-58.998,15.921-86.701
					C5.8,26.447,1.166,26.49-0.785,21.009C-3.362,13.78-1.503,7.288,4.616,3.858c6.601-3.702,15.591-2.021,19.524,4.067
					c1.791,2.774,3.274,3.027,5.823,1.301c1.56-1.058,3.346-1.887,5.143-2.467c7.573-2.43,17.98-4.729,25.58-7.075
					c2.791,0,2.793,0,5.582,0c2.846,0.625,5.805,0.938,8.519,1.931c8.376,3.052,16.655,6.368,24.974,9.581
					C99.759,14.336,99.759,17.476,99.759,20.617z M6.031,47.808c10.231-9.807,16.222-21,14.458-26.57
					C13.554,28.637,9.284,37.24,6.031,47.808z"/>
			</g>
		</g>
	</g>
	<path fill="none" d="M53.499,4.317c27.338,0,49.498,22.161,49.498,49.5c0,27.339-22.16,49.5-49.498,49.5
		C26.16,103.316,4,81.155,4,53.817C4,26.479,26.16,4.317,53.499,4.317L53.499,4.317z"/>
	<g>
		<g>
			<defs>
				<path id="SVGID_6_" d="M53.499,4.317c27.338,0,49.498,22.161,49.498,49.5c0,27.339-22.16,49.5-49.498,49.5
					C26.16,103.316,4,81.155,4,53.817C4,26.479,26.16,4.317,53.499,4.317L53.499,4.317z"/>
			</defs>
			<clipPath id="SVGID_7_">
				<use xlink:href="#SVGID_6_"  overflow="visible"/>
			</clipPath>
			<polygon clip-path="url(#SVGID_7_)" fill="#283E58" points="83.863,105.029 -50.467,108.045 24.022,-3.012 			"/>
		</g>
		<g>
			<defs>
				<path id="SVGID_8_" d="M53.499,4.317c27.338,0,49.498,22.161,49.498,49.5c0,27.339-22.16,49.5-49.498,49.5
					C26.16,103.316,4,81.155,4,53.817C4,26.479,26.16,4.317,53.499,4.317L53.499,4.317z"/>
			</defs>
			<clipPath id="SVGID_10_">
				<use xlink:href="#SVGID_8_"  overflow="visible"/>
			</clipPath>
			<g opacity="0.6" clip-path="url(#SVGID_10_)">
				<path d="M99.76,20.934c-3.509-3.089-12.226-5.3-16.046-7.934C68.702,2.649,61.732,4.317,41.563,7.531
					C39,7.939,36.889,9.818,34.5,10.845c-5.041,2.171-8.026,5.334-9.578,11.17c-1.603,6.029-5.736,11.392-8.804,17.023
					c-0.643,1.181-1.46,2.268-1.97,4.03c8.748-6.451,17.657-11.021,29.465-4.426C26.384,36.776,15.955,45.087,8.61,57.885
					c-5.159,8.99-9.341,18.568-8.208,29.848c3.873-1.494,7.981-1.635,7.981-7.403c0-1.944,2.966-3.892,4.624-5.892
					c4.383,4.541,4.233,7.344-0.326,11.977c6.243,7.621,1.394,14.691-2.186,22.716c3.508-1.702,6.066-2.942,8.568-4.155
					c-2.068,3.051-4.122,6.082-6.175,9.108c-5.931,0-11.861,0-17.793,0c-0.777-29.88,2.811-58.999,15.921-86.701
					c-5.216-0.618-9.85-0.575-11.801-6.056c-2.576-7.23-0.718-13.723,5.401-17.153C11.217,0.471,20.207,2.152,24.14,8.24
					c1.791,2.774,3.274,3.027,5.823,1.301c1.56-1.058,3.346-1.887,5.143-2.467c7.573-2.43,17.98-4.729,25.58-7.075
					c2.791,0,2.793,0,5.582,0c2.846,0.625,5.805,0.938,8.519,1.931c8.376,3.052,16.655,6.368,24.974,9.581
					C99.76,14.653,99.76,17.792,99.76,20.934z M6.032,48.125c10.231-9.807,16.222-21,14.458-26.57
					C13.554,28.953,9.284,37.556,6.032,48.125z"/>
			</g>
		</g>
	</g>
	<g>
		<g>
			
				<image overflow="visible" opacity="0.47" enable-background="new    " width="54" height="64" xlink:href="946D486726C2398.png"  transform="matrix(1 0 0 1 26.249 23.5)">
			</image>
			<g>
				<path fill="#FFFFFF" d="M75.73,38.319v37.444c0,3.896-3.127,7.053-6.979,7.053H36.18c-3.854,0-6.979-3.157-6.979-7.053V33.448
					c0-3.896,3.124-7.054,6.979-7.054h27.754L75.73,38.319L75.73,38.319z"/>
			</g>
		</g>
		<g>
			<g>
				<defs>
					<path id="SVGID_11_" d="M49.155,45.082H37.288c-0.467,0-0.848-0.799-0.848-1.786c0-0.986,0.381-1.786,0.848-1.786h11.867
						c0.469,0,0.849,0.8,0.849,1.786C50.003,44.282,49.624,45.082,49.155,45.082L49.155,45.082z M67.251,52.225H37.288
						c-0.467,0-0.848-0.8-0.848-1.786c0-0.987,0.381-1.786,0.848-1.786h29.963c0.47,0,0.849,0.799,0.849,1.786
						C68.1,51.425,67.721,52.225,67.251,52.225L67.251,52.225z M67.251,59.366H37.288c-0.467,0-0.848-0.802-0.848-1.786
						c0-0.987,0.381-1.786,0.848-1.786h29.963c0.47,0,0.849,0.799,0.849,1.786C68.098,58.564,67.721,59.366,67.251,59.366
						L67.251,59.366z M67.251,66.508H37.288c-0.467,0-0.848-0.801-0.848-1.788c0-0.983,0.381-1.782,0.848-1.782h29.963
						c0.47,0,0.849,0.799,0.849,1.782C68.098,65.707,67.721,66.508,67.251,66.508L67.251,66.508z M59.225,73.648H37.288
						c-0.467,0-0.848-0.799-0.848-1.785c0-0.984,0.381-1.786,0.848-1.786h21.938c0.469,0,0.848,0.801,0.848,1.786
						C60.073,72.85,59.694,73.648,59.225,73.648L59.225,73.648z"/>
				</defs>
				<use xlink:href="#SVGID_11_"  overflow="visible" fill="#4BB5B5"/>
				<clipPath id="SVGID_12_">
					<use xlink:href="#SVGID_11_"  overflow="visible"/>
				</clipPath>
			</g>
		</g>
		<path fill="#ECEDED" d="M75.73,39.325h-5.815c-3.854,0-6.979-3.157-6.979-7.052v-5.879H64.1L75.73,38.151V39.325L75.73,39.325z"/>
	</g>
</g>
<g id="icon_2" display="none">
	<g display="inline">
		<g>
			<path id="SVGID_9_" fill="#3F566F" d="M33.064,102.41c-6.253-2.645-11.866-6.43-16.688-11.249
				C11.557,86.34,7.772,80.727,5.127,74.473C2.39,68,1.001,61.124,1.001,54.038s1.388-13.963,4.126-20.436
				c2.645-6.252,6.43-11.866,11.249-16.688c4.821-4.819,10.435-8.604,16.688-11.249c6.473-2.738,13.35-4.126,20.436-4.126
				s13.963,1.388,20.436,4.126c6.252,2.645,11.867,6.43,16.688,11.249c4.817,4.821,8.604,10.435,11.248,16.688
				c2.737,6.473,4.127,13.35,4.127,20.436s-1.39,13.963-4.127,20.437c-2.646,6.252-6.431,11.865-11.248,16.688
				c-4.819,4.818-10.437,8.604-16.688,11.249c-6.473,2.737-13.35,4.126-20.436,4.126S39.537,105.146,33.064,102.41"/>
		</g>
	</g>
	<path display="inline" fill="none" d="M53.5,4.538c27.338,0,49.498,22.161,49.498,49.5s-22.16,49.499-49.498,49.499
		C26.161,103.537,4,81.376,4,54.038S26.161,4.538,53.5,4.538L53.5,4.538z"/>
	<path display="inline" fill="#47627E" d="M53.5,4.538c27.338,0,49.498,22.161,49.498,49.5s-22.16,49.499-49.498,49.499
		C26.161,103.537,4,81.376,4,54.038S26.161,4.538,53.5,4.538L53.5,4.538z"/>
	<g display="inline">
		<g>
			<defs>
				<path id="SVGID_13_" d="M53.5,4.538c27.338,0,49.498,22.161,49.498,49.5s-22.16,49.499-49.498,49.499
					C26.161,103.537,4,81.376,4,54.038S26.161,4.538,53.5,4.538L53.5,4.538z"/>
			</defs>
			<clipPath id="SVGID_14_">
				<use xlink:href="#SVGID_13_"  overflow="visible"/>
			</clipPath>
			<polygon clip-path="url(#SVGID_14_)" fill="#283E58" points="85.197,104.521 -49.133,107.537 25.356,-3.52 			"/>
		</g>
		<g>
			<defs>
				<path id="SVGID_15_" d="M53.5,4.538c27.338,0,49.498,22.161,49.498,49.5s-22.16,49.499-49.498,49.499
					C26.161,103.537,4,81.376,4,54.038S26.161,4.538,53.5,4.538L53.5,4.538z"/>
			</defs>
			<clipPath id="SVGID_16_">
				<use xlink:href="#SVGID_15_"  overflow="visible"/>
			</clipPath>
			<g opacity="0.6" clip-path="url(#SVGID_16_)">
				<path d="M99.762,21.154c-3.51-3.088-12.227-5.299-16.047-7.934C68.703,2.87,61.734,4.538,41.564,7.751
					c-2.563,0.408-4.674,2.288-7.063,3.314c-5.041,2.171-8.026,5.334-9.578,11.17c-1.603,6.029-5.736,11.392-8.804,17.023
					c-0.643,1.181-1.46,2.268-1.97,4.03c8.748-6.451,17.657-11.021,29.465-4.426c-17.229-1.866-27.658,6.445-35.003,19.244
					C3.452,67.095-0.73,76.673,0.403,87.952c3.873-1.494,7.981-1.634,7.981-7.403c0-1.943,2.966-3.891,4.624-5.892
					c4.383,4.542,4.233,7.344-0.326,11.977c6.243,7.621,1.394,14.691-2.186,22.716c3.508-1.701,6.066-2.942,8.568-4.154
					c-2.068,3.051-4.122,6.08-6.175,9.107c-5.931,0-11.861,0-17.793,0c-0.777-29.88,2.811-58.998,15.921-86.701
					c-5.216-0.618-9.85-0.575-11.801-6.056C-3.36,14.317-1.502,7.825,4.617,4.395c6.601-3.702,15.591-2.021,19.524,4.067
					c1.791,2.774,3.274,3.027,5.823,1.301c1.56-1.058,3.346-1.887,5.143-2.467c7.573-2.43,17.98-4.729,25.581-7.075
					c2.791,0,2.791,0,5.582,0c2.846,0.625,5.805,0.938,8.518,1.931c8.376,3.052,16.656,6.368,24.975,9.581
					C99.762,14.874,99.762,18.013,99.762,21.154z M6.033,48.345c10.231-9.807,16.222-21,14.458-26.57
					C13.555,29.174,9.285,37.777,6.033,48.345z"/>
			</g>
		</g>
	</g>
	<g display="inline">
		<g>
			<g>
				<defs>
					<path id="SVGID_17_" d="M78.387,72.251H29.613c-1.995,0-3.614-1.619-3.614-3.619V35.156c0-1.999,1.619-3.618,3.614-3.618
						h48.774c1.996,0,3.613,1.619,3.613,3.618v33.477C82,70.632,80.383,72.251,78.387,72.251L78.387,72.251z M54.902,88.538
						L48.58,70.441h20.775L54.902,88.538L54.902,88.538z"/>
				</defs>
				<clipPath id="SVGID_18_">
					<use xlink:href="#SVGID_17_"  overflow="visible"/>
				</clipPath>
				<g clip-path="url(#SVGID_18_)">
					
						<image overflow="visible" enable-background="new    " width="562" height="851" xlink:href="946D486726C2399.jpeg"  transform="matrix(0.9982 0 0 0.9988 -248 -670.4639)">
					</image>
				</g>
			</g>
		</g>
		<g>
			<g>
				<defs>
					<path id="SVGID_19_" d="M35.935,42.393h37.034c0.996,0,1.807,0.813,1.807,1.81c0,1-0.811,1.812-1.807,1.812H35.935
						c-0.998,0-1.805-0.812-1.805-1.812C34.13,43.206,34.937,42.393,35.935,42.393L35.935,42.393z"/>
				</defs>
				<clipPath id="SVGID_20_">
					<use xlink:href="#SVGID_19_"  overflow="visible"/>
				</clipPath>
				<g clip-path="url(#SVGID_20_)">
					
						<image overflow="visible" enable-background="new    " width="562" height="851" xlink:href="946D486726C239F.jpeg"  transform="matrix(0.9982 0 0 0.9988 -248 -670.4639)">
					</image>
				</g>
			</g>
		</g>
		<g>
			<g>
				<defs>
					<path id="SVGID_22_" d="M35.935,50.538h37.034c0.996,0,1.807,0.81,1.807,1.81c0,0.999-0.811,1.809-1.807,1.809H35.935
						c-0.998,0-1.805-0.81-1.805-1.809C34.13,51.347,34.937,50.538,35.935,50.538L35.935,50.538z"/>
				</defs>
				<clipPath id="SVGID_23_">
					<use xlink:href="#SVGID_22_"  overflow="visible"/>
				</clipPath>
				<g clip-path="url(#SVGID_23_)">
					
						<image overflow="visible" enable-background="new    " width="562" height="851" xlink:href="946D486726C2399.jpeg"  transform="matrix(0.9982 0 0 0.9988 -248 -670.4639)">
					</image>
				</g>
			</g>
		</g>
		<g>
			<g>
				<defs>
					<path id="SVGID_24_" d="M35.935,58.68h37.034c0.996,0,1.807,0.812,1.807,1.81c0,1-0.811,1.81-1.807,1.81H35.935
						c-0.998,0-1.805-0.81-1.805-1.81C34.13,59.492,34.937,58.68,35.935,58.68L35.935,58.68z"/>
				</defs>
				<clipPath id="SVGID_25_">
					<use xlink:href="#SVGID_24_"  overflow="visible"/>
				</clipPath>
				<g clip-path="url(#SVGID_25_)">
					
						<image overflow="visible" enable-background="new    " width="562" height="851" xlink:href="946D486726C239B.jpeg"  transform="matrix(0.9982 0 0 0.9988 -248 -670.4639)">
					</image>
				</g>
			</g>
		</g>
	</g>
</g>
<g id="icon_3" display="none">
	<g display="inline">
		<g>
			<g>
				<path id="SVGID_21_" fill="#3F566F" d="M33.064,102.312c-6.253-2.645-11.866-6.43-16.688-11.248
					c-4.819-4.821-8.604-10.436-11.249-16.688C2.389,67.902,1.001,61.025,1.001,53.94c0-7.086,1.388-13.963,4.126-20.436
					c2.645-6.252,6.43-11.866,11.249-16.688c4.821-4.819,10.435-8.604,16.688-11.249c6.473-2.738,13.35-4.126,20.436-4.126
					s13.963,1.388,20.436,4.126c6.252,2.645,11.867,6.43,16.688,11.249c4.817,4.821,8.604,10.435,11.248,16.688
					c2.737,6.473,4.127,13.35,4.127,20.436c0,7.085-1.39,13.962-4.127,20.436c-2.646,6.253-6.431,11.866-11.248,16.688
					c-4.819,4.818-10.437,8.604-16.688,11.248c-6.473,2.738-13.35,4.127-20.436,4.127S39.538,105.051,33.064,102.312"/>
			</g>
		</g>
		<path fill="none" d="M53.5,4.441c27.338,0,49.498,22.161,49.498,49.5c0,27.339-22.16,49.499-49.498,49.499
			c-27.339,0-49.5-22.16-49.5-49.499C4,26.603,26.162,4.441,53.5,4.441L53.5,4.441z"/>
		<path fill="#47627E" d="M53.5,4.441c27.338,0,49.498,22.161,49.498,49.5c0,27.339-22.16,49.499-49.498,49.499
			c-27.339,0-49.5-22.16-49.5-49.499C4,26.603,26.162,4.441,53.5,4.441L53.5,4.441z"/>
		<path fill="none" d="M53.5,3.94c27.34,0,49.5,22.164,49.5,49.501c0,27.336-22.161,49.5-49.5,49.5
			c-27.337,0-49.499-22.164-49.499-49.5C4.001,26.104,26.163,3.94,53.5,3.94L53.5,3.94z"/>
		<g>
			<g>
				<defs>
					<path id="SVGID_26_" d="M53.5,4.44c27.34,0,49.5,22.164,49.5,49.501c0,27.336-22.161,49.5-49.5,49.5
						c-27.337,0-49.499-22.164-49.499-49.5C4.001,26.604,26.163,4.44,53.5,4.44L53.5,4.44z"/>
				</defs>
				<clipPath id="SVGID_27_">
					<use xlink:href="#SVGID_26_"  overflow="visible"/>
				</clipPath>
				<polygon clip-path="url(#SVGID_27_)" fill="#283E58" points="139.38,105.941 16.373,104.051 79.539,-2.1 				"/>
			</g>
			<g>
				<defs>
					<path id="SVGID_28_" d="M53.5,4.44c27.34,0,49.5,22.164,49.5,49.501c0,27.336-22.161,49.5-49.5,49.5
						c-27.337,0-49.499-22.164-49.499-49.5C4.001,26.604,26.163,4.44,53.5,4.44L53.5,4.44z"/>
				</defs>
				<clipPath id="SVGID_29_">
					<use xlink:href="#SVGID_28_"  overflow="visible"/>
				</clipPath>
				<path opacity="0.6" clip-path="url(#SVGID_29_)" enable-background="new    " d="M95.744,45.167
					c-0.301-4.333,9.072-5.837,8.727-7.315c-0.5-2.144-2.666-4.642-4.746-5.534c-6.006-2.577-9.439-1.475-13.773,3.429
					c-4.491,5.08-7.025,10.885-4.166,17.509c4.588,10.633,12.059,12.905,24.138,11.369c17.261-2.193,27.759-13.725,32.767-29.529
					c2.5-7.899,2.063-16.737,2.861-25.158c0.062-0.651-0.605-1.37-0.969-2.127c-10.163,8.099-12.091,8.611-16.915,3.831
					c5.776-1.346,9.532-4.7,9.851-10.45c0.282-5.114,0.221-10.302-0.332-15.386c-0.478-4.395-1.861-8.69-2.744-12.588
					c15.404,21.122,20.045,54.885,4.646,78.878c-9.471,14.759-23.58,22.194-40.668,24.802c-9.236,1.41-18.451,3.137-27.518,5.371
					c-3.409,0.84-6.586,3.242-9.43,5.489c-1.324,1.044-1.598,3.416-2.348,5.187c1.508,0.533,3.656-0.537,4.873,1.723
					c0.165,2.438-0.284,4.708-3.753,4.654c-3.292-0.049-5.044-2.063-4.759-5.182c0.46-5.031,2.16-10.527,6.551-13.457
					c1.814-1.211,3.537-1.961,5.355-3.166c1.99-1.32,4.281-2.672,6.569-2.947c3.966-0.479,8.045,0.086,12.042-0.235
					c2.223-0.179,5.939-0.858,6.245-2.028c0.724-2.761,0.729-5.81-2.532-8.324c-6.578-5.069-9.096-12.237-7.576-20.505
					c1.502-8.164,9.014-15.75,16.539-17.033c5.52-0.942,11.889,1.438,14.118,6.449c1.072,2.412,0.741,6.394-0.628,8.648
					C107.062,43.363,101.16,53.417,95.744,45.167z"/>
			</g>
		</g>
	</g>
	<g display="inline">
		
			<image overflow="visible" opacity="0.47" enable-background="new    " width="568" height="878" xlink:href="946D486726C2397.png"  transform="matrix(1 0 0 1 -166.9526 -34)">
		</image>
		<g>
			<g>
				<g>
					<defs>
						<path id="SVGID_30_" d="M65.389,84.415H34.714c-4.259,0-7.712-3.44-7.712-7.685V30.625c0-4.246,3.454-7.684,7.712-7.684h36
							c4.261,0,7.716,3.438,7.716,7.684v40.799L65.389,84.415L65.389,84.415z"/>
					</defs>
					<clipPath id="SVGID_31_">
						<use xlink:href="#SVGID_30_"  overflow="visible"/>
					</clipPath>
					<g clip-path="url(#SVGID_31_)">
						
							<image overflow="visible" enable-background="new    " width="562" height="872" xlink:href="946D486726C23A7.jpeg"  transform="matrix(0.9982 0 0 0.9989 -163.999 -31.0596)">
						</image>
					</g>
				</g>
			</g>
		</g>
	</g>
	<g display="inline">
		<g>
			<defs>
				<path id="SVGID_32_" d="M50.994,38.827H37.002c-0.552,0-0.998-0.873-0.998-1.947c0-1.074,0.446-1.944,0.998-1.944h13.992
					c0.553,0,1,0.87,1,1.944C51.994,37.954,51.547,38.827,50.994,38.827L50.994,38.827z M50.994,46.607H37.002
					c-0.552,0-0.998-0.87-0.998-1.944c0-1.074,0.446-1.944,0.998-1.944h13.992c0.553,0,1,0.87,1,1.944
					C51.994,45.737,51.547,46.607,50.994,46.607L50.994,46.607z M50.994,54.389H37.002c-0.552,0-0.998-0.87-0.998-1.947
					c0-1.072,0.446-1.944,0.998-1.944h13.992c0.553,0,1,0.872,1,1.944C51.995,53.519,51.547,54.389,50.994,54.389L50.994,54.389z"/>
			</defs>
			<clipPath id="SVGID_33_">
				<use xlink:href="#SVGID_32_"  overflow="visible"/>
			</clipPath>
			<g clip-path="url(#SVGID_33_)">
				
					<image overflow="visible" enable-background="new    " width="562" height="872" xlink:href="946D486726C23A9.jpeg"  transform="matrix(0.9982 0 0 0.9989 -163.999 -31.0596)">
				</image>
			</g>
		</g>
	</g>
	<g display="inline">
		<g>
			<defs>
				<path id="SVGID_34_" d="M50.994,61.826H37.002c-0.552,0-0.998-0.87-0.998-1.945c0-1.074,0.446-1.943,0.998-1.943h13.992
					c0.553,0,1,0.869,1,1.943C51.995,60.956,51.547,61.826,50.994,61.826L50.994,61.826z M44.996,69.607h-7.993
					c-0.552,0-0.998-0.869-0.998-1.946c0-1.072,0.446-1.945,0.998-1.945h7.993c0.55,0,0.999,0.873,0.999,1.945
					C45.994,68.738,45.546,69.607,44.996,69.607L44.996,69.607z"/>
			</defs>
			<clipPath id="SVGID_35_">
				<use xlink:href="#SVGID_34_"  overflow="visible"/>
			</clipPath>
			<g clip-path="url(#SVGID_35_)">
				
					<image overflow="visible" enable-background="new    " width="562" height="872" xlink:href="946D486726C23AB.jpeg"  transform="matrix(0.9982 0 0 0.9989 -163.999 -31.0596)">
				</image>
			</g>
		</g>
	</g>
	<g display="inline">
		<g>
			<defs>
				<path id="SVGID_36_" d="M63.492,53.941c4.141,0,7.5,3.358,7.5,7.5c0,4.142-3.358,7.5-7.5,7.5c-4.143,0-7.501-3.358-7.501-7.5
					C55.991,57.299,59.35,53.941,63.492,53.941L63.492,53.941z"/>
			</defs>
			<clipPath id="SVGID_37_">
				<use xlink:href="#SVGID_36_"  overflow="visible"/>
			</clipPath>
			<g clip-path="url(#SVGID_37_)">
				
					<image overflow="visible" enable-background="new    " width="562" height="872" xlink:href="573CB76E89A12578.jpeg"  transform="matrix(0.9982 0 0 0.9989 -163.999 -31.0596)">
				</image>
			</g>
		</g>
	</g>
	<g display="inline">
		<g>
			<defs>
				<polygon id="SVGID_38_" points="69.475,52.086 64.001,61.941 55,61.941 55,52.19 				"/>
			</defs>
			<clipPath id="SVGID_39_">
				<use xlink:href="#SVGID_38_"  overflow="visible"/>
			</clipPath>
		</g>
		<g>
			<defs>
				<polygon id="SVGID_40_" points="69.475,52.086 64.001,61.941 55,61.941 55,52.19 				"/>
			</defs>
			<defs>
				<path id="SVGID_41_" d="M63.492,53.941c4.141,0,7.5,3.358,7.5,7.5c0,4.142-3.358,7.5-7.5,7.5c-4.143,0-7.501-3.358-7.501-7.5
					C55.991,57.299,59.35,53.941,63.492,53.941L63.492,53.941z"/>
			</defs>
			<clipPath id="SVGID_42_">
				<use xlink:href="#SVGID_40_"  overflow="visible"/>
			</clipPath>
			<clipPath id="SVGID_43_" clip-path="url(#SVGID_42_)">
				<use xlink:href="#SVGID_41_"  overflow="visible"/>
			</clipPath>
			<g clip-path="url(#SVGID_43_)">
				
					<image overflow="visible" enable-background="new    " width="562" height="872" xlink:href="573CB76E89A12578.jpeg"  transform="matrix(0.9982 0 0 0.9989 -163.999 -31.0596)">
				</image>
			</g>
		</g>
	</g>
	<g display="inline">
		<g>
			<defs>
				<path id="SVGID_44_" d="M63.49,57.928c1.934,0,3.501,1.568,3.501,3.499c0,1.935-1.568,3.503-3.501,3.503
					c-1.932,0-3.5-1.568-3.5-3.503C59.99,59.496,61.559,57.928,63.49,57.928L63.49,57.928z"/>
			</defs>
			<clipPath id="SVGID_45_">
				<use xlink:href="#SVGID_44_"  overflow="visible"/>
			</clipPath>
			<g clip-path="url(#SVGID_45_)">
				
					<image overflow="visible" enable-background="new    " width="562" height="872" xlink:href="573CB76E89A12578.jpeg"  transform="matrix(0.9982 0 0 0.9989 -163.999 -31.0596)">
				</image>
			</g>
		</g>
	</g>
	<g display="inline">
		<g>
			<defs>
				<path id="SVGID_46_" d="M59.014,46.189V35.695c0-0.413-0.9-0.75-2.01-0.75s-2.008,0.337-2.008,0.75V46.19
					c0,0.413,0.898,0.75,2.008,0.75S59.014,46.603,59.014,46.189L59.014,46.189z"/>
			</defs>
			<clipPath id="SVGID_47_">
				<use xlink:href="#SVGID_46_"  overflow="visible"/>
			</clipPath>
			<g clip-path="url(#SVGID_47_)">
				
					<image overflow="visible" enable-background="new    " width="562" height="872" xlink:href="573CB76E89A12578.jpeg"  transform="matrix(0.9982 0 0 0.9989 -163.999 -31.0596)">
				</image>
			</g>
		</g>
	</g>
	<g display="inline">
		<g>
			<defs>
				<path id="SVGID_48_" d="M65.012,46.189v-7.295c0-0.414-0.898-0.749-2.007-0.749s-2.008,0.335-2.008,0.749v7.295
					c0,0.413,0.897,0.75,2.008,0.75C64.113,46.94,65.012,46.603,65.012,46.189L65.012,46.189z"/>
			</defs>
			<clipPath id="SVGID_50_">
				<use xlink:href="#SVGID_48_"  overflow="visible"/>
			</clipPath>
			<g clip-path="url(#SVGID_50_)">
				
					<image overflow="visible" enable-background="new    " width="562" height="872" xlink:href="573CB76E89A12578.jpeg"  transform="matrix(0.9982 0 0 0.9989 -163.999 -31.0596)">
				</image>
			</g>
		</g>
	</g>
	<g display="inline">
		<g>
			<defs>
				<path id="SVGID_51_" d="M71.014,46.189v-2.495c0-0.414-0.9-0.749-2.009-0.749s-2.01,0.335-2.01,0.749v2.495
					c0,0.413,0.901,0.75,2.01,0.75C70.113,46.94,71.014,46.603,71.014,46.189L71.014,46.189z"/>
			</defs>
			<clipPath id="SVGID_52_">
				<use xlink:href="#SVGID_51_"  overflow="visible"/>
			</clipPath>
			<g clip-path="url(#SVGID_52_)">
				
					<image overflow="visible" enable-background="new    " width="562" height="872" xlink:href="573CB76E89A12578.jpeg"  transform="matrix(0.9982 0 0 0.9989 -163.999 -31.0596)">
				</image>
			</g>
		</g>
	</g>
	<g display="inline">
		<g>
			<defs>
				<path id="SVGID_53_" d="M78.43,71.605l-12.857,12.81h-1.287V78.01c0-4.244,3.453-7.682,7.715-7.682h6.43V71.605L78.43,71.605z"
					/>
			</defs>
			<clipPath id="SVGID_54_">
				<use xlink:href="#SVGID_53_"  overflow="visible"/>
			</clipPath>
			<g clip-path="url(#SVGID_54_)">
				
					<image overflow="visible" enable-background="new    " width="562" height="872" xlink:href="573CB76E89A12568.jpeg"  transform="matrix(0.9982 0 0 0.9989 -163.999 -31.0596)">
				</image>
			</g>
		</g>
	</g>
</g>
<g id="Capa_4" display="none">
	<g display="inline">
		<g>
			<g>
				<path id="SVGID_49_" fill="#3F566F" d="M33.064,102.312c-6.253-2.645-11.866-6.43-16.688-11.248
					c-4.819-4.821-8.604-10.436-11.249-16.688C2.389,67.902,1.001,61.025,1.001,53.94c0-7.086,1.388-13.963,4.126-20.436
					c2.645-6.252,6.43-11.866,11.249-16.688c4.821-4.819,10.435-8.604,16.688-11.249c6.473-2.738,13.35-4.126,20.436-4.126
					s13.963,1.388,20.436,4.126c6.252,2.645,11.867,6.43,16.688,11.249c4.817,4.821,8.604,10.435,11.248,16.688
					c2.737,6.473,4.127,13.35,4.127,20.436c0,7.085-1.39,13.962-4.127,20.436c-2.646,6.253-6.431,11.866-11.248,16.688
					c-4.819,4.818-10.437,8.604-16.688,11.248c-6.473,2.738-13.35,4.127-20.436,4.127S39.538,105.051,33.064,102.312"/>
			</g>
		</g>
		<path fill="none" d="M53.5,4.441c27.338,0,49.498,22.161,49.498,49.5c0,27.339-22.16,49.499-49.498,49.499
			c-27.339,0-49.5-22.16-49.5-49.499C4,26.603,26.162,4.441,53.5,4.441L53.5,4.441z"/>
		<path fill="#47627E" d="M53.5,4.441c27.338,0,49.498,22.161,49.498,49.5c0,27.339-22.16,49.499-49.498,49.499
			c-27.339,0-49.5-22.16-49.5-49.499C4,26.603,26.162,4.441,53.5,4.441L53.5,4.441z"/>
		<path fill="none" d="M53.5,3.94c27.34,0,49.5,22.164,49.5,49.501c0,27.336-22.161,49.5-49.5,49.5
			c-27.337,0-49.499-22.164-49.499-49.5C4.001,26.104,26.163,3.94,53.5,3.94L53.5,3.94z"/>
		<g>
			<g>
				<defs>
					<path id="SVGID_55_" d="M53.5,4.44c27.34,0,49.5,22.164,49.5,49.501c0,27.336-22.161,49.5-49.5,49.5
						c-27.337,0-49.499-22.164-49.499-49.5C4.001,26.604,26.163,4.44,53.5,4.44L53.5,4.44z"/>
				</defs>
				<clipPath id="SVGID_56_">
					<use xlink:href="#SVGID_55_"  overflow="visible"/>
				</clipPath>
				<polygon clip-path="url(#SVGID_56_)" fill="#283E58" points="139.38,105.941 16.373,104.051 79.539,-2.1 				"/>
			</g>
			<g>
				<defs>
					<path id="SVGID_57_" d="M53.5,4.44c27.34,0,49.5,22.164,49.5,49.501c0,27.336-22.161,49.5-49.5,49.5
						c-27.337,0-49.499-22.164-49.499-49.5C4.001,26.604,26.163,4.44,53.5,4.44L53.5,4.44z"/>
				</defs>
				<clipPath id="SVGID_58_">
					<use xlink:href="#SVGID_57_"  overflow="visible"/>
				</clipPath>
				<path opacity="0.6" clip-path="url(#SVGID_58_)" enable-background="new    " d="M95.744,45.167
					c-0.301-4.333,9.072-5.837,8.727-7.315c-0.5-2.144-2.666-4.642-4.746-5.534c-6.006-2.577-9.439-1.475-13.773,3.429
					c-4.491,5.08-7.025,10.885-4.166,17.509c4.588,10.633,12.059,12.905,24.138,11.369c17.261-2.193,27.759-13.725,32.767-29.529
					c2.5-7.899,2.063-16.737,2.861-25.158c0.062-0.651-0.605-1.37-0.969-2.127c-10.163,8.099-12.091,8.611-16.915,3.831
					c5.776-1.346,9.532-4.7,9.851-10.45c0.282-5.114,0.221-10.302-0.332-15.386c-0.478-4.395-1.861-8.69-2.744-12.588
					c15.404,21.122,20.045,54.885,4.646,78.878c-9.471,14.759-23.58,22.194-40.668,24.802c-9.236,1.41-18.451,3.137-27.518,5.371
					c-3.409,0.84-6.586,3.242-9.43,5.489c-1.324,1.044-1.598,3.416-2.348,5.187c1.508,0.533,3.656-0.537,4.873,1.723
					c0.165,2.438-0.284,4.708-3.753,4.654c-3.292-0.049-5.044-2.063-4.759-5.182c0.46-5.031,2.16-10.527,6.551-13.457
					c1.814-1.211,3.537-1.961,5.355-3.166c1.99-1.32,4.281-2.672,6.569-2.947c3.966-0.479,8.045,0.086,12.042-0.235
					c2.223-0.179,5.939-0.858,6.245-2.028c0.724-2.761,0.729-5.81-2.532-8.324c-6.578-5.069-9.096-12.237-7.576-20.505
					c1.502-8.164,9.014-15.75,16.539-17.033c5.52-0.942,11.889,1.438,14.118,6.449c1.072,2.412,0.741,6.394-0.628,8.648
					C107.062,43.363,101.16,53.417,95.744,45.167z"/>
			</g>
		</g>
	</g>
	<g display="inline">
		<g>
			<defs>
				<path id="SVGID_59_" d="M58.63,75.677H18.943c-1.625,0-2.941-1.329-2.941-2.971v-27.49c0-1.641,1.316-2.971,2.941-2.971H58.63
					c1.623,0,2.94,1.33,2.94,2.971v27.49C61.572,74.348,60.253,75.677,58.63,75.677L58.63,75.677z M28.128,89.05l-5.145-14.858
					H39.89L28.128,89.05L28.128,89.05z"/>
			</defs>
			<clipPath id="SVGID_60_">
				<use xlink:href="#SVGID_59_"  overflow="visible"/>
			</clipPath>
			<g clip-path="url(#SVGID_60_)">
				
					<image overflow="visible" enable-background="new    " width="562" height="851" xlink:href="573CB76E89A12568.jpeg"  transform="matrix(0.9982 0 0 0.9988 -267.998 -100.9502)">
				</image>
			</g>
		</g>
	</g>
	<g display="inline">
		<g>
			<defs>
				<path id="SVGID_61_" d="M24.087,51.16h30.136c0.811,0,1.469,0.665,1.469,1.486c0,0.82-0.658,1.485-1.469,1.485H24.087
					c-0.813,0-1.471-0.665-1.471-1.485C22.617,51.825,23.275,51.16,24.087,51.16L24.087,51.16z"/>
			</defs>
			<clipPath id="SVGID_62_">
				<use xlink:href="#SVGID_61_"  overflow="visible"/>
			</clipPath>
			<g clip-path="url(#SVGID_62_)">
				
					<image overflow="visible" enable-background="new    " width="562" height="851" xlink:href="573CB76E89A12568.jpeg"  transform="matrix(0.9982 0 0 0.9988 -267.998 -100.9502)">
				</image>
			</g>
		</g>
	</g>
	<g display="inline">
		<g>
			<defs>
				<path id="SVGID_64_" d="M24.087,57.848h30.136c0.811,0,1.469,0.664,1.469,1.484s-0.658,1.484-1.469,1.484H24.087
					c-0.813,0-1.471-0.664-1.471-1.484S23.275,57.848,24.087,57.848L24.087,57.848z"/>
			</defs>
			<clipPath id="SVGID_65_">
				<use xlink:href="#SVGID_64_"  overflow="visible"/>
			</clipPath>
			<g clip-path="url(#SVGID_65_)">
				
					<image overflow="visible" enable-background="new    " width="562" height="851" xlink:href="573CB76E89A12568.jpeg"  transform="matrix(0.9982 0 0 0.9988 -267.998 -100.9502)">
				</image>
			</g>
		</g>
	</g>
	<g display="inline">
		<g>
			<defs>
				<path id="SVGID_66_" d="M24.087,64.534h30.136c0.811,0,1.469,0.665,1.469,1.485s-0.658,1.485-1.469,1.485H24.087
					c-0.813,0-1.471-0.665-1.471-1.485C22.617,65.199,23.275,64.534,24.087,64.534L24.087,64.534z"/>
			</defs>
			<clipPath id="SVGID_67_">
				<use xlink:href="#SVGID_66_"  overflow="visible"/>
			</clipPath>
			<g clip-path="url(#SVGID_67_)">
				
					<image overflow="visible" enable-background="new    " width="562" height="851" xlink:href="573CB76E89A12583.jpeg"  transform="matrix(0.9982 0 0 0.9988 -267.998 -100.9502)">
				</image>
			</g>
		</g>
	</g>
	<path display="inline" fill="#FCAB0F" d="M88.061,59.484H48.373c-1.623,0-2.941-1.332-2.941-2.974v-27.49
		c0-1.641,1.318-2.971,2.941-2.971h39.688c1.625,0,2.94,1.33,2.94,2.971V56.51C91.001,58.152,89.686,59.484,88.061,59.484
		L88.061,59.484z M79.824,72.855l-11.76-14.859h16.903L79.824,72.855L79.824,72.855z"/>
	<path display="inline" fill="#FFFFFF" d="M65.134,52.285c0.864,0.559,1.864,0.937,3.082,0.908c1.218,0.029,2.218-0.349,3.082-0.908
		v-2.266h-6.163L65.134,52.285L65.134,52.285z M71.168,48.705c0-4.771,5.07-6.295,4.689-11.046c-0.238-2.998-2.27-6.362-7.643-6.362
		s-7.402,3.364-7.643,6.362c-0.381,4.751,4.689,6.276,4.689,11.046H71.168z"/>
</g>
<g id="Capa_5" display="none">
	<g display="inline">
		<g>
			<path id="SVGID_63_" fill="#3F566F" d="M33.064,101.873c-6.253-2.645-11.866-6.43-16.688-11.249
				c-4.819-4.821-8.604-10.435-11.249-16.688C2.39,67.463,1.001,60.586,1.001,53.5s1.388-13.963,4.126-20.436
				c2.645-6.252,6.43-11.866,11.249-16.688c4.821-4.819,10.435-8.604,16.688-11.249C39.537,2.39,46.414,1.002,53.5,1.002
				S67.463,2.39,73.936,5.128c6.252,2.645,11.867,6.43,16.688,11.249c4.817,4.821,8.604,10.435,11.248,16.688
				c2.737,6.473,4.127,13.35,4.127,20.436s-1.39,13.963-4.127,20.437c-2.646,6.252-6.431,11.865-11.248,16.688
				c-4.819,4.818-10.437,8.604-16.688,11.249C67.463,104.611,60.586,106,53.5,106S39.537,104.609,33.064,101.873"/>
		</g>
	</g>
	<path display="inline" fill="none" d="M53.5,4.001c27.338,0,49.498,22.161,49.498,49.5S80.838,103,53.5,103
		C26.161,103,4,80.839,4,53.5S26.161,4.001,53.5,4.001L53.5,4.001z"/>
	<path display="inline" fill="#47627E" d="M53.5,4.001c27.338,0,49.498,22.161,49.498,49.5S80.838,103,53.5,103
		C26.161,103,4,80.839,4,53.5S26.161,4.001,53.5,4.001L53.5,4.001z"/>
	<g display="inline">
		<g>
			<defs>
				<path id="SVGID_68_" d="M53.5,4.001c27.338,0,49.498,22.161,49.498,49.5S80.838,103,53.5,103C26.161,103,4,80.839,4,53.5
					S26.161,4.001,53.5,4.001L53.5,4.001z"/>
			</defs>
			<clipPath id="SVGID_69_">
				<use xlink:href="#SVGID_68_"  overflow="visible"/>
			</clipPath>
			<polygon clip-path="url(#SVGID_69_)" fill="#283E58" points="85.197,103.984 -49.133,107 25.356,-4.057 			"/>
		</g>
		<g>
			<defs>
				<path id="SVGID_70_" d="M53.5,4.001c27.338,0,49.498,22.161,49.498,49.5S80.838,103,53.5,103C26.161,103,4,80.839,4,53.5
					S26.161,4.001,53.5,4.001L53.5,4.001z"/>
			</defs>
			<clipPath id="SVGID_71_">
				<use xlink:href="#SVGID_70_"  overflow="visible"/>
			</clipPath>
			<g opacity="0.6" clip-path="url(#SVGID_71_)">
				<path d="M99.762,20.617c-3.51-3.088-12.227-5.299-16.047-7.934c-15.012-10.35-21.98-8.682-42.151-5.469
					c-2.563,0.408-4.674,2.288-7.063,3.314c-5.041,2.171-8.026,5.334-9.578,11.17c-1.603,6.029-5.736,11.392-8.804,17.023
					c-0.643,1.181-1.46,2.268-1.97,4.03c8.748-6.451,17.657-11.021,29.465-4.426C26.385,36.459,15.956,44.77,8.611,57.568
					c-5.159,8.99-9.341,18.567-8.208,29.847c3.873-1.494,7.981-1.634,7.981-7.403c0-1.943,2.966-3.891,4.624-5.892
					c4.383,4.542,4.233,7.344-0.326,11.978c6.243,7.62,1.394,14.69-2.186,22.715c3.508-1.701,6.066-2.942,8.568-4.154
					c-2.068,3.051-4.122,6.081-6.175,9.107c-5.931,0-11.861,0-17.793,0c-0.777-29.88,2.811-58.998,15.921-86.701
					c-5.216-0.618-9.85-0.575-11.801-6.056C-3.36,13.78-1.502,7.288,4.617,3.858c6.601-3.702,15.591-2.021,19.524,4.067
					c1.791,2.774,3.274,3.027,5.823,1.301c1.56-1.058,3.346-1.887,5.143-2.467c7.573-2.43,17.98-4.729,25.581-7.075
					c2.791,0,2.791,0,5.582,0c2.846,0.625,5.805,0.938,8.518,1.931c8.376,3.052,16.656,6.368,24.975,9.581
					C99.762,14.336,99.762,17.476,99.762,20.617z M6.033,47.808c10.231-9.807,16.222-21,14.458-26.57
					C13.555,28.637,9.285,37.24,6.033,47.808z"/>
			</g>
		</g>
	</g>
	<g display="inline">
		<g>
			<g>
				<defs>
					
						<rect id="SVGID_72_" x="35.16" y="17.893" transform="matrix(0.8644 -0.5027 0.5027 0.8644 -15.9909 32.2217)" width="33.186" height="55.739"/>
				</defs>
				<clipPath id="SVGID_73_">
					<use xlink:href="#SVGID_72_"  overflow="visible"/>
				</clipPath>
				<g clip-path="url(#SVGID_73_)">
					
						<image overflow="visible" enable-background="new    " width="39" height="89" xlink:href="573CB76E89A1258D.jpeg"  transform="matrix(0.7362 -0.4282 0.4282 0.7362 23.2339 29.7388)">
					</image>
				</g>
			</g>
		</g>
		<g>
			<g>
				<defs>
					
						<rect id="SVGID_74_" x="22.353" y="42.911" transform="matrix(-0.5028 -0.8644 0.8644 -0.5028 38.7213 119.6622)" width="62.848" height="11.567"/>
				</defs>
				<clipPath id="SVGID_75_">
					<use xlink:href="#SVGID_74_"  overflow="visible"/>
				</clipPath>
				<g clip-path="url(#SVGID_75_)">
					
						<image overflow="visible" enable-background="new    " width="39" height="89" xlink:href="573CB76E89A1258F.jpeg"  transform="matrix(0.7362 -0.4282 0.4282 0.7362 23.2339 29.7388)">
					</image>
				</g>
			</g>
		</g>
		<g>
			<g>
				<defs>
					
						<rect id="SVGID_76_" x="33.411" y="34.699" transform="matrix(-0.5027 -0.8644 0.8644 -0.5027 57.3619 113.4819)" width="55.821" height="11.087"/>
				</defs>
				<clipPath id="SVGID_77_">
					<use xlink:href="#SVGID_76_"  overflow="visible"/>
				</clipPath>
				<g clip-path="url(#SVGID_77_)">
					
						<image overflow="visible" enable-background="new    " width="39" height="89" xlink:href="573CB76E89A1258D.jpeg"  transform="matrix(0.7362 -0.4282 0.4282 0.7362 23.2339 29.7388)">
					</image>
				</g>
			</g>
		</g>
		<g>
			<g>
				<defs>
					<path id="SVGID_78_" d="M77.798,74.816c-1.071,6.146-5.368,6.507-5.368,6.507s-2.354,3.571-8.176,1.472
						c-6.275-2.265-12.799-4.618-12.799-4.618l28.668-16.673C80.124,61.504,78.939,68.268,77.798,74.816L77.798,74.816z
						 M68.54,74.633c-2.642,1.536-6.007,0.674-7.521-1.929c-1.514-2.601-0.6-5.954,2.041-7.49c2.641-1.534,6.01-0.672,7.521,1.929
						C72.096,69.744,71.18,73.098,68.54,74.633L68.54,74.633z M65.584,76.535c-2.139,1.244-3.525-1.38-6.895-2.02
						c-0.791-0.148-6.945,4.246-7.233,3.752c-1.512-2.601-0.599-5.955,2.042-7.492c2.641-1.535,6.008-0.67,7.521,1.929
						C62.533,75.307,68.227,74.999,65.584,76.535L65.584,76.535z M75.538,65.083c0.601,2.315,0.948,2.918-1.251,4.198
						c-2.641,1.535-2.189,0.463-3.703-2.139c-1.512-2.601-0.6-5.955,2.042-7.492c2.64-1.534,6.008-0.67,7.521,1.931
						C80.398,62.016,75.417,64.619,75.538,65.083L75.538,65.083z"/>
				</defs>
				<clipPath id="SVGID_79_">
					<use xlink:href="#SVGID_78_"  overflow="visible"/>
				</clipPath>
				<g clip-path="url(#SVGID_79_)">
					
						<image overflow="visible" enable-background="new    " width="39" height="89" xlink:href="573CB76E89A12583.jpeg"  transform="matrix(0.7362 -0.4282 0.4282 0.7362 23.2339 29.7388)">
					</image>
				</g>
			</g>
		</g>
		<g>
			<g>
				<defs>
					<polygon id="SVGID_80_" points="77.812,74.721 75.686,86.918 64.055,82.723 					"/>
				</defs>
				<clipPath id="SVGID_81_">
					<use xlink:href="#SVGID_80_"  overflow="visible"/>
				</clipPath>
				<g clip-path="url(#SVGID_81_)">
					
						<image overflow="visible" enable-background="new    " width="39" height="89" xlink:href="573CB76E89A12585.jpeg"  transform="matrix(0.7362 -0.4282 0.4282 0.7362 23.2339 29.7388)">
					</image>
				</g>
			</g>
		</g>
	</g>
</g>
</svg>
