<?xml version="1.0" encoding="utf-8"?>
<!-- Generator: Adobe Illustrator 16.0.0, SVG Export Plug-In . SVG Version: 6.00 Build 0)  -->
<!DOCTYPE svg PUBLIC "-//W3C//DTD SVG 1.1//EN" "http://www.w3.org/Graphics/SVG/1.1/DTD/svg11.dtd">
<svg version="1.1" id="Capa_1" xmlns="http://www.w3.org/2000/svg" xmlns:xlink="http://www.w3.org/1999/xlink" x="0px" y="0px"
	 width="15px" height="15px" viewBox="0 0 15 15" enable-background="new 0 0 15 15" xml:space="preserve">
<g id="Capa_1_1_" display="none">
	<g display="inline">
		<path fill="#47627E" d="M11.745,11.368c-1.968-0.718-2.597-1.321-2.597-2.616c0-0.777,0.602-0.523,0.865-1.946
			c0.108-0.591,0.639-0.01,0.74-1.357c0-0.538-0.29-0.671-0.29-0.671s0.147-0.795,0.205-1.407c0.072-0.762-0.438-2.731-3.17-2.731
			c-2.73,0-3.242,1.969-3.17,2.731c0.058,0.612,0.205,1.407,0.205,1.407s-0.29,0.133-0.29,0.671
			c0.101,1.348,0.631,0.767,0.741,1.357C5.25,8.229,5.85,7.975,5.85,8.752c0,1.295-0.628,1.898-2.595,2.616
			C1.282,12.087,0,12.82,0,13.32S0,15,0,15h7.5H15c0,0,0-1.18,0-1.68S13.718,12.087,11.745,11.368z"/>
	</g>
</g>
<g id="Capa_2">
	<path fill="#47627E" d="M13.281,0.016H1.72C0.77,0.016,0,0.786,0,1.735v8.219c0,0.948,0.77,1.719,1.72,1.719h2.966v2.622
		c0,0.278,0.167,0.529,0.424,0.637c0.086,0.034,0.175,0.053,0.264,0.053c0.179,0,0.354-0.07,0.486-0.202l3.107-3.108h4.314
		c0.949,0,1.719-0.77,1.719-1.719v-8.22C15,0.786,14.23,0.016,13.281,0.016z"/>
</g>
<g id="Capa_3" display="none">
	<g display="inline">
		<g>
			<g>
				<path fill="#47627E" d="M14.963,4H0.058l7.452,6.445L14.963,4z M10.021,8.889L15,14.994V4.551L10.021,8.889z M7.508,11.077
					L5.326,9.234L0.576,15h13.867l-4.75-5.822L7.508,11.077z M0,4.551v10.443l4.979-6.105L0,4.551z"/>
			</g>
		</g>
	</g>
</g>
</svg>
