<?xml version="1.0" encoding="utf-8"?>
<!-- Generator: Adobe Illustrator 16.0.0, SVG Export Plug-In . SVG Version: 6.00 Build 0)  -->
<!DOCTYPE svg PUBLIC "-//W3C//DTD SVG 1.1//EN" "http://www.w3.org/Graphics/SVG/1.1/DTD/svg11.dtd">
<svg version="1.1" xmlns="http://www.w3.org/2000/svg" xmlns:xlink="http://www.w3.org/1999/xlink" x="0px" y="0px" width="30px"
	 height="30px" viewBox="0 0 30 30" enable-background="new 0 0 30 30" xml:space="preserve">
<g id="Ellipse_4_copy_1_" enable-background="new    ">
</g>
<g id="twitter_xA0_Imagen_1_">
	<g>
		<g id="Ellipse_4_copy">
			<g>
				<circle fill="#81CFE7" cx="15" cy="15" r="15"/>
			</g>
		</g>
		<path fill="#FFFFFF" d="M23,10.349c-0.553,0.244-1.146,0.409-1.767,0.485c0.634-0.382,1.123-0.984,1.352-1.704
			c-0.594,0.354-1.253,0.61-1.954,0.748c-0.561-0.599-1.361-0.973-2.245-0.973c-1.7,0-3.078,1.378-3.078,3.078
			c0,0.241,0.027,0.476,0.079,0.7c-2.558-0.127-4.825-1.354-6.343-3.215c-0.265,0.455-0.417,0.983-0.417,1.547
			c0,1.067,0.543,2.01,1.369,2.562c-0.503-0.016-0.979-0.153-1.395-0.385c0,0.013,0,0.026,0,0.039c0,1.491,1.062,2.734,2.47,3.018
			c-0.259,0.07-0.53,0.108-0.812,0.108c-0.197,0-0.39-0.02-0.578-0.057c0.391,1.224,1.527,2.113,2.875,2.138
			c-1.054,0.826-2.381,1.317-3.823,1.317c-0.248,0-0.493-0.014-0.733-0.043c1.361,0.874,2.979,1.384,4.718,1.384
			c5.66,0,8.756-4.69,8.756-8.758c0-0.132-0.003-0.265-0.009-0.397C22.065,11.509,22.588,10.966,23,10.349z"/>
	</g>
</g>
</svg>
