<?xml version="1.0" encoding="utf-8"?>
<!-- Generator: Adobe Illustrator 16.0.0, SVG Export Plug-In . SVG Version: 6.00 Build 0)  -->
<!DOCTYPE svg PUBLIC "-//W3C//DTD SVG 1.1//EN" "http://www.w3.org/Graphics/SVG/1.1/DTD/svg11.dtd">
<svg version="1.1" xmlns="http://www.w3.org/2000/svg" xmlns:xlink="http://www.w3.org/1999/xlink" x="0px" y="0px"
	 width="472.928px" height="206.85px" viewBox="0 0 472.928 206.85" enable-background="new 0 0 472.928 206.85"
	 xml:space="preserve">
<g id="Layer_1" display="none">
	<g display="inline">
		<rect x="1.484" y="134.85" fill="#56C4C4" width="471.443" height="1.816"/>
		<g>
			<path fill="#2A403C" d="M407.043,87.833c2.577,0.158,4.653,1.812,2.586,2.929c-1.281,0.691-11.008-1.732-12.298,7.142
				C397.324,92.157,400.759,87.445,407.043,87.833"/>
			<path fill="#2A403C" d="M418.718,90.891c3.4-6.236-11.192-6.402-11.751-5.792c8.869-0.66,12.314-1.011,18.377,10.242
				c5.54,10.03,12.377,10.925,11.641,10.244c-5.228-3.92-7.473-9.954-8.164-12.267c2.249,3.498,7.506,15.488,22.859,19.784
				c15.311,4.276,27.059-9.368,18.187-19.473c-3.36-3.825-10.696-3.569-13.439,1.438c-1.764,3.227,1.13,7.693,4.845,6.898
				c-0.71-2.501,5.264-2.8,5.632,2.703c0.467,6.916-13.143,7.771-20.411,0.088c-5.216-5.523-8.561-12.168-14.958-16.446
				c-6.662-4.455-15.158-7.273-23.218-6.138c-10.126,1.43-21.025,11.453-16.318,22.455c4.507,10.533,17.489,11.756,22.379,1.761
				c5.436-11.106-15.046-15.937-12.714-4.924c0.6-0.399,1.185-0.353,1.755,0.144c0.985,3.459-8.393,0.971-7.017-5.793
				c1.246-6.112,5.414-9.216,11.354-9.505C416.146,85.901,416.927,92.502,418.718,90.891"/>
		</g>
		<path fill="#56C4C4" d="M253.939,193.371c1.927,0,3.479,1.551,3.479,3.479c0,1.927-1.553,3.478-3.479,3.478
			c-1.928,0-3.479-1.551-3.479-3.478C250.461,194.922,252.012,193.371,253.939,193.371"/>
		<g>
			<path fill="#56C4C4" d="M1.672,152.977h3.102l5.954,13.77h0.051l6.004-13.77h3.026v17.565h-2.084v-14.737h-0.05l-6.302,14.737
				h-1.265l-6.303-14.737H3.757v14.737H1.672V152.977z"/>
			<path fill="#56C4C4" d="M27.453,152.977h2.084v17.565h-2.084V152.977z"/>
			<path fill="#56C4C4" d="M37.18,152.977h11.04v1.935h-8.956v5.508h8.361v1.936h-8.361v6.253h9.403v1.935H37.18V152.977z"/>
			<path fill="#56C4C4" d="M72.09,170.542h-2.084v-14.887h-0.05l-3.15,2.655l-1.24-1.514l4.713-3.82h1.812V170.542z"/>
			<path fill="#56C4C4" d="M88.963,163.223l-0.05-0.049c-0.645,0.371-1.637,0.521-2.357,0.521c-3.051,0-5.309-2.233-5.309-5.509
				c0-3.424,2.555-5.508,5.88-5.508s5.88,2.084,5.88,5.508c0,2.035-0.719,3.425-1.662,4.938l-4.664,7.419h-2.432L88.963,163.223z
				 M90.923,158.186c0-2.281-1.688-3.721-3.796-3.721s-3.796,1.439-3.796,3.721c0,2.283,1.688,3.723,3.796,3.723
				S90.923,160.469,90.923,158.186z"/>
			<path fill="#56C4C4" d="M115.364,152.977h1.96l7.468,17.565h-2.432l-1.786-4.317h-8.783l-1.812,4.317h-2.356L115.364,152.977z
				 M116.307,155.655h-0.05l-3.646,8.634h7.17L116.307,155.655z"/>
			<path fill="#56C4C4" d="M148.911,156.077c-0.695-1.116-1.936-1.612-3.201-1.612c-1.836,0-3.746,0.868-3.746,2.952
				c0,1.612,0.893,2.333,3.697,3.226c2.729,0.868,5.26,1.762,5.26,5.21c0,3.499-3.002,5.136-6.178,5.136
				c-2.035,0-4.219-0.67-5.409-2.432l1.786-1.463c0.744,1.289,2.233,1.959,3.746,1.959c1.787,0,3.821-1.041,3.821-3.051
				c0-2.158-1.464-2.531-4.59-3.573c-2.481-0.818-4.366-1.91-4.366-4.838c0-3.374,2.902-5.062,5.979-5.062
				c1.961,0,3.623,0.546,4.913,2.06L148.911,156.077z"/>
			<path fill="#56C4C4" d="M163.353,152.977h1.96l7.468,17.565h-2.432l-1.786-4.317h-8.783l-1.812,4.317h-2.356L163.353,152.977z
				 M164.295,155.655h-0.05l-3.646,8.634h7.17L164.295,155.655z"/>
			<path fill="#56C4C4" d="M178.39,152.977h5.359c2.902,0,5.83,1.091,5.83,4.316c0,2.035-1.191,3.398-3.076,3.97v0.05
				c2.258,0.198,3.969,2.01,3.969,4.316c0,3.871-3.598,4.913-6.848,4.913h-5.234V152.977z M180.474,160.419h2.878
				c1.96,0,3.995-0.421,3.995-2.853c0-2.159-1.887-2.655-3.771-2.655h-3.102V160.419z M180.474,168.607h3.523
				c2.034,0,4.242-0.819,4.242-3.053c0-2.456-2.084-3.2-4.193-3.2h-3.572V168.607z"/>
			<path fill="#56C4C4" d="M206.527,168.16l6.624-6.451c1.662-1.612,2.481-2.555,2.481-4.268c0-1.836-1.438-2.977-3.2-2.977
				s-3.002,1.116-3.325,2.803l-2.258-0.197c0.472-2.879,2.68-4.393,5.509-4.393c2.902,0,5.358,1.639,5.358,4.764
				c0,2.805-1.662,4.367-3.424,6.029l-5.409,5.086v0.051h8.957v1.935h-11.313V168.16z"/>
			<path fill="#56C4C4" d="M223.599,168.16l6.625-6.451c1.662-1.612,2.48-2.555,2.48-4.268c0-1.836-1.439-2.977-3.201-2.977
				s-3.002,1.116-3.324,2.803l-2.258-0.197c0.472-2.879,2.68-4.393,5.508-4.393c2.903,0,5.359,1.639,5.359,4.764
				c0,2.805-1.662,4.367-3.424,6.029l-5.408,5.086v0.051h8.956v1.935h-11.313V168.16z"/>
			<path fill="#56C4C4" d="M251.463,152.977h6.749c3.448,0,8.609,2.307,8.609,8.782s-5.161,8.783-8.609,8.783h-6.749V152.977z
				 M253.548,168.607h3.97c4.019,0,7.07-2.035,7.07-6.849s-3.052-6.848-7.07-6.848h-3.97V168.607z"/>
			<path fill="#56C4C4" d="M273.447,152.977h11.041v1.935h-8.957v5.508h8.361v1.936h-8.361v6.253h9.403v1.935h-11.487V152.977z"/>
			<path fill="#56C4C4" d="M301.61,152.977h2.63l10.172,14.588h0.05v-14.588h2.084v17.565h-2.63l-10.172-14.589h-0.05v14.589h-2.084
				V152.977z"/>
			<path fill="#56C4C4" d="M323.172,161.759c0-5.31,3.846-9.229,9.18-9.229c5.335,0,9.181,3.92,9.181,9.229
				s-3.846,9.229-9.181,9.229C327.018,170.988,323.172,167.068,323.172,161.759z M339.299,161.759c0-4.044-2.828-7.294-6.947-7.294
				c-4.118,0-6.946,3.25-6.946,7.294s2.828,7.294,6.946,7.294C336.471,169.053,339.299,165.803,339.299,161.759z"/>
			<path fill="#56C4C4" d="M345.752,152.977h2.357l5.408,14.439h0.05l5.583-14.439h2.208l-6.873,17.565h-2.01L345.752,152.977z"/>
			<path fill="#56C4C4" d="M366.595,152.977h2.084v17.565h-2.084V152.977z"/>
			<path fill="#56C4C4" d="M376.321,152.977h11.041v1.935h-8.957v5.508h8.361v1.936h-8.361v6.253h9.403v1.935h-11.487V152.977z"/>
			<path fill="#56C4C4" d="M394.311,152.977h3.102l5.954,13.77h0.05l6.004-13.77h3.027v17.565h-2.084v-14.737h-0.05l-6.302,14.737
				h-1.266l-6.302-14.737h-0.05v14.737h-2.084V152.977z"/>
			<path fill="#56C4C4" d="M420.092,152.977h5.359c2.902,0,5.83,1.091,5.83,4.316c0,2.035-1.191,3.398-3.076,3.97v0.05
				c2.258,0.198,3.97,2.01,3.97,4.316c0,3.871-3.598,4.913-6.849,4.913h-5.234V152.977z M422.176,160.419h2.878
				c1.96,0,3.994-0.421,3.994-2.853c0-2.159-1.885-2.655-3.771-2.655h-3.102V160.419z M422.176,168.607h3.523
				c2.034,0,4.242-0.819,4.242-3.053c0-2.456-2.084-3.2-4.193-3.2h-3.572V168.607z"/>
			<path fill="#56C4C4" d="M438.999,152.977h4.49c3.399,0,6.997,0.496,6.997,4.838c0,2.555-1.662,4.217-4.392,4.639l4.987,8.089
				h-2.556l-4.764-7.89h-2.68v7.89h-2.084V152.977z M441.083,160.717h1.86c2.308,0,5.31,0,5.31-2.902
				c0-2.531-2.208-2.903-4.242-2.903h-2.928V160.717z"/>
			<path fill="#56C4C4" d="M457.435,152.977h11.041v1.935h-8.957v5.508h8.361v1.936h-8.361v6.253h9.403v1.935h-11.487V152.977z"/>
		</g>
		<g>
			<path fill="#2A403C" d="M3.007,4.871h5.982V55.3H3.007V4.871z"/>
			<path fill="#2A403C" d="M20.527,29.872c0-3.063-0.285-5.698-0.285-7.906h5.271c0,1.78,0.143,3.632,0.143,5.484h0.143
				c1.496-3.276,5.627-6.339,11.111-6.339c8.762,0,12.68,5.556,12.68,13.604V55.3h-5.557V35.285c0-5.556-2.422-9.046-7.621-9.046
				c-7.194,0-10.328,5.2-10.328,12.821V55.3h-5.556V29.872z"/>
			<path fill="#2A403C" d="M78.362,26.667h-9.83v16.667c0,4.273,0.072,7.692,4.986,7.692c1.639,0,3.419-0.356,4.915-1.14
				l0.214,5.058c-1.924,0.854-4.416,1.211-6.482,1.211c-7.906,0-9.188-4.274-9.188-11.183V26.667h-7.266v-4.701h7.266v-9.474h5.555
				v9.474h9.83V26.667z"/>
			<path fill="#2A403C" d="M114.972,49.246c-3.918,5.057-8.619,6.909-14.815,6.909c-10.471,0-16.882-7.835-16.882-17.522
				c0-10.328,7.266-17.522,17.096-17.522c9.402,0,15.813,6.411,15.813,17.451v1.781H89.259c0.427,5.77,4.843,10.684,10.897,10.684
				c4.772,0,7.978-1.709,10.612-5.057L114.972,49.246z M110.199,35.642c-0.214-5.627-3.917-9.402-10.043-9.402
				s-10.187,3.775-10.897,9.402H110.199z"/>
			<path fill="#2A403C" d="M124.8,29.872c0-3.063-0.285-5.698-0.285-7.906h5.271c0,1.78,0.143,3.632,0.143,5.484h0.143
				c1.495-3.276,5.627-6.339,11.111-6.339c0.712,0,1.495,0.071,2.279,0.356l-0.356,5.627c-0.926-0.285-1.994-0.427-2.991-0.427
				c-6.767,0-9.759,4.772-9.759,12.394V55.3H124.8V29.872z"/>
			<path fill="#2A403C" d="M149.442,26.239c3.419-3.49,8.404-5.128,13.248-5.128c9.83,0,13.961,4.701,13.961,14.103v14.317
				c0,1.923,0.213,4.06,0.498,5.77h-5.342c-0.355-1.496-0.355-3.562-0.355-4.986h-0.143c-2.209,3.419-5.912,5.841-10.97,5.841
				c-6.767,0-12.394-3.419-12.394-9.901c0-11.041,12.821-11.682,21.012-11.682h2.138v-0.997c0-4.843-3.063-7.336-8.263-7.336
				c-3.562,0-7.266,1.211-9.9,3.633L149.442,26.239z M165.54,39.274c-7.052,0-11.61,1.923-11.61,6.411
				c0,4.202,3.134,5.77,7.337,5.77c6.41,0,9.687-4.63,9.829-10.043v-2.137H165.54z"/>
			<path fill="#2A403C" d="M210.554,30.299c-2.351-2.849-5.057-4.06-8.404-4.06c-7.479,0-11.254,5.556-11.254,12.394
				s4.486,12.394,11.254,12.394c3.632,0,6.41-1.282,8.476-4.131l4.132,3.917c-3.206,3.704-7.765,5.342-12.607,5.342
				c-10.328,0-17.238-7.266-17.238-17.522c0-10.114,6.98-17.522,17.238-17.522c4.914,0,9.473,1.638,12.82,5.271L210.554,30.299z"/>
			<path fill="#2A403C" d="M239.399,26.667h-9.83v16.667c0,4.273,0.072,7.692,4.986,7.692c1.639,0,3.419-0.356,4.915-1.14
				l0.214,5.058c-1.924,0.854-4.417,1.211-6.482,1.211c-7.906,0-9.188-4.274-9.188-11.183V26.667h-7.266v-4.701h7.266v-9.474h5.555
				v9.474h9.83V26.667z"/>
			<path fill="#2A403C" d="M249.512,4.871c2.279,0,4.06,1.852,4.06,4.06c0,2.351-1.71,4.06-4.06,4.06
				c-2.351,0-4.061-1.709-4.061-4.06C245.451,6.723,247.232,4.871,249.512,4.871z M246.733,21.966h5.556V55.3h-5.556V21.966z"/>
			<path fill="#2A403C" d="M279.212,21.111c10.257,0,17.808,7.123,17.808,17.522s-7.551,17.522-17.808,17.522
				s-17.807-7.123-17.807-17.522S268.955,21.111,279.212,21.111z M279.212,51.026c7.194,0,11.824-5.413,11.824-12.394
				s-4.63-12.394-11.824-12.394c-7.193,0-11.823,5.413-11.823,12.394S272.019,51.026,279.212,51.026z"/>
			<path fill="#2A403C" d="M305.635,29.872c0-3.063-0.284-5.698-0.284-7.906h5.271c0,1.78,0.143,3.632,0.143,5.484h0.143
				c1.495-3.276,5.627-6.339,11.111-6.339c8.761,0,12.679,5.556,12.679,13.604V55.3h-5.556V35.285c0-5.556-2.422-9.046-7.622-9.046
				c-7.193,0-10.327,5.2-10.327,12.821V55.3h-5.557V29.872z"/>
		</g>
		<g>
			<path fill="#56C4C4" d="M401.418,71.906h-8.531V10.969h-0.203l-12.898,10.867l-5.078-6.195L394.004,0h7.414V71.906z"/>
			<path fill="#56C4C4" d="M454.028,47.531h10.359v7.922h-10.359v16.453h-8.531V55.453h-30.469v-9.445L443.567,0h10.461V47.531z
				 M445.497,9.953h-0.203l-22.953,37.578h23.156V9.953z"/>
		</g>
		<g>
			<path fill="#2A403C" d="M21.451,76.426c-1.556-2.5-4.335-3.612-7.169-3.612c-4.112,0-8.392,1.945-8.392,6.613
				c0,3.612,2.001,5.224,8.28,7.225c6.113,1.945,11.781,3.945,11.781,11.67c0,7.836-6.725,11.504-13.838,11.504
				c-4.557,0-9.447-1.501-12.114-5.446l4.001-3.279c1.668,2.89,5.002,4.39,8.392,4.39c4.001,0,8.558-2.334,8.558-6.835
				c0-4.834-3.278-5.668-10.28-8.002c-5.558-1.834-9.78-4.279-9.78-10.836c0-7.558,6.502-11.337,13.393-11.337
				c4.391,0,8.113,1.223,11.004,4.613L21.451,76.426z"/>
			<path fill="#2A403C" d="M44.85,82.15c8.003,0,13.894,5.557,13.894,13.671s-5.891,13.671-13.894,13.671
				s-13.894-5.558-13.894-13.671S36.847,82.15,44.85,82.15z M44.85,105.49c5.612,0,9.226-4.224,9.226-9.669
				c0-5.446-3.613-9.669-9.226-9.669s-9.226,4.223-9.226,9.669C35.624,101.267,39.237,105.49,44.85,105.49z"/>
			<path fill="#2A403C" d="M87.699,102.656c0,2.39,0.222,4.445,0.222,6.168H83.81c0-1.389-0.111-2.834-0.111-4.279h-0.111
				c-1.168,2.556-4.391,4.947-8.67,4.947c-6.835,0-9.892-4.336-9.892-10.615V82.817h4.335v15.616c0,4.334,1.889,7.058,5.945,7.058
				c5.613,0,8.059-4.057,8.059-10.003v-12.67h4.335V102.656z"/>
			<path fill="#2A403C" d="M109.708,86.484h-7.668v13.004c0,3.334,0.055,6.002,3.89,6.002c1.278,0,2.667-0.277,3.835-0.889
				l0.166,3.946c-1.5,0.667-3.445,0.945-5.057,0.945c-6.169,0-7.169-3.335-7.169-8.726V86.484h-5.669v-3.667h5.669v-7.391h4.335
				v7.391h7.668V86.484z"/>
			<path fill="#2A403C" d="M114.601,66.812h4.334v19.617h0.111c1.167-2.056,4.279-4.279,8.336-4.279
				c6.836,0,9.893,4.334,9.893,10.614v16.06h-4.336V93.209c0-4.335-1.889-7.058-5.945-7.058c-5.613,0-8.059,4.057-8.059,10.003
				v12.67h-4.334V66.812z"/>
			<path fill="#2A403C" d="M173.622,69.479h4.391l16.728,39.345h-5.446l-4.001-9.669H165.62l-4.057,9.669h-5.279L173.622,69.479z
				 M175.734,75.481h-0.11l-8.17,19.339h16.061L175.734,75.481z"/>
			<path fill="#2A403C" d="M198.745,88.985c0-2.39-0.223-4.446-0.223-6.168h4.112c0,1.389,0.111,2.834,0.111,4.279h0.11
				c1.168-2.556,4.391-4.946,8.67-4.946c5.613,0,7.391,3.167,8.225,4.946c1.89-3.056,4.279-4.946,8.225-4.946
				c7.447,0,9.893,4.168,9.893,10.892v15.782h-4.335v-15.56c0-3.612-1.278-7.113-6.335-7.113c-3.668,0-6.725,3-6.725,7.669v15.004
				h-4.335V94.098c0-5.724-1.444-7.947-5.001-7.947c-5.613,0-8.059,4.057-8.059,10.003v12.67h-4.334V88.985z"/>
			<path fill="#2A403C" d="M268.881,104.101c-3.057,3.946-6.725,5.391-11.56,5.391c-8.169,0-13.17-6.114-13.17-13.671
				c0-8.058,5.668-13.671,13.337-13.671c7.336,0,12.337,5.001,12.337,13.615v1.389h-21.006c0.333,4.501,3.778,8.336,8.502,8.336
				c3.724,0,6.225-1.333,8.28-3.945L268.881,104.101z M265.157,93.487c-0.167-4.39-3.057-7.335-7.836-7.335
				s-7.946,2.945-8.502,7.335H265.157z"/>
			<path fill="#2A403C" d="M276.108,88.985c0-2.39-0.223-4.446-0.223-6.168h4.112c0,1.389,0.111,2.834,0.111,4.279h0.111
				c1.167-2.556,4.391-4.946,8.67-4.946c0.556,0,1.167,0.056,1.777,0.278l-0.277,4.39c-0.723-0.222-1.556-0.333-2.334-0.333
				c-5.279,0-7.613,3.724-7.613,9.67v12.67h-4.335V88.985z"/>
			<path fill="#2A403C" d="M297.783,69.479c1.778,0,3.167,1.445,3.167,3.167c0,1.834-1.333,3.167-3.167,3.167
				s-3.168-1.333-3.168-3.167C294.615,70.924,296.005,69.479,297.783,69.479z M295.615,82.817h4.335v26.007h-4.335V82.817z"/>
			<path fill="#2A403C" d="M326.626,89.319c-1.834-2.223-3.946-3.167-6.558-3.167c-5.835,0-8.78,4.334-8.78,9.669
				s3.501,9.669,8.78,9.669c2.834,0,5.001-1,6.613-3.223l3.223,3.057c-2.5,2.889-6.057,4.168-9.836,4.168
				c-8.059,0-13.448-5.669-13.448-13.671c0-7.891,5.445-13.671,13.448-13.671c3.834,0,7.391,1.278,10.003,4.112L326.626,89.319z"/>
			<path fill="#2A403C" d="M334.131,86.151c2.667-2.723,6.558-4.001,10.336-4.001c7.669,0,10.893,3.668,10.893,11.003v11.17
				c0,1.501,0.167,3.168,0.389,4.501h-4.168c-0.277-1.166-0.277-2.778-0.277-3.89h-0.111c-1.723,2.667-4.612,4.558-8.559,4.558
				c-5.279,0-9.669-2.668-9.669-7.725c0-8.614,10.003-9.114,16.394-9.114h1.667v-0.778c0-3.779-2.39-5.724-6.446-5.724
				c-2.778,0-5.668,0.944-7.725,2.834L334.131,86.151z M346.689,96.321c-5.501,0-9.058,1.5-9.058,5.001
				c0,3.279,2.445,4.502,5.724,4.502c5.002,0,7.558-3.613,7.669-7.836v-1.667H346.689z"/>
		</g>
		<g>
			<path fill="#56C4C4" d="M1.672,188.837h5.21c3.227,0,6.154,1.142,6.154,4.813c0,3.846-3.275,4.863-5.757,4.863H3.757v7.889H1.672
				V188.837z M3.757,196.578h3.522c2.084,0,3.523-0.943,3.523-2.903s-1.439-2.903-3.523-2.903H3.757V196.578z"/>
			<path fill="#56C4C4" d="M31.744,199.704c0,3.821-1.786,7.146-6.624,7.146s-6.625-3.324-6.625-7.146v-10.867h2.084v10.569
				c0,2.828,1.042,5.508,4.541,5.508c3.498,0,4.54-2.68,4.54-5.508v-10.569h2.084V199.704z"/>
			<path fill="#56C4C4" d="M38.221,188.837h11.041v1.935h-8.956v5.509h8.361v1.935h-8.361v6.253h9.402v1.935H38.221V188.837z"/>
			<path fill="#56C4C4" d="M55.118,188.837h4.491c3.399,0,6.997,0.496,6.997,4.838c0,2.556-1.663,4.218-4.393,4.64l4.987,8.088
				h-2.556l-4.764-7.889h-2.68v7.889h-2.084V188.837z M57.202,196.578h1.861c2.307,0,5.31,0,5.31-2.903
				c0-2.53-2.208-2.903-4.243-2.903h-2.928V196.578z"/>
			<path fill="#56C4C4" d="M83.802,190.771h-5.807v15.631h-2.084v-15.631h-5.805v-1.935h13.695V190.771z"/>
			<path fill="#56C4C4" d="M87.425,197.619c0-5.309,3.846-9.229,9.18-9.229c5.335,0,9.18,3.92,9.18,9.229
				c0,5.311-3.845,9.23-9.18,9.23C91.271,206.85,87.425,202.93,87.425,197.619z M103.552,197.619c0-4.043-2.828-7.294-6.947-7.294
				c-4.118,0-6.947,3.251-6.947,7.294c0,4.045,2.829,7.295,6.947,7.295C100.724,204.914,103.552,201.664,103.552,197.619z"/>
			<path fill="#56C4C4" d="M120.401,188.837h3.102l5.954,13.771h0.05l6.004-13.771h3.027v17.565h-2.084v-14.737h-0.05l-6.302,14.737
				h-1.266l-6.303-14.737h-0.049v14.737h-2.084V188.837z"/>
			<path fill="#56C4C4" d="M150.796,188.837h1.961l7.468,17.565h-2.432l-1.786-4.316h-8.783l-1.811,4.316h-2.357L150.796,188.837z
				 M151.739,191.517h-0.049l-3.648,8.634h7.171L151.739,191.517z"/>
			<path fill="#56C4C4" d="M164.419,188.837h6.749c3.448,0,8.609,2.308,8.609,8.782c0,6.477-5.161,8.783-8.609,8.783h-6.749V188.837
				z M166.503,204.468h3.971c4.02,0,7.07-2.034,7.07-6.849c0-4.813-3.051-6.848-7.07-6.848h-3.971V204.468z"/>
			<path fill="#56C4C4" d="M185.312,188.837h11.041v1.935h-8.957v5.509h8.361v1.935h-8.361v6.253h9.404v1.935h-11.488V188.837z"/>
			<path fill="#56C4C4" d="M202.209,188.837h4.491c3.398,0,6.996,0.496,6.996,4.838c0,2.556-1.662,4.218-4.391,4.64l4.986,8.088
				h-2.556l-4.764-7.889h-2.679v7.889h-2.085V188.837z M204.294,196.578h1.86c2.308,0,5.31,0,5.31-2.903
				c0-2.53-2.209-2.903-4.242-2.903h-2.928V196.578z"/>
			<path fill="#56C4C4" d="M218.536,197.619c0-5.309,3.846-9.229,9.18-9.229s9.18,3.92,9.18,9.229c0,5.311-3.846,9.23-9.18,9.23
				S218.536,202.93,218.536,197.619z M234.663,197.619c0-4.043-2.828-7.294-6.947-7.294s-6.947,3.251-6.947,7.294
				c0,4.045,2.828,7.295,6.947,7.295S234.663,201.664,234.663,197.619z"/>
		</g>
		<g>
			<path fill="#56C4C4" d="M274.429,188.837h5.358c2.903,0,5.831,1.092,5.831,4.317c0,2.034-1.191,3.398-3.076,3.969v0.051
				c2.258,0.197,3.97,2.01,3.97,4.316c0,3.871-3.598,4.912-6.849,4.912h-5.234V188.837z M276.513,196.28h2.878
				c1.96,0,3.994-0.422,3.994-2.854c0-2.159-1.885-2.655-3.771-2.655h-3.102V196.28z M276.513,204.468h3.523
				c2.034,0,4.242-0.819,4.242-3.052c0-2.457-2.084-3.201-4.193-3.201h-3.572V204.468z"/>
			<path fill="#56C4C4" d="M305.418,199.704c0,3.821-1.786,7.146-6.624,7.146s-6.624-3.324-6.624-7.146v-10.867h2.084v10.569
				c0,2.828,1.042,5.508,4.54,5.508s4.54-2.68,4.54-5.508v-10.569h2.084V199.704z"/>
			<path fill="#56C4C4" d="M311.896,188.837h11.041v1.935h-8.957v5.509h8.361v1.935h-8.361v6.253h9.403v1.935h-11.487V188.837z"/>
			<path fill="#56C4C4" d="M328.793,188.837h2.63l10.172,14.589h0.05v-14.589h2.084v17.565h-2.63l-10.172-14.588h-0.05v14.588
				h-2.084V188.837z"/>
			<path fill="#56C4C4" d="M349.264,197.619c0-5.309,3.846-9.229,9.18-9.229c5.335,0,9.181,3.92,9.181,9.229
				c0,5.311-3.846,9.23-9.181,9.23C353.109,206.85,349.264,202.93,349.264,197.619z M365.391,197.619
				c0-4.043-2.828-7.294-6.947-7.294c-4.118,0-6.946,3.251-6.946,7.294c0,4.045,2.828,7.295,6.946,7.295
				C362.563,204.914,365.391,201.664,365.391,197.619z"/>
			<path fill="#56C4C4" d="M381.495,191.938c-0.694-1.115-1.935-1.612-3.2-1.612c-1.836,0-3.746,0.868-3.746,2.952
				c0,1.613,0.893,2.333,3.696,3.227c2.729,0.867,5.26,1.761,5.26,5.209c0,3.499-3.002,5.137-6.178,5.137
				c-2.034,0-4.218-0.67-5.409-2.432l1.787-1.464c0.744,1.29,2.232,1.96,3.746,1.96c1.786,0,3.821-1.042,3.821-3.052
				c0-2.158-1.464-2.53-4.591-3.573c-2.48-0.818-4.366-1.91-4.366-4.838c0-3.374,2.902-5.061,5.979-5.061
				c1.96,0,3.622,0.545,4.912,2.059L381.495,191.938z"/>
			<path fill="#56C4C4" d="M403.926,188.837h1.96l7.469,17.565h-2.432l-1.786-4.316h-8.783l-1.812,4.316h-2.357L403.926,188.837z
				 M404.869,191.517h-0.05l-3.647,8.634h7.17L404.869,191.517z"/>
			<path fill="#56C4C4" d="M417.872,188.837h2.084v17.565h-2.084V188.837z"/>
			<path fill="#56C4C4" d="M426.507,188.837h4.49c3.399,0,6.997,0.496,6.997,4.838c0,2.556-1.662,4.218-4.392,4.64l4.987,8.088
				h-2.556l-4.764-7.889h-2.68v7.889h-2.084V188.837z M428.591,196.578h1.86c2.308,0,5.31,0,5.31-2.903
				c0-2.53-2.208-2.903-4.242-2.903h-2.928V196.578z"/>
			<path fill="#56C4C4" d="M443.851,188.837h11.041v1.935h-8.957v5.509h8.361v1.935h-8.361v6.253h9.403v1.935h-11.487V188.837z"/>
			<path fill="#56C4C4" d="M469.084,191.938c-0.694-1.115-1.935-1.612-3.2-1.612c-1.836,0-3.747,0.868-3.747,2.952
				c0,1.613,0.894,2.333,3.697,3.227c2.729,0.867,5.26,1.761,5.26,5.209c0,3.499-3.002,5.137-6.178,5.137
				c-2.034,0-4.218-0.67-5.409-2.432l1.787-1.464c0.744,1.29,2.232,1.96,3.746,1.96c1.786,0,3.821-1.042,3.821-3.052
				c0-2.158-1.464-2.53-4.591-3.573c-2.48-0.818-4.366-1.91-4.366-4.838c0-3.374,2.902-5.061,5.979-5.061
				c1.96,0,3.622,0.545,4.912,2.059L469.084,191.938z"/>
		</g>
	</g>
</g>
<g id="Capa_2">
	<g>
		<g>
			<g>
				<path fill="#56C4C4" d="M1.503,153.594h2.308l3.995,14.59h0.049l4.317-14.59h2.332l4.293,14.59h0.049l4.069-14.59h2.184
					l-5.161,17.566H17.68l-4.342-14.887h-0.05L8.922,171.16H6.64L1.503,153.594z"/>
				<path fill="#56C4C4" d="M31.825,153.594h11.041v1.936h-8.957v5.508h8.361v1.936h-8.361v6.252h9.403v1.936H31.825V153.594z"/>
				<path fill="#56C4C4" d="M50.607,153.594h6.749c3.448,0,8.609,2.309,8.609,8.783c0,6.477-5.161,8.783-8.609,8.783h-6.749V153.594
					z M52.692,169.225h3.97c4.019,0,7.07-2.033,7.07-6.848c0-4.813-3.052-6.848-7.07-6.848h-3.97V169.225z"/>
				<path fill="#56C4C4" d="M91.747,171.16h-2.084v-14.887h-0.05l-3.15,2.656l-1.241-1.514l4.715-3.822h1.811V171.16z"/>
				<path fill="#56C4C4" d="M109.736,163.842l-0.05-0.051c-0.645,0.373-1.638,0.521-2.356,0.521c-3.052,0-5.31-2.232-5.31-5.508
					c0-3.424,2.556-5.508,5.88-5.508s5.88,2.084,5.88,5.508c0,2.035-0.72,3.424-1.662,4.938l-4.664,7.418h-2.432L109.736,163.842z
					 M111.696,158.805c0-2.283-1.688-3.721-3.796-3.721c-2.109,0-3.796,1.438-3.796,3.721s1.687,3.723,3.796,3.723
					C110.009,162.527,111.696,161.088,111.696,158.805z"/>
				<path fill="#56C4C4" d="M144.449,155.529h-5.806v15.631h-2.084v-15.631h-5.807v-1.936h13.696V155.529z"/>
				<path fill="#56C4C4" d="M150.281,162.377c0-5.309,3.846-9.229,9.18-9.229c5.335,0,9.181,3.92,9.181,9.229
					c0,5.311-3.846,9.23-9.181,9.23C154.127,171.607,150.281,167.688,150.281,162.377z M166.408,162.377
					c0-4.043-2.828-7.293-6.947-7.293c-4.118,0-6.946,3.25-6.946,7.293c0,4.045,2.828,7.295,6.946,7.295
					C163.58,169.672,166.408,166.422,166.408,162.377z"/>
				<path fill="#56C4C4" d="M196.011,156.695c-0.694-1.115-1.935-1.611-3.2-1.611c-1.836,0-3.746,0.867-3.746,2.951
					c0,1.613,0.893,2.332,3.696,3.227c2.729,0.867,5.26,1.762,5.26,5.209c0,3.498-3.002,5.137-6.178,5.137
					c-2.034,0-4.218-0.67-5.409-2.432l1.787-1.463c0.744,1.289,2.232,1.959,3.746,1.959c1.786,0,3.821-1.041,3.821-3.051
					c0-2.16-1.464-2.531-4.591-3.574c-2.48-0.818-4.366-1.91-4.366-4.838c0-3.373,2.902-5.061,5.979-5.061
					c1.96,0,3.622,0.545,4.912,2.059L196.011,156.695z"/>
				<path fill="#56C4C4" d="M211.568,153.594h1.96l7.469,17.566h-2.432l-1.786-4.316h-8.783l-1.812,4.316h-2.357L211.568,153.594z
					 M212.512,156.273h-0.05l-3.647,8.635h7.17L212.512,156.273z"/>
				<path fill="#56C4C4" d="M237.225,155.529h-5.806v15.631h-2.084v-15.631h-5.807v-1.936h13.696V155.529z"/>
				<path fill="#56C4C4" d="M254.421,168.779l6.625-6.451c1.662-1.613,2.48-2.555,2.48-4.268c0-1.836-1.438-2.977-3.2-2.977
					s-3.002,1.115-3.324,2.803l-2.258-0.199c0.471-2.877,2.679-4.391,5.508-4.391c2.902,0,5.359,1.637,5.359,4.764
					c0,2.803-1.663,4.367-3.425,6.029l-5.408,5.086v0.049h8.957v1.936h-11.314V168.779z"/>
				<path fill="#56C4C4" d="M272.608,168.779l6.625-6.451c1.662-1.613,2.48-2.555,2.48-4.268c0-1.836-1.438-2.977-3.2-2.977
					s-3.002,1.115-3.324,2.803l-2.258-0.199c0.471-2.877,2.679-4.391,5.508-4.391c2.902,0,5.359,1.637,5.359,4.764
					c0,2.803-1.663,4.367-3.425,6.029l-5.408,5.086v0.049h8.957v1.936h-11.314V168.779z"/>
				<path fill="#56C4C4" d="M303.029,153.594h2.63l10.172,14.59h0.05v-14.59h2.084v17.566h-2.63l-10.172-14.588h-0.05v14.588h-2.084
					V153.594z"/>
				<path fill="#56C4C4" d="M325.709,162.377c0-5.309,3.846-9.229,9.18-9.229c5.335,0,9.181,3.92,9.181,9.229
					c0,5.311-3.846,9.23-9.181,9.23C329.555,171.607,325.709,167.688,325.709,162.377z M341.836,162.377
					c0-4.043-2.828-7.293-6.947-7.293c-4.118,0-6.946,3.25-6.946,7.293c0,4.045,2.828,7.295,6.946,7.295
					C339.008,169.672,341.836,166.422,341.836,162.377z"/>
				<path fill="#56C4C4" d="M349.404,153.594h2.357l5.408,14.441h0.05l5.583-14.441h2.208l-6.873,17.566h-2.01L349.404,153.594z"/>
				<path fill="#56C4C4" d="M371.364,153.594h11.041v1.936h-8.957v5.508h8.361v1.936h-8.361v6.252h9.403v1.936h-11.487V153.594z"/>
				<path fill="#56C4C4" d="M390.47,153.594h3.102l5.954,13.771h0.05l6.004-13.771h3.027v17.566h-2.084v-14.736h-0.05l-6.302,14.736
					h-1.266l-6.302-14.736h-0.05v14.736h-2.084V153.594z"/>
				<path fill="#56C4C4" d="M417.367,153.594h5.359c2.902,0,5.83,1.092,5.83,4.318c0,2.033-1.191,3.398-3.076,3.969v0.051
					c2.258,0.197,3.97,2.01,3.97,4.316c0,3.871-3.598,4.912-6.849,4.912h-5.234V153.594z M419.451,161.037h2.878
					c1.96,0,3.994-0.422,3.994-2.852c0-2.16-1.885-2.656-3.771-2.656h-3.102V161.037z M419.451,169.225h3.523
					c2.034,0,4.242-0.818,4.242-3.051c0-2.457-2.084-3.201-4.193-3.201h-3.572V169.225z"/>
				<path fill="#56C4C4" d="M437.391,153.594h11.041v1.936h-8.957v5.508h8.361v1.936h-8.361v6.252h9.403v1.936h-11.487V153.594z"/>
				<path fill="#56C4C4" d="M456.497,153.594h4.49c3.399,0,6.997,0.496,6.997,4.84c0,2.555-1.662,4.217-4.392,4.639l4.987,8.088
					h-2.556l-4.764-7.889h-2.68v7.889h-2.084V153.594z M458.581,161.336h1.86c2.308,0,5.31,0,5.31-2.902
					c0-2.531-2.208-2.904-4.242-2.904h-2.928V161.336z"/>
			</g>
		</g>
	</g>
	<g>
		<rect x="1.484" y="134.85" fill="#56C4C4" width="471.443" height="1.816"/>
		<g>
			<path fill="#2A403C" d="M407.043,87.833c2.577,0.158,4.653,1.812,2.586,2.929c-1.281,0.691-11.008-1.732-12.298,7.142
				C397.324,92.157,400.759,87.445,407.043,87.833"/>
			<path fill="#2A403C" d="M418.718,90.891c3.4-6.236-11.192-6.402-11.751-5.792c8.869-0.66,12.314-1.011,18.377,10.242
				c5.54,10.03,12.377,10.925,11.641,10.244c-5.228-3.92-7.473-9.954-8.164-12.267c2.249,3.498,7.506,15.488,22.859,19.784
				c15.311,4.276,27.059-9.368,18.187-19.473c-3.36-3.825-10.696-3.569-13.439,1.438c-1.764,3.227,1.13,7.693,4.845,6.898
				c-0.71-2.501,5.264-2.8,5.632,2.703c0.467,6.916-13.143,7.771-20.411,0.088c-5.216-5.523-8.561-12.168-14.958-16.446
				c-6.662-4.455-15.158-7.273-23.218-6.138c-10.126,1.43-21.025,11.453-16.318,22.455c4.507,10.533,17.489,11.756,22.379,1.761
				c5.436-11.106-15.046-15.937-12.714-4.924c0.6-0.399,1.185-0.353,1.755,0.144c0.985,3.459-8.393,0.971-7.017-5.793
				c1.246-6.112,5.414-9.216,11.354-9.505C416.146,85.901,416.927,92.502,418.718,90.891"/>
		</g>
		<path fill="#56C4C4" d="M253.939,193.371c1.927,0,3.479,1.551,3.479,3.479c0,1.927-1.553,3.478-3.479,3.478
			c-1.928,0-3.479-1.551-3.479-3.478C250.461,194.922,252.012,193.371,253.939,193.371"/>
		<g>
			<path fill="#2A403C" d="M3.007,4.871h5.982V55.3H3.007V4.871z"/>
			<path fill="#2A403C" d="M20.527,29.872c0-3.063-0.285-5.698-0.285-7.906h5.271c0,1.78,0.143,3.632,0.143,5.484h0.143
				c1.496-3.276,5.627-6.339,11.111-6.339c8.762,0,12.68,5.556,12.68,13.604V55.3h-5.557V35.285c0-5.556-2.422-9.046-7.621-9.046
				c-7.194,0-10.328,5.2-10.328,12.821V55.3h-5.556V29.872z"/>
			<path fill="#2A403C" d="M78.362,26.667h-9.83v16.667c0,4.273,0.072,7.692,4.986,7.692c1.639,0,3.419-0.356,4.915-1.14
				l0.214,5.058c-1.924,0.854-4.416,1.211-6.482,1.211c-7.906,0-9.188-4.274-9.188-11.183V26.667h-7.266v-4.701h7.266v-9.474h5.555
				v9.474h9.83V26.667z"/>
			<path fill="#2A403C" d="M114.972,49.246c-3.918,5.057-8.619,6.909-14.815,6.909c-10.471,0-16.882-7.835-16.882-17.522
				c0-10.328,7.266-17.522,17.096-17.522c9.402,0,15.813,6.411,15.813,17.451v1.781H89.259c0.427,5.77,4.843,10.684,10.897,10.684
				c4.772,0,7.978-1.709,10.612-5.057L114.972,49.246z M110.199,35.642c-0.214-5.627-3.917-9.402-10.043-9.402
				s-10.187,3.775-10.897,9.402H110.199z"/>
			<path fill="#2A403C" d="M124.8,29.872c0-3.063-0.285-5.698-0.285-7.906h5.271c0,1.78,0.143,3.632,0.143,5.484h0.143
				c1.495-3.276,5.627-6.339,11.111-6.339c0.712,0,1.495,0.071,2.279,0.356l-0.356,5.627c-0.926-0.285-1.994-0.427-2.991-0.427
				c-6.767,0-9.759,4.772-9.759,12.394V55.3H124.8V29.872z"/>
			<path fill="#2A403C" d="M149.442,26.239c3.419-3.49,8.404-5.128,13.248-5.128c9.83,0,13.961,4.701,13.961,14.103v14.317
				c0,1.923,0.213,4.06,0.498,5.77h-5.342c-0.355-1.496-0.355-3.562-0.355-4.986h-0.143c-2.209,3.419-5.912,5.841-10.97,5.841
				c-6.767,0-12.394-3.419-12.394-9.901c0-11.041,12.821-11.682,21.012-11.682h2.138v-0.997c0-4.843-3.063-7.336-8.263-7.336
				c-3.562,0-7.266,1.211-9.9,3.633L149.442,26.239z M165.54,39.274c-7.052,0-11.61,1.923-11.61,6.411
				c0,4.202,3.134,5.77,7.337,5.77c6.41,0,9.687-4.63,9.829-10.043v-2.137H165.54z"/>
			<path fill="#2A403C" d="M210.554,30.299c-2.351-2.849-5.057-4.06-8.404-4.06c-7.479,0-11.254,5.556-11.254,12.394
				s4.486,12.394,11.254,12.394c3.632,0,6.41-1.282,8.476-4.131l4.132,3.917c-3.206,3.704-7.765,5.342-12.607,5.342
				c-10.328,0-17.238-7.266-17.238-17.522c0-10.114,6.98-17.522,17.238-17.522c4.914,0,9.473,1.638,12.82,5.271L210.554,30.299z"/>
			<path fill="#2A403C" d="M239.399,26.667h-9.83v16.667c0,4.273,0.072,7.692,4.986,7.692c1.639,0,3.419-0.356,4.915-1.14
				l0.214,5.058c-1.924,0.854-4.417,1.211-6.482,1.211c-7.906,0-9.188-4.274-9.188-11.183V26.667h-7.266v-4.701h7.266v-9.474h5.555
				v9.474h9.83V26.667z"/>
			<path fill="#2A403C" d="M249.512,4.871c2.279,0,4.06,1.852,4.06,4.06c0,2.351-1.71,4.06-4.06,4.06
				c-2.351,0-4.061-1.709-4.061-4.06C245.451,6.723,247.232,4.871,249.512,4.871z M246.733,21.966h5.556V55.3h-5.556V21.966z"/>
			<path fill="#2A403C" d="M279.212,21.111c10.257,0,17.808,7.123,17.808,17.522s-7.551,17.522-17.808,17.522
				s-17.807-7.123-17.807-17.522S268.955,21.111,279.212,21.111z M279.212,51.026c7.194,0,11.824-5.413,11.824-12.394
				s-4.63-12.394-11.824-12.394c-7.193,0-11.823,5.413-11.823,12.394S272.019,51.026,279.212,51.026z"/>
			<path fill="#2A403C" d="M305.635,29.872c0-3.063-0.284-5.698-0.284-7.906h5.271c0,1.78,0.143,3.632,0.143,5.484h0.143
				c1.495-3.276,5.627-6.339,11.111-6.339c8.761,0,12.679,5.556,12.679,13.604V55.3h-5.556V35.285c0-5.556-2.422-9.046-7.622-9.046
				c-7.193,0-10.327,5.2-10.327,12.821V55.3h-5.557V29.872z"/>
		</g>
		<g>
			<path fill="#56C4C4" d="M401.418,71.906h-8.531V10.969h-0.203l-12.898,10.867l-5.078-6.195L394.004,0h7.414V71.906z"/>
			<path fill="#56C4C4" d="M454.028,47.531h10.359v7.922h-10.359v16.453h-8.531V55.453h-30.469v-9.445L443.567,0h10.461V47.531z
				 M445.497,9.953h-0.203l-22.953,37.578h23.156V9.953z"/>
		</g>
		<g>
			<path fill="#2A403C" d="M21.451,76.426c-1.556-2.5-4.335-3.612-7.169-3.612c-4.112,0-8.392,1.945-8.392,6.613
				c0,3.612,2.001,5.224,8.28,7.225c6.113,1.945,11.781,3.945,11.781,11.67c0,7.836-6.725,11.504-13.838,11.504
				c-4.557,0-9.447-1.501-12.114-5.446l4.001-3.279c1.668,2.89,5.002,4.39,8.392,4.39c4.001,0,8.558-2.334,8.558-6.835
				c0-4.834-3.278-5.668-10.28-8.002c-5.558-1.834-9.78-4.279-9.78-10.836c0-7.558,6.502-11.337,13.393-11.337
				c4.391,0,8.113,1.223,11.004,4.613L21.451,76.426z"/>
			<path fill="#2A403C" d="M44.85,82.15c8.003,0,13.894,5.557,13.894,13.671s-5.891,13.671-13.894,13.671
				s-13.894-5.558-13.894-13.671S36.847,82.15,44.85,82.15z M44.85,105.49c5.612,0,9.226-4.224,9.226-9.669
				c0-5.446-3.613-9.669-9.226-9.669s-9.226,4.223-9.226,9.669C35.624,101.267,39.237,105.49,44.85,105.49z"/>
			<path fill="#2A403C" d="M87.699,102.656c0,2.39,0.222,4.445,0.222,6.168H83.81c0-1.389-0.111-2.834-0.111-4.279h-0.111
				c-1.168,2.556-4.391,4.947-8.67,4.947c-6.835,0-9.892-4.336-9.892-10.615V82.817h4.335v15.616c0,4.334,1.889,7.058,5.945,7.058
				c5.613,0,8.059-4.057,8.059-10.003v-12.67h4.335V102.656z"/>
			<path fill="#2A403C" d="M109.708,86.484h-7.668v13.004c0,3.334,0.055,6.002,3.89,6.002c1.278,0,2.667-0.277,3.835-0.889
				l0.166,3.946c-1.5,0.667-3.445,0.945-5.057,0.945c-6.169,0-7.169-3.335-7.169-8.726V86.484h-5.669v-3.667h5.669v-7.391h4.335
				v7.391h7.668V86.484z"/>
			<path fill="#2A403C" d="M114.601,66.812h4.334v19.617h0.111c1.167-2.056,4.279-4.279,8.336-4.279
				c6.836,0,9.893,4.334,9.893,10.614v16.06h-4.336V93.209c0-4.335-1.889-7.058-5.945-7.058c-5.613,0-8.059,4.057-8.059,10.003
				v12.67h-4.334V66.812z"/>
			<path fill="#2A403C" d="M173.622,69.479h4.391l16.728,39.345h-5.446l-4.001-9.669H165.62l-4.057,9.669h-5.279L173.622,69.479z
				 M175.734,75.481h-0.11l-8.17,19.339h16.061L175.734,75.481z"/>
			<path fill="#2A403C" d="M198.745,88.985c0-2.39-0.223-4.446-0.223-6.168h4.112c0,1.389,0.111,2.834,0.111,4.279h0.11
				c1.168-2.556,4.391-4.946,8.67-4.946c5.613,0,7.391,3.167,8.225,4.946c1.89-3.056,4.279-4.946,8.225-4.946
				c7.447,0,9.893,4.168,9.893,10.892v15.782h-4.335v-15.56c0-3.612-1.278-7.113-6.335-7.113c-3.668,0-6.725,3-6.725,7.669v15.004
				h-4.335V94.098c0-5.724-1.444-7.947-5.001-7.947c-5.613,0-8.059,4.057-8.059,10.003v12.67h-4.334V88.985z"/>
			<path fill="#2A403C" d="M268.881,104.101c-3.057,3.946-6.725,5.391-11.56,5.391c-8.169,0-13.17-6.114-13.17-13.671
				c0-8.058,5.668-13.671,13.337-13.671c7.336,0,12.337,5.001,12.337,13.615v1.389h-21.006c0.333,4.501,3.778,8.336,8.502,8.336
				c3.724,0,6.225-1.333,8.28-3.945L268.881,104.101z M265.157,93.487c-0.167-4.39-3.057-7.335-7.836-7.335
				s-7.946,2.945-8.502,7.335H265.157z"/>
			<path fill="#2A403C" d="M276.108,88.985c0-2.39-0.223-4.446-0.223-6.168h4.112c0,1.389,0.111,2.834,0.111,4.279h0.111
				c1.167-2.556,4.391-4.946,8.67-4.946c0.556,0,1.167,0.056,1.777,0.278l-0.277,4.39c-0.723-0.222-1.556-0.333-2.334-0.333
				c-5.279,0-7.613,3.724-7.613,9.67v12.67h-4.335V88.985z"/>
			<path fill="#2A403C" d="M297.783,69.479c1.778,0,3.167,1.445,3.167,3.167c0,1.834-1.333,3.167-3.167,3.167
				s-3.168-1.333-3.168-3.167C294.615,70.924,296.005,69.479,297.783,69.479z M295.615,82.817h4.335v26.007h-4.335V82.817z"/>
			<path fill="#2A403C" d="M326.626,89.319c-1.834-2.223-3.946-3.167-6.558-3.167c-5.835,0-8.78,4.334-8.78,9.669
				s3.501,9.669,8.78,9.669c2.834,0,5.001-1,6.613-3.223l3.223,3.057c-2.5,2.889-6.057,4.168-9.836,4.168
				c-8.059,0-13.448-5.669-13.448-13.671c0-7.891,5.445-13.671,13.448-13.671c3.834,0,7.391,1.278,10.003,4.112L326.626,89.319z"/>
			<path fill="#2A403C" d="M334.131,86.151c2.667-2.723,6.558-4.001,10.336-4.001c7.669,0,10.893,3.668,10.893,11.003v11.17
				c0,1.501,0.167,3.168,0.389,4.501h-4.168c-0.277-1.166-0.277-2.778-0.277-3.89h-0.111c-1.723,2.667-4.612,4.558-8.559,4.558
				c-5.279,0-9.669-2.668-9.669-7.725c0-8.614,10.003-9.114,16.394-9.114h1.667v-0.778c0-3.779-2.39-5.724-6.446-5.724
				c-2.778,0-5.668,0.944-7.725,2.834L334.131,86.151z M346.689,96.321c-5.501,0-9.058,1.5-9.058,5.001
				c0,3.279,2.445,4.502,5.724,4.502c5.002,0,7.558-3.613,7.669-7.836v-1.667H346.689z"/>
		</g>
		<g>
			<path fill="#56C4C4" d="M1.672,188.837h5.21c3.227,0,6.154,1.142,6.154,4.813c0,3.846-3.275,4.863-5.757,4.863H3.757v7.889H1.672
				V188.837z M3.757,196.578h3.522c2.084,0,3.523-0.943,3.523-2.903s-1.439-2.903-3.523-2.903H3.757V196.578z"/>
			<path fill="#56C4C4" d="M31.744,199.704c0,3.821-1.786,7.146-6.624,7.146s-6.625-3.324-6.625-7.146v-10.867h2.084v10.569
				c0,2.828,1.042,5.508,4.541,5.508c3.498,0,4.54-2.68,4.54-5.508v-10.569h2.084V199.704z"/>
			<path fill="#56C4C4" d="M38.221,188.837h11.041v1.935h-8.956v5.509h8.361v1.935h-8.361v6.253h9.402v1.935H38.221V188.837z"/>
			<path fill="#56C4C4" d="M55.118,188.837h4.491c3.399,0,6.997,0.496,6.997,4.838c0,2.556-1.663,4.218-4.393,4.64l4.987,8.088
				h-2.556l-4.764-7.889h-2.68v7.889h-2.084V188.837z M57.202,196.578h1.861c2.307,0,5.31,0,5.31-2.903
				c0-2.53-2.208-2.903-4.243-2.903h-2.928V196.578z"/>
			<path fill="#56C4C4" d="M83.802,190.771h-5.807v15.631h-2.084v-15.631h-5.805v-1.935h13.695V190.771z"/>
			<path fill="#56C4C4" d="M87.425,197.619c0-5.309,3.846-9.229,9.18-9.229c5.335,0,9.18,3.92,9.18,9.229
				c0,5.311-3.845,9.23-9.18,9.23C91.271,206.85,87.425,202.93,87.425,197.619z M103.552,197.619c0-4.043-2.828-7.294-6.947-7.294
				c-4.118,0-6.947,3.251-6.947,7.294c0,4.045,2.829,7.295,6.947,7.295C100.724,204.914,103.552,201.664,103.552,197.619z"/>
			<path fill="#56C4C4" d="M120.401,188.837h3.102l5.954,13.771h0.05l6.004-13.771h3.027v17.565h-2.084v-14.737h-0.05l-6.302,14.737
				h-1.266l-6.303-14.737h-0.049v14.737h-2.084V188.837z"/>
			<path fill="#56C4C4" d="M150.796,188.837h1.961l7.468,17.565h-2.432l-1.786-4.316h-8.783l-1.811,4.316h-2.357L150.796,188.837z
				 M151.739,191.517h-0.049l-3.648,8.634h7.171L151.739,191.517z"/>
			<path fill="#56C4C4" d="M164.419,188.837h6.749c3.448,0,8.609,2.308,8.609,8.782c0,6.477-5.161,8.783-8.609,8.783h-6.749V188.837
				z M166.503,204.468h3.971c4.02,0,7.07-2.034,7.07-6.849c0-4.813-3.051-6.848-7.07-6.848h-3.971V204.468z"/>
			<path fill="#56C4C4" d="M185.312,188.837h11.041v1.935h-8.957v5.509h8.361v1.935h-8.361v6.253h9.404v1.935h-11.488V188.837z"/>
			<path fill="#56C4C4" d="M202.209,188.837h4.491c3.398,0,6.996,0.496,6.996,4.838c0,2.556-1.662,4.218-4.391,4.64l4.986,8.088
				h-2.556l-4.764-7.889h-2.679v7.889h-2.085V188.837z M204.294,196.578h1.86c2.308,0,5.31,0,5.31-2.903
				c0-2.53-2.209-2.903-4.242-2.903h-2.928V196.578z"/>
			<path fill="#56C4C4" d="M218.536,197.619c0-5.309,3.846-9.229,9.18-9.229s9.18,3.92,9.18,9.229c0,5.311-3.846,9.23-9.18,9.23
				S218.536,202.93,218.536,197.619z M234.663,197.619c0-4.043-2.828-7.294-6.947-7.294s-6.947,3.251-6.947,7.294
				c0,4.045,2.828,7.295,6.947,7.295S234.663,201.664,234.663,197.619z"/>
		</g>
		<g>
			<path fill="#56C4C4" d="M274.429,188.837h5.358c2.903,0,5.831,1.092,5.831,4.317c0,2.034-1.191,3.398-3.076,3.969v0.051
				c2.258,0.197,3.97,2.01,3.97,4.316c0,3.871-3.598,4.912-6.849,4.912h-5.234V188.837z M276.513,196.28h2.878
				c1.96,0,3.994-0.422,3.994-2.854c0-2.159-1.885-2.655-3.771-2.655h-3.102V196.28z M276.513,204.468h3.523
				c2.034,0,4.242-0.819,4.242-3.052c0-2.457-2.084-3.201-4.193-3.201h-3.572V204.468z"/>
			<path fill="#56C4C4" d="M305.418,199.704c0,3.821-1.786,7.146-6.624,7.146s-6.624-3.324-6.624-7.146v-10.867h2.084v10.569
				c0,2.828,1.042,5.508,4.54,5.508s4.54-2.68,4.54-5.508v-10.569h2.084V199.704z"/>
			<path fill="#56C4C4" d="M311.896,188.837h11.041v1.935h-8.957v5.509h8.361v1.935h-8.361v6.253h9.403v1.935h-11.487V188.837z"/>
			<path fill="#56C4C4" d="M328.793,188.837h2.63l10.172,14.589h0.05v-14.589h2.084v17.565h-2.63l-10.172-14.588h-0.05v14.588
				h-2.084V188.837z"/>
			<path fill="#56C4C4" d="M349.264,197.619c0-5.309,3.846-9.229,9.18-9.229c5.335,0,9.181,3.92,9.181,9.229
				c0,5.311-3.846,9.23-9.181,9.23C353.109,206.85,349.264,202.93,349.264,197.619z M365.391,197.619
				c0-4.043-2.828-7.294-6.947-7.294c-4.118,0-6.946,3.251-6.946,7.294c0,4.045,2.828,7.295,6.946,7.295
				C362.563,204.914,365.391,201.664,365.391,197.619z"/>
			<path fill="#56C4C4" d="M381.495,191.938c-0.694-1.115-1.935-1.612-3.2-1.612c-1.836,0-3.746,0.868-3.746,2.952
				c0,1.613,0.893,2.333,3.696,3.227c2.729,0.867,5.26,1.761,5.26,5.209c0,3.499-3.002,5.137-6.178,5.137
				c-2.034,0-4.218-0.67-5.409-2.432l1.787-1.464c0.744,1.29,2.232,1.96,3.746,1.96c1.786,0,3.821-1.042,3.821-3.052
				c0-2.158-1.464-2.53-4.591-3.573c-2.48-0.818-4.366-1.91-4.366-4.838c0-3.374,2.902-5.061,5.979-5.061
				c1.96,0,3.622,0.545,4.912,2.059L381.495,191.938z"/>
			<path fill="#56C4C4" d="M403.926,188.837h1.96l7.469,17.565h-2.432l-1.786-4.316h-8.783l-1.812,4.316h-2.357L403.926,188.837z
				 M404.869,191.517h-0.05l-3.647,8.634h7.17L404.869,191.517z"/>
			<path fill="#56C4C4" d="M417.872,188.837h2.084v17.565h-2.084V188.837z"/>
			<path fill="#56C4C4" d="M426.507,188.837h4.49c3.399,0,6.997,0.496,6.997,4.838c0,2.556-1.662,4.218-4.392,4.64l4.987,8.088
				h-2.556l-4.764-7.889h-2.68v7.889h-2.084V188.837z M428.591,196.578h1.86c2.308,0,5.31,0,5.31-2.903
				c0-2.53-2.208-2.903-4.242-2.903h-2.928V196.578z"/>
			<path fill="#56C4C4" d="M443.851,188.837h11.041v1.935h-8.957v5.509h8.361v1.935h-8.361v6.253h9.403v1.935h-11.487V188.837z"/>
			<path fill="#56C4C4" d="M469.084,191.938c-0.694-1.115-1.935-1.612-3.2-1.612c-1.836,0-3.747,0.868-3.747,2.952
				c0,1.613,0.894,2.333,3.697,3.227c2.729,0.867,5.26,1.761,5.26,5.209c0,3.499-3.002,5.137-6.178,5.137
				c-2.034,0-4.218-0.67-5.409-2.432l1.787-1.464c0.744,1.29,2.232,1.96,3.746,1.96c1.786,0,3.821-1.042,3.821-3.052
				c0-2.158-1.464-2.53-4.591-3.573c-2.48-0.818-4.366-1.91-4.366-4.838c0-3.374,2.902-5.061,5.979-5.061
				c1.96,0,3.622,0.545,4.912,2.059L469.084,191.938z"/>
		</g>
	</g>
</g>
<g id="Capa_3" display="none">
	<g display="inline">
		<g>
			<g>
				<path fill="#56C4C4" d="M19.759,170.541H9.562c-5.136,0-9.031-3.92-9.031-9.006s3.896-9.006,9.031-9.006s9.031,3.92,9.031,9.006
					c0,2.977-1.638,6.055-4.268,7.17v0.051h5.434V170.541z M9.562,168.605c3.87,0,6.798-3.1,6.798-7.07
					c0-3.92-2.854-7.07-6.798-7.07s-6.798,3.15-6.798,7.07C2.764,165.506,5.691,168.605,9.562,168.605z"/>
				<path fill="#56C4C4" d="M40.527,163.842c0,3.822-1.786,7.146-6.624,7.146s-6.624-3.324-6.624-7.146v-10.867h2.084v10.57
					c0,2.828,1.041,5.508,4.54,5.508s4.54-2.68,4.54-5.508v-10.57h2.084V163.842z"/>
				<path fill="#56C4C4" d="M55.639,152.975H57.6l7.468,17.566h-2.432l-1.786-4.316h-8.783l-1.811,4.316h-2.357L55.639,152.975z
					 M56.582,155.654h-0.049l-3.648,8.635h7.171L56.582,155.654z"/>
				<path fill="#56C4C4" d="M91.271,170.541h-2.085v-14.887h-0.049l-3.151,2.656l-1.24-1.514l4.714-3.822h1.812V170.541z"/>
				<path fill="#56C4C4" d="M109.979,163.223l-0.05-0.051c-0.645,0.373-1.637,0.521-2.357,0.521c-3.051,0-5.309-2.232-5.309-5.508
					c0-3.424,2.555-5.508,5.88-5.508s5.88,2.084,5.88,5.508c0,2.035-0.719,3.424-1.662,4.938l-4.664,7.418h-2.432L109.979,163.223z
					 M111.939,158.186c0-2.283-1.688-3.721-3.796-3.721s-3.796,1.438-3.796,3.721s1.688,3.723,3.796,3.723
					S111.939,160.469,111.939,158.186z"/>
				<path fill="#56C4C4" d="M140.053,152.975h1.961l7.467,17.566h-2.431l-1.786-4.316h-8.783l-1.812,4.316h-2.356L140.053,152.975z
					 M140.996,155.654h-0.05l-3.647,8.635h7.17L140.996,155.654z"/>
				<path fill="#56C4C4" d="M177.271,156.076c-0.694-1.115-1.936-1.611-3.2-1.611c-1.836,0-3.747,0.867-3.747,2.951
					c0,1.613,0.894,2.332,3.697,3.227c2.729,0.867,5.26,1.762,5.26,5.209c0,3.5-3.002,5.137-6.178,5.137
					c-2.035,0-4.218-0.67-5.408-2.432l1.785-1.463c0.745,1.289,2.233,1.959,3.747,1.959c1.786,0,3.821-1.041,3.821-3.051
					c0-2.16-1.465-2.531-4.59-3.574c-2.481-0.818-4.367-1.91-4.367-4.838c0-3.373,2.902-5.061,5.979-5.061
					c1.96,0,3.622,0.545,4.913,2.059L177.271,156.076z"/>
				<path fill="#56C4C4" d="M193.549,152.975h1.961l7.468,17.566h-2.432l-1.786-4.316h-8.783l-1.811,4.316h-2.357L193.549,152.975z
					 M194.492,155.654h-0.049l-3.648,8.635h7.171L194.492,155.654z"/>
				<path fill="#56C4C4" d="M210.423,152.975h5.358c2.903,0,5.831,1.092,5.831,4.318c0,2.033-1.19,3.398-3.077,3.969v0.051
					c2.258,0.197,3.971,2.01,3.971,4.316c0,3.871-3.598,4.912-6.848,4.912h-5.235V152.975z M212.507,160.418h2.878
					c1.96,0,3.994-0.422,3.994-2.852c0-2.16-1.885-2.656-3.771-2.656h-3.101V160.418z M212.507,168.605h3.522
					c2.035,0,4.243-0.818,4.243-3.051c0-2.457-2.084-3.201-4.192-3.201h-3.573V168.605z"/>
				<path fill="#56C4C4" d="M242.232,168.16l6.625-6.451c1.662-1.613,2.48-2.555,2.48-4.268c0-1.836-1.438-2.977-3.2-2.977
					s-3.002,1.115-3.324,2.803l-2.258-0.199c0.471-2.877,2.679-4.391,5.508-4.391c2.902,0,5.359,1.637,5.359,4.764
					c0,2.803-1.663,4.367-3.425,6.029l-5.408,5.086v0.049h8.957v1.936h-11.314V168.16z"/>
				<path fill="#56C4C4" d="M261.14,168.16l6.625-6.451c1.662-1.613,2.48-2.555,2.48-4.268c0-1.836-1.438-2.977-3.2-2.977
					s-3.002,1.115-3.324,2.803l-2.258-0.199c0.471-2.877,2.679-4.391,5.508-4.391c2.902,0,5.359,1.637,5.359,4.764
					c0,2.803-1.663,4.367-3.425,6.029l-5.408,5.086v0.049h8.957v1.936H261.14V168.16z"/>
				<path fill="#56C4C4" d="M293,152.975h2.63l10.172,14.59h0.05v-14.59h2.084v17.566h-2.63l-10.172-14.588h-0.05v14.588H293
					V152.975z"/>
				<path fill="#56C4C4" d="M316.398,161.758c0-5.309,3.846-9.229,9.18-9.229c5.335,0,9.181,3.92,9.181,9.229
					c0,5.311-3.846,9.23-9.181,9.23C320.244,170.988,316.398,167.068,316.398,161.758z M332.525,161.758
					c0-4.043-2.828-7.293-6.947-7.293c-4.118,0-6.946,3.25-6.946,7.293c0,4.045,2.828,7.295,6.946,7.295
					C329.697,169.053,332.525,165.803,332.525,161.758z"/>
				<path fill="#56C4C4" d="M340.814,152.975h2.357l5.409,14.441h0.049l5.583-14.441h2.208l-6.873,17.566h-2.01L340.814,152.975z"/>
				<path fill="#56C4C4" d="M363.493,152.975h11.041v1.936h-8.957v5.508h8.361v1.936h-8.361v6.252h9.403v1.936h-11.487V152.975z"/>
				<path fill="#56C4C4" d="M383.319,152.975h3.102l5.954,13.771h0.05l6.004-13.771h3.027v17.566h-2.084v-14.736h-0.05
					l-6.302,14.736h-1.266l-6.302-14.736h-0.05v14.736h-2.084V152.975z"/>
				<path fill="#56C4C4" d="M410.936,152.975h5.358c2.903,0,5.831,1.092,5.831,4.318c0,2.033-1.191,3.398-3.076,3.969v0.051
					c2.258,0.197,3.97,2.01,3.97,4.316c0,3.871-3.598,4.912-6.849,4.912h-5.234V152.975z M413.02,160.418h2.878
					c1.96,0,3.994-0.422,3.994-2.852c0-2.16-1.885-2.656-3.771-2.656h-3.102V160.418z M413.02,168.605h3.523
					c2.034,0,4.242-0.818,4.242-3.051c0-2.457-2.084-3.201-4.193-3.201h-3.572V168.605z"/>
				<path fill="#56C4C4" d="M431.679,152.975h4.49c3.399,0,6.997,0.498,6.997,4.84c0,2.555-1.662,4.217-4.392,4.639l4.987,8.088
					h-2.556l-4.764-7.889h-2.68v7.889h-2.084V152.975z M433.763,160.717h1.86c2.308,0,5.31,0,5.31-2.902
					c0-2.531-2.208-2.904-4.242-2.904h-2.928V160.717z"/>
				<path fill="#56C4C4" d="M450.934,161.758c0-5.309,3.846-9.229,9.18-9.229c5.335,0,9.181,3.92,9.181,9.229
					c0,5.311-3.846,9.23-9.181,9.23C454.779,170.988,450.934,167.068,450.934,161.758z M467.061,161.758
					c0-4.043-2.828-7.293-6.947-7.293c-4.118,0-6.946,3.25-6.946,7.293c0,4.045,2.828,7.295,6.946,7.295
					C464.232,169.053,467.061,165.803,467.061,161.758z"/>
			</g>
		</g>
	</g>
	<g display="inline">
		<rect x="1.484" y="134.85" fill="#56C4C4" width="471.443" height="1.816"/>
		<g>
			<path fill="#2A403C" d="M407.043,87.833c2.577,0.158,4.653,1.812,2.586,2.929c-1.281,0.691-11.008-1.732-12.298,7.142
				C397.324,92.157,400.759,87.445,407.043,87.833"/>
			<path fill="#2A403C" d="M418.718,90.891c3.4-6.236-11.192-6.402-11.751-5.792c8.869-0.66,12.314-1.011,18.377,10.242
				c5.54,10.03,12.377,10.925,11.641,10.244c-5.228-3.92-7.473-9.954-8.164-12.267c2.249,3.498,7.506,15.488,22.859,19.784
				c15.311,4.276,27.059-9.368,18.187-19.473c-3.36-3.825-10.696-3.569-13.439,1.438c-1.764,3.227,1.13,7.693,4.845,6.898
				c-0.71-2.501,5.264-2.8,5.632,2.703c0.467,6.916-13.143,7.771-20.411,0.088c-5.216-5.523-8.561-12.168-14.958-16.446
				c-6.662-4.455-15.158-7.273-23.218-6.138c-10.126,1.43-21.025,11.453-16.318,22.455c4.507,10.533,17.489,11.756,22.379,1.761
				c5.436-11.106-15.046-15.937-12.714-4.924c0.6-0.399,1.185-0.353,1.755,0.144c0.985,3.459-8.393,0.971-7.017-5.793
				c1.246-6.112,5.414-9.216,11.354-9.505C416.146,85.901,416.927,92.502,418.718,90.891"/>
		</g>
		<path fill="#56C4C4" d="M253.939,193.371c1.927,0,3.479,1.551,3.479,3.479c0,1.927-1.553,3.478-3.479,3.478
			c-1.928,0-3.479-1.551-3.479-3.478C250.461,194.922,252.012,193.371,253.939,193.371"/>
		<g>
			<path fill="#2A403C" d="M3.007,4.871h5.982V55.3H3.007V4.871z"/>
			<path fill="#2A403C" d="M20.527,29.872c0-3.063-0.285-5.698-0.285-7.906h5.271c0,1.78,0.143,3.632,0.143,5.484h0.143
				c1.496-3.276,5.627-6.339,11.111-6.339c8.762,0,12.68,5.556,12.68,13.604V55.3h-5.557V35.285c0-5.556-2.422-9.046-7.621-9.046
				c-7.194,0-10.328,5.2-10.328,12.821V55.3h-5.556V29.872z"/>
			<path fill="#2A403C" d="M78.362,26.667h-9.83v16.667c0,4.273,0.072,7.692,4.986,7.692c1.639,0,3.419-0.356,4.915-1.14
				l0.214,5.058c-1.924,0.854-4.416,1.211-6.482,1.211c-7.906,0-9.188-4.274-9.188-11.183V26.667h-7.266v-4.701h7.266v-9.474h5.555
				v9.474h9.83V26.667z"/>
			<path fill="#2A403C" d="M114.972,49.246c-3.918,5.057-8.619,6.909-14.815,6.909c-10.471,0-16.882-7.835-16.882-17.522
				c0-10.328,7.266-17.522,17.096-17.522c9.402,0,15.813,6.411,15.813,17.451v1.781H89.259c0.427,5.77,4.843,10.684,10.897,10.684
				c4.772,0,7.978-1.709,10.612-5.057L114.972,49.246z M110.199,35.642c-0.214-5.627-3.917-9.402-10.043-9.402
				s-10.187,3.775-10.897,9.402H110.199z"/>
			<path fill="#2A403C" d="M124.8,29.872c0-3.063-0.285-5.698-0.285-7.906h5.271c0,1.78,0.143,3.632,0.143,5.484h0.143
				c1.495-3.276,5.627-6.339,11.111-6.339c0.712,0,1.495,0.071,2.279,0.356l-0.356,5.627c-0.926-0.285-1.994-0.427-2.991-0.427
				c-6.767,0-9.759,4.772-9.759,12.394V55.3H124.8V29.872z"/>
			<path fill="#2A403C" d="M149.442,26.239c3.419-3.49,8.404-5.128,13.248-5.128c9.83,0,13.961,4.701,13.961,14.103v14.317
				c0,1.923,0.213,4.06,0.498,5.77h-5.342c-0.355-1.496-0.355-3.562-0.355-4.986h-0.143c-2.209,3.419-5.912,5.841-10.97,5.841
				c-6.767,0-12.394-3.419-12.394-9.901c0-11.041,12.821-11.682,21.012-11.682h2.138v-0.997c0-4.843-3.063-7.336-8.263-7.336
				c-3.562,0-7.266,1.211-9.9,3.633L149.442,26.239z M165.54,39.274c-7.052,0-11.61,1.923-11.61,6.411
				c0,4.202,3.134,5.77,7.337,5.77c6.41,0,9.687-4.63,9.829-10.043v-2.137H165.54z"/>
			<path fill="#2A403C" d="M210.554,30.299c-2.351-2.849-5.057-4.06-8.404-4.06c-7.479,0-11.254,5.556-11.254,12.394
				s4.486,12.394,11.254,12.394c3.632,0,6.41-1.282,8.476-4.131l4.132,3.917c-3.206,3.704-7.765,5.342-12.607,5.342
				c-10.328,0-17.238-7.266-17.238-17.522c0-10.114,6.98-17.522,17.238-17.522c4.914,0,9.473,1.638,12.82,5.271L210.554,30.299z"/>
			<path fill="#2A403C" d="M239.399,26.667h-9.83v16.667c0,4.273,0.072,7.692,4.986,7.692c1.639,0,3.419-0.356,4.915-1.14
				l0.214,5.058c-1.924,0.854-4.417,1.211-6.482,1.211c-7.906,0-9.188-4.274-9.188-11.183V26.667h-7.266v-4.701h7.266v-9.474h5.555
				v9.474h9.83V26.667z"/>
			<path fill="#2A403C" d="M249.512,4.871c2.279,0,4.06,1.852,4.06,4.06c0,2.351-1.71,4.06-4.06,4.06
				c-2.351,0-4.061-1.709-4.061-4.06C245.451,6.723,247.232,4.871,249.512,4.871z M246.733,21.966h5.556V55.3h-5.556V21.966z"/>
			<path fill="#2A403C" d="M279.212,21.111c10.257,0,17.808,7.123,17.808,17.522s-7.551,17.522-17.808,17.522
				s-17.807-7.123-17.807-17.522S268.955,21.111,279.212,21.111z M279.212,51.026c7.194,0,11.824-5.413,11.824-12.394
				s-4.63-12.394-11.824-12.394c-7.193,0-11.823,5.413-11.823,12.394S272.019,51.026,279.212,51.026z"/>
			<path fill="#2A403C" d="M305.635,29.872c0-3.063-0.284-5.698-0.284-7.906h5.271c0,1.78,0.143,3.632,0.143,5.484h0.143
				c1.495-3.276,5.627-6.339,11.111-6.339c8.761,0,12.679,5.556,12.679,13.604V55.3h-5.556V35.285c0-5.556-2.422-9.046-7.622-9.046
				c-7.193,0-10.327,5.2-10.327,12.821V55.3h-5.557V29.872z"/>
		</g>
		<g>
			<path fill="#56C4C4" d="M401.418,71.906h-8.531V10.969h-0.203l-12.898,10.867l-5.078-6.195L394.004,0h7.414V71.906z"/>
			<path fill="#56C4C4" d="M454.028,47.531h10.359v7.922h-10.359v16.453h-8.531V55.453h-30.469v-9.445L443.567,0h10.461V47.531z
				 M445.497,9.953h-0.203l-22.953,37.578h23.156V9.953z"/>
		</g>
		<g>
			<path fill="#2A403C" d="M21.451,76.426c-1.556-2.5-4.335-3.612-7.169-3.612c-4.112,0-8.392,1.945-8.392,6.613
				c0,3.612,2.001,5.224,8.28,7.225c6.113,1.945,11.781,3.945,11.781,11.67c0,7.836-6.725,11.504-13.838,11.504
				c-4.557,0-9.447-1.501-12.114-5.446l4.001-3.279c1.668,2.89,5.002,4.39,8.392,4.39c4.001,0,8.558-2.334,8.558-6.835
				c0-4.834-3.278-5.668-10.28-8.002c-5.558-1.834-9.78-4.279-9.78-10.836c0-7.558,6.502-11.337,13.393-11.337
				c4.391,0,8.113,1.223,11.004,4.613L21.451,76.426z"/>
			<path fill="#2A403C" d="M44.85,82.15c8.003,0,13.894,5.557,13.894,13.671s-5.891,13.671-13.894,13.671
				s-13.894-5.558-13.894-13.671S36.847,82.15,44.85,82.15z M44.85,105.49c5.612,0,9.226-4.224,9.226-9.669
				c0-5.446-3.613-9.669-9.226-9.669s-9.226,4.223-9.226,9.669C35.624,101.267,39.237,105.49,44.85,105.49z"/>
			<path fill="#2A403C" d="M87.699,102.656c0,2.39,0.222,4.445,0.222,6.168H83.81c0-1.389-0.111-2.834-0.111-4.279h-0.111
				c-1.168,2.556-4.391,4.947-8.67,4.947c-6.835,0-9.892-4.336-9.892-10.615V82.817h4.335v15.616c0,4.334,1.889,7.058,5.945,7.058
				c5.613,0,8.059-4.057,8.059-10.003v-12.67h4.335V102.656z"/>
			<path fill="#2A403C" d="M109.708,86.484h-7.668v13.004c0,3.334,0.055,6.002,3.89,6.002c1.278,0,2.667-0.277,3.835-0.889
				l0.166,3.946c-1.5,0.667-3.445,0.945-5.057,0.945c-6.169,0-7.169-3.335-7.169-8.726V86.484h-5.669v-3.667h5.669v-7.391h4.335
				v7.391h7.668V86.484z"/>
			<path fill="#2A403C" d="M114.601,66.812h4.334v19.617h0.111c1.167-2.056,4.279-4.279,8.336-4.279
				c6.836,0,9.893,4.334,9.893,10.614v16.06h-4.336V93.209c0-4.335-1.889-7.058-5.945-7.058c-5.613,0-8.059,4.057-8.059,10.003
				v12.67h-4.334V66.812z"/>
			<path fill="#2A403C" d="M173.622,69.479h4.391l16.728,39.345h-5.446l-4.001-9.669H165.62l-4.057,9.669h-5.279L173.622,69.479z
				 M175.734,75.481h-0.11l-8.17,19.339h16.061L175.734,75.481z"/>
			<path fill="#2A403C" d="M198.745,88.985c0-2.39-0.223-4.446-0.223-6.168h4.112c0,1.389,0.111,2.834,0.111,4.279h0.11
				c1.168-2.556,4.391-4.946,8.67-4.946c5.613,0,7.391,3.167,8.225,4.946c1.89-3.056,4.279-4.946,8.225-4.946
				c7.447,0,9.893,4.168,9.893,10.892v15.782h-4.335v-15.56c0-3.612-1.278-7.113-6.335-7.113c-3.668,0-6.725,3-6.725,7.669v15.004
				h-4.335V94.098c0-5.724-1.444-7.947-5.001-7.947c-5.613,0-8.059,4.057-8.059,10.003v12.67h-4.334V88.985z"/>
			<path fill="#2A403C" d="M268.881,104.101c-3.057,3.946-6.725,5.391-11.56,5.391c-8.169,0-13.17-6.114-13.17-13.671
				c0-8.058,5.668-13.671,13.337-13.671c7.336,0,12.337,5.001,12.337,13.615v1.389h-21.006c0.333,4.501,3.778,8.336,8.502,8.336
				c3.724,0,6.225-1.333,8.28-3.945L268.881,104.101z M265.157,93.487c-0.167-4.39-3.057-7.335-7.836-7.335
				s-7.946,2.945-8.502,7.335H265.157z"/>
			<path fill="#2A403C" d="M276.108,88.985c0-2.39-0.223-4.446-0.223-6.168h4.112c0,1.389,0.111,2.834,0.111,4.279h0.111
				c1.167-2.556,4.391-4.946,8.67-4.946c0.556,0,1.167,0.056,1.777,0.278l-0.277,4.39c-0.723-0.222-1.556-0.333-2.334-0.333
				c-5.279,0-7.613,3.724-7.613,9.67v12.67h-4.335V88.985z"/>
			<path fill="#2A403C" d="M297.783,69.479c1.778,0,3.167,1.445,3.167,3.167c0,1.834-1.333,3.167-3.167,3.167
				s-3.168-1.333-3.168-3.167C294.615,70.924,296.005,69.479,297.783,69.479z M295.615,82.817h4.335v26.007h-4.335V82.817z"/>
			<path fill="#2A403C" d="M326.626,89.319c-1.834-2.223-3.946-3.167-6.558-3.167c-5.835,0-8.78,4.334-8.78,9.669
				s3.501,9.669,8.78,9.669c2.834,0,5.001-1,6.613-3.223l3.223,3.057c-2.5,2.889-6.057,4.168-9.836,4.168
				c-8.059,0-13.448-5.669-13.448-13.671c0-7.891,5.445-13.671,13.448-13.671c3.834,0,7.391,1.278,10.003,4.112L326.626,89.319z"/>
			<path fill="#2A403C" d="M334.131,86.151c2.667-2.723,6.558-4.001,10.336-4.001c7.669,0,10.893,3.668,10.893,11.003v11.17
				c0,1.501,0.167,3.168,0.389,4.501h-4.168c-0.277-1.166-0.277-2.778-0.277-3.89h-0.111c-1.723,2.667-4.612,4.558-8.559,4.558
				c-5.279,0-9.669-2.668-9.669-7.725c0-8.614,10.003-9.114,16.394-9.114h1.667v-0.778c0-3.779-2.39-5.724-6.446-5.724
				c-2.778,0-5.668,0.944-7.725,2.834L334.131,86.151z M346.689,96.321c-5.501,0-9.058,1.5-9.058,5.001
				c0,3.279,2.445,4.502,5.724,4.502c5.002,0,7.558-3.613,7.669-7.836v-1.667H346.689z"/>
		</g>
		<g>
			<path fill="#56C4C4" d="M1.672,188.837h5.21c3.227,0,6.154,1.142,6.154,4.813c0,3.846-3.275,4.863-5.757,4.863H3.757v7.889H1.672
				V188.837z M3.757,196.578h3.522c2.084,0,3.523-0.943,3.523-2.903s-1.439-2.903-3.523-2.903H3.757V196.578z"/>
			<path fill="#56C4C4" d="M31.744,199.704c0,3.821-1.786,7.146-6.624,7.146s-6.625-3.324-6.625-7.146v-10.867h2.084v10.569
				c0,2.828,1.042,5.508,4.541,5.508c3.498,0,4.54-2.68,4.54-5.508v-10.569h2.084V199.704z"/>
			<path fill="#56C4C4" d="M38.221,188.837h11.041v1.935h-8.956v5.509h8.361v1.935h-8.361v6.253h9.402v1.935H38.221V188.837z"/>
			<path fill="#56C4C4" d="M55.118,188.837h4.491c3.399,0,6.997,0.496,6.997,4.838c0,2.556-1.663,4.218-4.393,4.64l4.987,8.088
				h-2.556l-4.764-7.889h-2.68v7.889h-2.084V188.837z M57.202,196.578h1.861c2.307,0,5.31,0,5.31-2.903
				c0-2.53-2.208-2.903-4.243-2.903h-2.928V196.578z"/>
			<path fill="#56C4C4" d="M83.802,190.771h-5.807v15.631h-2.084v-15.631h-5.805v-1.935h13.695V190.771z"/>
			<path fill="#56C4C4" d="M87.425,197.619c0-5.309,3.846-9.229,9.18-9.229c5.335,0,9.18,3.92,9.18,9.229
				c0,5.311-3.845,9.23-9.18,9.23C91.271,206.85,87.425,202.93,87.425,197.619z M103.552,197.619c0-4.043-2.828-7.294-6.947-7.294
				c-4.118,0-6.947,3.251-6.947,7.294c0,4.045,2.829,7.295,6.947,7.295C100.724,204.914,103.552,201.664,103.552,197.619z"/>
			<path fill="#56C4C4" d="M120.401,188.837h3.102l5.954,13.771h0.05l6.004-13.771h3.027v17.565h-2.084v-14.737h-0.05l-6.302,14.737
				h-1.266l-6.303-14.737h-0.049v14.737h-2.084V188.837z"/>
			<path fill="#56C4C4" d="M150.796,188.837h1.961l7.468,17.565h-2.432l-1.786-4.316h-8.783l-1.811,4.316h-2.357L150.796,188.837z
				 M151.739,191.517h-0.049l-3.648,8.634h7.171L151.739,191.517z"/>
			<path fill="#56C4C4" d="M164.419,188.837h6.749c3.448,0,8.609,2.308,8.609,8.782c0,6.477-5.161,8.783-8.609,8.783h-6.749V188.837
				z M166.503,204.468h3.971c4.02,0,7.07-2.034,7.07-6.849c0-4.813-3.051-6.848-7.07-6.848h-3.971V204.468z"/>
			<path fill="#56C4C4" d="M185.312,188.837h11.041v1.935h-8.957v5.509h8.361v1.935h-8.361v6.253h9.404v1.935h-11.488V188.837z"/>
			<path fill="#56C4C4" d="M202.209,188.837h4.491c3.398,0,6.996,0.496,6.996,4.838c0,2.556-1.662,4.218-4.391,4.64l4.986,8.088
				h-2.556l-4.764-7.889h-2.679v7.889h-2.085V188.837z M204.294,196.578h1.86c2.308,0,5.31,0,5.31-2.903
				c0-2.53-2.209-2.903-4.242-2.903h-2.928V196.578z"/>
			<path fill="#56C4C4" d="M218.536,197.619c0-5.309,3.846-9.229,9.18-9.229s9.18,3.92,9.18,9.229c0,5.311-3.846,9.23-9.18,9.23
				S218.536,202.93,218.536,197.619z M234.663,197.619c0-4.043-2.828-7.294-6.947-7.294s-6.947,3.251-6.947,7.294
				c0,4.045,2.828,7.295,6.947,7.295S234.663,201.664,234.663,197.619z"/>
		</g>
		<g>
			<path fill="#56C4C4" d="M274.429,188.837h5.358c2.903,0,5.831,1.092,5.831,4.317c0,2.034-1.191,3.398-3.076,3.969v0.051
				c2.258,0.197,3.97,2.01,3.97,4.316c0,3.871-3.598,4.912-6.849,4.912h-5.234V188.837z M276.513,196.28h2.878
				c1.96,0,3.994-0.422,3.994-2.854c0-2.159-1.885-2.655-3.771-2.655h-3.102V196.28z M276.513,204.468h3.523
				c2.034,0,4.242-0.819,4.242-3.052c0-2.457-2.084-3.201-4.193-3.201h-3.572V204.468z"/>
			<path fill="#56C4C4" d="M305.418,199.704c0,3.821-1.786,7.146-6.624,7.146s-6.624-3.324-6.624-7.146v-10.867h2.084v10.569
				c0,2.828,1.042,5.508,4.54,5.508s4.54-2.68,4.54-5.508v-10.569h2.084V199.704z"/>
			<path fill="#56C4C4" d="M311.896,188.837h11.041v1.935h-8.957v5.509h8.361v1.935h-8.361v6.253h9.403v1.935h-11.487V188.837z"/>
			<path fill="#56C4C4" d="M328.793,188.837h2.63l10.172,14.589h0.05v-14.589h2.084v17.565h-2.63l-10.172-14.588h-0.05v14.588
				h-2.084V188.837z"/>
			<path fill="#56C4C4" d="M349.264,197.619c0-5.309,3.846-9.229,9.18-9.229c5.335,0,9.181,3.92,9.181,9.229
				c0,5.311-3.846,9.23-9.181,9.23C353.109,206.85,349.264,202.93,349.264,197.619z M365.391,197.619
				c0-4.043-2.828-7.294-6.947-7.294c-4.118,0-6.946,3.251-6.946,7.294c0,4.045,2.828,7.295,6.946,7.295
				C362.563,204.914,365.391,201.664,365.391,197.619z"/>
			<path fill="#56C4C4" d="M381.495,191.938c-0.694-1.115-1.935-1.612-3.2-1.612c-1.836,0-3.746,0.868-3.746,2.952
				c0,1.613,0.893,2.333,3.696,3.227c2.729,0.867,5.26,1.761,5.26,5.209c0,3.499-3.002,5.137-6.178,5.137
				c-2.034,0-4.218-0.67-5.409-2.432l1.787-1.464c0.744,1.29,2.232,1.96,3.746,1.96c1.786,0,3.821-1.042,3.821-3.052
				c0-2.158-1.464-2.53-4.591-3.573c-2.48-0.818-4.366-1.91-4.366-4.838c0-3.374,2.902-5.061,5.979-5.061
				c1.96,0,3.622,0.545,4.912,2.059L381.495,191.938z"/>
			<path fill="#56C4C4" d="M403.926,188.837h1.96l7.469,17.565h-2.432l-1.786-4.316h-8.783l-1.812,4.316h-2.357L403.926,188.837z
				 M404.869,191.517h-0.05l-3.647,8.634h7.17L404.869,191.517z"/>
			<path fill="#56C4C4" d="M417.872,188.837h2.084v17.565h-2.084V188.837z"/>
			<path fill="#56C4C4" d="M426.507,188.837h4.49c3.399,0,6.997,0.496,6.997,4.838c0,2.556-1.662,4.218-4.392,4.64l4.987,8.088
				h-2.556l-4.764-7.889h-2.68v7.889h-2.084V188.837z M428.591,196.578h1.86c2.308,0,5.31,0,5.31-2.903
				c0-2.53-2.208-2.903-4.242-2.903h-2.928V196.578z"/>
			<path fill="#56C4C4" d="M443.851,188.837h11.041v1.935h-8.957v5.509h8.361v1.935h-8.361v6.253h9.403v1.935h-11.487V188.837z"/>
			<path fill="#56C4C4" d="M469.084,191.938c-0.694-1.115-1.935-1.612-3.2-1.612c-1.836,0-3.747,0.868-3.747,2.952
				c0,1.613,0.894,2.333,3.697,3.227c2.729,0.867,5.26,1.761,5.26,5.209c0,3.499-3.002,5.137-6.178,5.137
				c-2.034,0-4.218-0.67-5.409-2.432l1.787-1.464c0.744,1.29,2.232,1.96,3.746,1.96c1.786,0,3.821-1.042,3.821-3.052
				c0-2.158-1.464-2.53-4.591-3.573c-2.48-0.818-4.366-1.91-4.366-4.838c0-3.374,2.902-5.061,5.979-5.061
				c1.96,0,3.622,0.545,4.912,2.059L469.084,191.938z"/>
		</g>
	</g>
</g>
</svg>
