<?xml version="1.0" encoding="utf-8"?>
<!-- Generator: Adobe Illustrator 16.0.0, SVG Export Plug-In . SVG Version: 6.00 Build 0)  -->
<!DOCTYPE svg PUBLIC "-//W3C//DTD SVG 1.1//EN" "http://www.w3.org/Graphics/SVG/1.1/DTD/svg11.dtd">
<svg version="1.1" id="Capa_1" xmlns="http://www.w3.org/2000/svg" xmlns:xlink="http://www.w3.org/1999/xlink" x="0px" y="0px"
	 width="67.335px" height="28px" viewBox="0 0 67.335 28" enable-background="new 0 0 67.335 28" xml:space="preserve">
<g>
	<g>
		<path fill="#FFFFFF" d="M0.324,24.969h1.107c0.555,0,0.846,0.33,0.846,0.795c0,0.252-0.091,0.49-0.419,0.644v0.008
			C2.169,26.491,2.32,26.8,2.32,27.104c0,0.519-0.363,0.847-0.796,0.847h-1.2V24.969z M0.757,25.369v0.854h0.625
			c0.313,0,0.458-0.188,0.458-0.428c0-0.229-0.145-0.426-0.458-0.426H0.757z M0.757,26.627v0.895h0.667
			c0.316,0,0.46-0.215,0.46-0.446c0-0.238-0.144-0.447-0.46-0.447L0.757,26.627L0.757,26.627z"/>
		<path fill="#FFFFFF" d="M6.458,24.969H6.89v1.92c0,0.41,0.253,0.633,0.583,0.633c0.331,0,0.581-0.223,0.581-0.633v-1.92h0.434
			v1.971c0,0.617-0.452,1.031-1.015,1.031c-0.564,0-1.015-0.414-1.015-1.031V24.969z"/>
		<path fill="#FFFFFF" d="M12.773,24.969h1.824v0.424h-1.392v0.854h1.188v0.399h-1.188v0.875h1.392v0.429h-1.824V24.969z"/>
		<path fill="#FFFFFF" d="M18.745,24.969h0.41l1.288,2.117h0.011v-2.117h0.431v2.98h-0.407l-1.294-2.119h-0.009v2.119h-0.431
			L18.745,24.969L18.745,24.969z"/>
		<path fill="#FFFFFF" d="M25.254,25.477c0.136-0.26,0.447-0.535,0.893-0.535c0.451,0,0.762,0.275,0.896,0.535
			c0.092,0.178,0.125,0.267,0.125,0.979c0,0.719-0.033,0.808-0.125,0.981c-0.133,0.261-0.444,0.533-0.896,0.533
			c-0.446,0-0.757-0.272-0.893-0.533c-0.092-0.176-0.124-0.264-0.124-0.981C25.13,25.742,25.162,25.654,25.254,25.477z
			 M25.705,27.305c0.09,0.117,0.239,0.217,0.442,0.217c0.202,0,0.354-0.1,0.442-0.217c0.113-0.15,0.144-0.234,0.144-0.85
			c0-0.611-0.031-0.693-0.144-0.844c-0.088-0.117-0.24-0.219-0.442-0.219c-0.203,0-0.352,0.102-0.442,0.219
			c-0.108,0.149-0.145,0.231-0.145,0.844C25.561,27.07,25.597,27.154,25.705,27.305z"/>
		<path fill="#FFFFFF" d="M31.45,27.223c0.217,0.185,0.506,0.299,0.808,0.299c0.354,0,0.566-0.168,0.566-0.414
			c0-0.209-0.118-0.371-0.372-0.401c-0.129-0.017-0.23-0.033-0.379-0.054c-0.492-0.073-0.758-0.405-0.758-0.84
			c0-0.51,0.343-0.871,0.934-0.871c0.348,0,0.663,0.132,0.922,0.308l-0.241,0.375c-0.207-0.138-0.45-0.229-0.706-0.229
			c-0.258,0-0.475,0.145-0.475,0.43c0,0.164,0.116,0.332,0.403,0.377c0.081,0.016,0.187,0.033,0.327,0.049
			c0.524,0.066,0.777,0.453,0.777,0.859c0,0.549-0.39,0.863-1.004,0.863c-0.419,0-0.787-0.134-1.086-0.406L31.45,27.223z"/>
		<path fill="#FFFFFF" d="M43.621,27.281h-1.082l-0.221,0.668h-0.457l1.039-2.98h0.36l1.037,2.98h-0.455L43.621,27.281z
			 M43.496,26.879l-0.41-1.301h-0.012l-0.412,1.301H43.496z"/>
		<path fill="#FFFFFF" d="M48.342,24.969h0.434v2.98h-0.434V24.969z"/>
		<path fill="#FFFFFF" d="M53.119,24.969h1.115c0.236,0,0.428,0.055,0.582,0.193c0.156,0.145,0.283,0.369,0.283,0.637
			c0,0.387-0.209,0.701-0.554,0.828l0.66,1.322h-0.515l-0.586-1.275h-0.557v1.275h-0.432v-2.98H53.119z M53.551,26.271h0.652
			c0.328,0,0.488-0.222,0.488-0.474c0-0.153-0.058-0.271-0.146-0.336c-0.082-0.067-0.168-0.094-0.321-0.094H53.55L53.551,26.271
			L53.551,26.271z"/>
		<path fill="#FFFFFF" d="M59.305,24.969h1.824v0.424h-1.391v0.854h1.188v0.399h-1.188v0.875h1.391v0.429h-1.824V24.969z"/>
		<path fill="#FFFFFF" d="M65.311,27.223c0.215,0.185,0.502,0.299,0.812,0.299c0.353,0,0.563-0.168,0.563-0.414
			c0-0.209-0.117-0.371-0.375-0.401c-0.127-0.017-0.229-0.033-0.379-0.054c-0.492-0.073-0.756-0.405-0.756-0.84
			c0-0.51,0.342-0.871,0.932-0.871c0.353,0,0.668,0.132,0.922,0.308l-0.235,0.375c-0.209-0.138-0.453-0.229-0.705-0.229
			c-0.262,0-0.478,0.145-0.478,0.43c0,0.164,0.115,0.332,0.402,0.377c0.076,0.016,0.187,0.033,0.32,0.049
			c0.531,0.066,0.783,0.453,0.783,0.859c0,0.549-0.389,0.863-1,0.863c-0.42,0-0.791-0.134-1.092-0.406L65.311,27.223z"/>
	</g>
	<g>
		<path fill="#FFFFFF" d="M0.162,0.411h3.184V21.4H0.162V0.411z"/>
		<path fill="#FFFFFF" d="M32.285,0.411h7.35c2.77,0,5.037,1.238,6.396,3.538c1.027,1.768,1.115,2.566,1.115,6.959
			c0,4.717-0.232,5.543-1.176,7.014c-1.24,1.947-3.421,3.479-6.548,3.479h-7.139L32.285,0.411L32.285,0.411z M35.478,18.398h3.797
			c1.799,0,3.07-0.617,3.895-1.832c0.711-1.06,0.799-1.65,0.799-5.542c0-3.775-0.088-4.688-0.943-5.84
			c-0.977-1.329-2.041-1.768-3.75-1.768h-3.796L35.478,18.398L35.478,18.398z"/>
		<path fill="#FFFFFF" d="M62.346,16.713h-7.953L52.764,21.4h-3.361l7.642-20.99h2.651l7.64,20.99h-3.358L62.346,16.713z
			 M61.432,13.883L58.4,4.713h-0.063l-3.041,9.17H61.432z"/>
		<g>
			<g>
				<g>
					<path fill="#FFFFFF" d="M18.178,4.607c-0.18,0.181-0.483,0.181-0.659,0l-1.898-1.894c-0.176-0.176-0.176-0.478,0-0.656
						l1.898-1.892c0.176-0.18,0.479-0.18,0.659,0l1.892,1.892c0.178,0.179,0.178,0.48,0,0.656L18.178,4.607z"/>
				</g>
			</g>
			<g>
				<path fill="#FFFFFF" d="M8.555,5.532c0,0.034,0,0.074,0,0.108V5.532z"/>
				<path fill="#FFFFFF" d="M11.188,21.404c0.073,0,0.14,0,0.208,0H11.188z"/>
				<path fill="#FFFFFF" d="M23.999,2.907c0.013-0.006,0.017-0.013,0.02-0.018C24.018,2.894,24.011,2.9,23.999,2.907z"/>
				<path fill="#FFFFFF" d="M24.163,2.844L24.163,2.844L24.163,2.844z"/>
				<path fill="#FFFFFF" d="M11.576,21.379c-0.031,0.01-0.058,0.018-0.089,0.021C11.518,21.396,11.545,21.389,11.576,21.379z"/>
				<path fill="#FFFFFF" d="M8.573,5.78c0,0.009,0.002,0.018,0.002,0.027C8.575,5.797,8.573,5.789,8.573,5.78z"/>
				<path fill="#FFFFFF" d="M8.555,18.553c0,0.062,0,0.135,0,0.207V18.553z"/>
				<path fill="#FFFFFF" d="M24.073,21.369c0.049,0.02,0.101,0.031,0.156,0.031C24.174,21.4,24.122,21.393,24.073,21.369z"/>
				<path fill="#FFFFFF" d="M11.775,21.275c-0.037,0.031-0.081,0.059-0.127,0.084C11.694,21.338,11.734,21.311,11.775,21.275z"/>
				<path fill="#FFFFFF" d="M27.135,18.525v0.252C27.135,18.682,27.135,18.602,27.135,18.525z"/>
				<path fill="#FFFFFF" d="M24.505,21.404h-0.237C24.341,21.408,24.425,21.404,24.505,21.404z"/>
				<path fill="#FFFFFF" d="M23.779,20.943v-2.437c0-0.252,0.203-0.459,0.46-0.459h2.44c0.18,0,0.347,0.119,0.421,0.281
					c-0.025-0.056-0.054-0.106-0.11-0.162l-5.719-5.722c-0.179-0.182-0.179-0.479,0-0.659l5.678-5.68
					c0.011-0.011,0.021-0.032,0.033-0.046c-0.082,0.075-0.188,0.123-0.303,0.123h-2.44c-0.257,0-0.46-0.206-0.46-0.458v-2.44
					c0-0.119,0.047-0.23,0.126-0.313c-0.005,0.011-0.018,0.014-0.027,0.021l-5.703,5.698c-0.178,0.183-0.48,0.183-0.656,0L11.81,3
					c-0.004-0.007-0.009-0.011-0.013-0.011c0.072,0.081,0.118,0.181,0.118,0.297v2.44c0,0.252-0.208,0.458-0.458,0.458H9.019
					c-0.117,0-0.226-0.048-0.311-0.125c0.009,0.005,0.009,0.009,0.014,0.014l5.697,5.714c0.183,0.181,0.183,0.478,0,0.659
					l-5.716,5.718c-0.05,0.051-0.081,0.104-0.104,0.158c0.07-0.158,0.232-0.273,0.419-0.273h2.438c0.25,0,0.458,0.207,0.458,0.459
					v2.436c0,0.13-0.05,0.246-0.135,0.328c0.009-0.01,0.018-0.01,0.026-0.02l5.714-5.709c0.176-0.184,0.479-0.184,0.656,0
					l5.721,5.713c0.054,0.055,0.102,0.086,0.162,0.109C23.896,21.293,23.779,21.137,23.779,20.943z"/>
				<path fill="#FFFFFF" d="M27.101,18.33c0.022,0.055,0.034,0.111,0.034,0.172C27.129,18.443,27.121,18.387,27.101,18.33z"/>
				<path fill="#FFFFFF" d="M8.588,18.357c-0.013,0.043-0.02,0.086-0.024,0.135C8.564,18.443,8.575,18.4,8.588,18.357z"/>
			</g>
			<g>
				<g>
					<path fill="#FFFFFF" d="M11.457,2.828H9.019c-0.253,0-0.464,0.205-0.464,0.458v2.44c0,0.252,0.211,0.458,0.464,0.458h2.438
						c0.25,0,0.458-0.206,0.458-0.458v-2.44C11.915,3.033,11.707,2.828,11.457,2.828z"/>
				</g>
				<g>
					<path fill="#FFFFFF" d="M26.679,2.828h-2.44c-0.257,0-0.46,0.205-0.46,0.458v2.44c0,0.252,0.203,0.458,0.46,0.458h2.44
						c0.25,0,0.456-0.206,0.456-0.458v-2.44C27.135,3.033,26.929,2.828,26.679,2.828z"/>
				</g>
				<g>
					<path fill="#FFFFFF" d="M11.457,18.049H9.019c-0.253,0-0.464,0.207-0.464,0.459v2.436c0,0.255,0.211,0.461,0.464,0.461h2.438
						c0.25,0,0.458-0.206,0.458-0.461v-2.436C11.915,18.256,11.707,18.049,11.457,18.049z"/>
				</g>
				<g>
					<path fill="#FFFFFF" d="M26.679,18.049h-2.44c-0.257,0-0.46,0.207-0.46,0.459v2.436c0,0.255,0.203,0.461,0.46,0.461h2.44
						c0.25,0,0.456-0.206,0.456-0.461v-2.436C27.135,18.256,26.929,18.049,26.679,18.049z"/>
				</g>
			</g>
		</g>
	</g>
</g>
</svg>
