<?xml version="1.0" encoding="utf-8"?>
<!-- Generator: Adobe Illustrator 16.0.0, SVG Export Plug-In . SVG Version: 6.00 Build 0)  -->
<!DOCTYPE svg PUBLIC "-//W3C//DTD SVG 1.1//EN" "http://www.w3.org/Graphics/SVG/1.1/DTD/svg11.dtd">
<svg version="1.1" id="Capa_1" xmlns="http://www.w3.org/2000/svg" xmlns:xlink="http://www.w3.org/1999/xlink" x="0px" y="0px"
	 width="103.574px" height="48.053px" viewBox="0 0 103.574 48.053" enable-background="new 0 0 103.574 48.053"
	 xml:space="preserve">
<g>
	<g>
		<path fill="#FFFFFF" d="M46.086,36.203c-0.145,0.047-0.256,0.068-0.357,0.068c-0.303,0-0.49-0.446-0.75-1.386
			c-0.637,0.562-1.742,1.386-3.601,1.386c-1.293,0-3.06-0.589-3.06-3.435V24.74c0-0.33,0.167-0.351,0.452-0.425l1.969-0.396
			c0.074,0,0.312-0.071,0.383-0.071c0.137,0,0.182,0.092,0.182,0.497v7.481c0,0.895,0.123,1.975,1.319,1.975
			c0.994,0,1.768-0.518,2.07-0.729V24.74c0-0.33,0.166-0.351,0.451-0.425l1.975-0.396c0.072,0,0.305-0.071,0.398-0.071
			c0.119,0,0.168,0.092,0.168,0.497v7.336c0,3.321,0.445,3.131,0.445,3.675c0,0.119-0.096,0.211-0.256,0.259L46.086,36.203z"/>
	</g>
	<g>
		<path fill="#FFFFFF" d="M64.055,39.958c0,0.333-0.164,0.375-0.443,0.425l-1.975,0.396c-0.07,0.027-0.285,0.071-0.404,0.071
			s-0.164-0.089-0.164-0.488V28.427c0-3.318-0.449-3.131-0.449-3.672c0-0.119,0.096-0.211,0.256-0.255l1.793-0.589
			c0.143-0.048,0.26-0.071,0.352-0.071c0.307,0,0.467,0.446,0.729,1.222c0.521-0.49,1.436-1.222,3.016-1.222
			c2.611,0,4.068,2.049,4.068,6c0,4.119-1.268,6.423-4.33,6.423c-1.361,0-1.951-0.348-2.447-0.612V39.958z M64.055,33.464
			c0.426,0.235,0.805,0.446,1.721,0.446c1.648,0,2.07-1.174,2.07-3.949c0-2.43-0.449-3.773-1.902-3.773
			c-0.994,0-1.559,0.591-1.889,0.901V33.464z"/>
		<path fill="#FFFFFF" d="M79.408,36.17c-0.096,0.023-0.209,0.092-0.311,0.092c-0.207,0-0.559-0.82-0.68-1.415
			c-0.469,0.476-1.291,1.415-3.061,1.415c-2.164,0-3.527-1.415-3.527-3.622c0-3.982,4.283-3.982,6.141-3.982v-0.723
			c0-1.062-0.189-1.748-1.674-1.748c-1.314,0-2.607,0.708-2.918,0.708c-0.111,0-0.207-0.14-0.236-0.232l-0.467-1.436
			c-0.049-0.095-0.074-0.188-0.074-0.283c0-0.541,2.334-1.106,4.145-1.106c2.941,0,4.047,1.341,4.047,3.791v4.541
			c0,2.281,0.615,2.587,0.615,3.057c0,0.095-0.098,0.164-0.217,0.214L79.408,36.17z M77.971,30.592c-0.586,0-3.32-0.188-3.32,1.882
			c0,0.919,0.66,1.597,1.555,1.597c0.871,0,1.484-0.606,1.766-0.892V30.592z"/>
	</g>
	<polygon fill="#FFFFFF" points="47.965,22.081 52.848,30.155 47.953,38.115 52.119,37.595 54.602,32.828 56.766,36.89 
		59.752,36.548 56.23,30.223 59.684,23.833 56.771,23.381 54.477,27.425 52.234,22.729 	"/>
	<polygon fill="#FFFFFF" points="15.576,12.578 24.301,18.055 28.487,6.708 20.227,0.053 	"/>
	<polygon fill="#FFFFFF" points="21.312,24.088 12.888,32.132 6.048,21.418 15.053,13.258 	"/>
	<g>
		<path fill="#FFFFFF" d="M64.705,19.491c0,0.779,0.037,0.886,0.148,1.231c0.049,0.146,0.221,0.381,0.221,0.455
			c0,0.051-0.064,0.071-0.113,0.098l-0.475,0.294c-0.049,0.027-0.078,0.036-0.102,0.036c-0.184,0-0.41-0.651-0.471-0.818
			c-0.148,0.131-0.748,0.818-1.771,0.818c-0.969,0-1.594-0.639-1.594-1.733c0-2.079,2.459-2.117,3.217-2.141v-0.443
			c0-0.71-0.219-1.106-1.092-1.106c-0.822,0-1.389,0.396-1.5,0.396c-0.039,0-0.072-0.024-0.09-0.063l-0.158-0.431
			c-0.02-0.063-0.035-0.098-0.035-0.158c0-0.214,1.131-0.568,1.92-0.568c1.414,0,1.895,0.687,1.895,1.725V19.491z M63.766,18.492
			c-0.535,0.015-2.295,0.015-2.295,1.305c0,0.494,0.268,1.05,0.898,1.05c0.639,0,1.203-0.592,1.396-0.767V18.492z"/>
		<path fill="#FFFFFF" d="M67.289,21.287c0,0.098-0.051,0.149-0.145,0.149h-0.643c-0.098,0-0.148-0.051-0.148-0.149v-4.219
			c0-0.22-0.033-0.627-0.209-0.937c-0.102-0.169-0.137-0.268-0.137-0.306c0.012-0.074,0.066-0.113,0.086-0.125l0.459-0.279
			c0.047-0.036,0.098-0.063,0.125-0.063c0.219,0,0.424,0.761,0.479,1.032c0.314-0.345,0.762-1.032,1.475-1.032
			c0.285,0,0.602,0.098,0.602,0.208c0,0.027-0.025,0.063-0.037,0.098l-0.268,0.627c-0.012,0.027-0.025,0.083-0.076,0.083
			c-0.061,0-0.17-0.107-0.404-0.107c-0.436,0-0.863,0.64-1.158,0.958V21.287z"/>
		<path fill="#FFFFFF" d="M73.924,19.063c0,0.687,0.084,2.126,0.084,2.792c0,1.118-0.506,2.162-2.166,2.162
			c-0.922,0-2.068-0.417-2.068-0.648c0-0.063,0.018-0.086,0.053-0.161l0.193-0.422c0.016-0.036,0.045-0.071,0.086-0.071
			c0.102,0,0.842,0.479,1.689,0.479c1.143,0,1.279-0.663,1.279-1.326c0-0.619-0.037-1.118-0.037-1.267
			c-0.281,0.235-0.844,0.675-1.676,0.675c-1.119,0-1.898-0.984-1.898-2.721c0-1.93,0.756-3.197,2.32-3.197
			c0.811,0,1.291,0.404,1.451,0.529c0.109-0.309,0.244-0.529,0.357-0.529c0.047,0,0.082,0.012,0.109,0.027l0.557,0.342
			c0.047,0.036,0.047,0.048,0.047,0.071c0,0.101-0.109,0.164-0.223,0.458c-0.111,0.31-0.158,0.467-0.158,0.913V19.063z
			 M72.99,16.515c-0.209-0.101-0.643-0.333-1.137-0.333c-0.934,0-1.377,0.824-1.377,2.141c0,1.305,0.232,2.129,1.068,2.129
			c0.648,0,1.16-0.422,1.445-0.616V16.515z"/>
		<path fill="#FFFFFF" d="M79.473,20.868c0.012,0.039,0.039,0.063,0.039,0.098c0,0.137-1.033,0.639-1.941,0.639
			c-1.639-0.009-2.6-1.255-2.6-3.122c0-1.808,0.91-3.125,2.438-3.125c2.053,0,2.242,1.992,2.242,3.051c0,0.172,0,0.271-0.139,0.271
			h-3.529c0,0.75,0.297,2.108,1.697,2.108c0.799,0,1.439-0.508,1.514-0.508c0.035,0,0.047,0.036,0.07,0.071L79.473,20.868z
			 M78.641,17.915c0-0.639-0.215-1.796-1.285-1.796c-1.131,0-1.373,1.181-1.373,1.796H78.641z"/>
		<path fill="#FFFFFF" d="M85.063,21.287c0,0.098-0.047,0.149-0.148,0.149h-0.643c-0.094,0-0.145-0.051-0.145-0.149v-4.106
			c0-0.535-0.135-0.999-0.801-0.999c-0.797,0-1.314,0.479-1.623,0.752v4.353c0,0.098-0.047,0.149-0.148,0.149h-0.637
			c-0.102,0-0.148-0.051-0.148-0.149v-4.243c0-0.407,0-0.541-0.047-0.726c-0.102-0.369-0.203-0.455-0.203-0.521
			c0-0.023,0.018-0.047,0.063-0.086l0.557-0.307c0.023-0.015,0.059-0.047,0.094-0.047c0.227,0,0.375,0.74,0.387,0.835
			c0.404-0.318,1.041-0.835,1.975-0.835c1.369,0,1.469,0.96,1.469,1.847V21.287z"/>
		<path fill="#FFFFFF" d="M89.756,20.981c0.008,0.048,0.021,0.086,0.021,0.122c0,0.161-0.926,0.502-1.586,0.502
			c-0.531,0-0.969-0.193-1.16-0.428c-0.355-0.38-0.355-0.934-0.355-1.392v-3.494h-0.922c-0.084,0-0.084-0.083-0.084-0.146v-0.47
			c0-0.083,0-0.146,0.084-0.146h0.922v-1.686c0-0.074,0.053-0.122,0.137-0.151l0.654-0.179c0.031,0,0.059-0.012,0.082-0.012
			c0.061,0,0.061,0.06,0.061,0.131v1.897h1.822c0.078,0,0.139,0.012,0.139,0.086c0,0.027-0.018,0.047-0.018,0.083l-0.16,0.482
			c-0.021,0.063-0.082,0.11-0.158,0.11h-1.625v3.494c0,0.494,0,1.002,0.74,1.002c0.58,0,1.07-0.336,1.18-0.336
			c0.049,0,0.084,0.039,0.084,0.074L89.756,20.981z"/>
		<path fill="#FFFFFF" d="M91.932,21.287c0,0.098-0.051,0.149-0.148,0.149h-0.639c-0.098,0-0.152-0.051-0.152-0.149v-4.996h-0.957
			c-0.096,0-0.148-0.047-0.148-0.146v-0.47c0-0.098,0.053-0.146,0.148-0.146h1.73c0.141,0,0.166,0.074,0.166,0.182V21.287z
			 M91.402,14.115c-0.418,0-0.754-0.33-0.754-0.752c0-0.417,0.336-0.75,0.754-0.75c0.416,0,0.75,0.345,0.75,0.75
			C92.152,13.77,91.818,14.115,91.402,14.115z"/>
		<path fill="#FFFFFF" d="M97.996,21.287c0,0.098-0.045,0.149-0.146,0.149h-0.643c-0.094,0-0.148-0.051-0.148-0.149v-4.106
			c0-0.535-0.133-0.999-0.797-0.999c-0.799,0-1.314,0.479-1.623,0.752v4.353c0,0.098-0.049,0.149-0.148,0.149h-0.637
			c-0.102,0-0.152-0.051-0.152-0.149v-4.243c0-0.407,0-0.541-0.051-0.726c-0.098-0.369-0.193-0.455-0.193-0.521
			c0-0.023,0.012-0.047,0.063-0.086l0.555-0.307c0.023-0.015,0.059-0.047,0.094-0.047c0.223,0,0.369,0.74,0.387,0.835
			c0.404-0.318,1.041-0.835,1.98-0.835c1.365,0,1.461,0.96,1.461,1.847V21.287z"/>
		<path fill="#FFFFFF" d="M103.205,19.491c0,0.779,0.035,0.886,0.148,1.231c0.049,0.146,0.221,0.381,0.221,0.455
			c0,0.051-0.061,0.071-0.109,0.098l-0.482,0.294c-0.051,0.027-0.072,0.036-0.098,0.036c-0.182,0-0.402-0.651-0.465-0.818
			c-0.15,0.131-0.752,0.818-1.775,0.818c-0.973,0-1.6-0.639-1.6-1.733c0-2.079,2.463-2.117,3.225-2.141v-0.443
			c0-0.71-0.221-1.106-1.096-1.106c-0.826,0-1.385,0.396-1.502,0.396c-0.037,0-0.074-0.024-0.086-0.063l-0.16-0.431
			c-0.023-0.063-0.035-0.098-0.035-0.158c0-0.214,1.129-0.568,1.92-0.568c1.416,0,1.895,0.687,1.895,1.725V19.491z M102.27,18.492
			c-0.543,0.015-2.303,0.015-2.303,1.305c0,0.494,0.273,1.05,0.9,1.05c0.641,0,1.205-0.592,1.402-0.767V18.492z"/>
	</g>
	<path fill="#FFFFFF" d="M30.634,18.867"/>
	<polygon fill="#FFFFFF" points="30.628,29.818 30.634,18.875 21.999,18.62 21.999,18.62 22.409,30.806 	"/>
	<polygon fill="#FFFFFF" points="0,34.41 0.869,48.053 11.844,45.594 11.538,33.089 	"/>
	<polygon fill="#FFFFFF" points="22.85,43.024 30.623,41.101 30.628,30.898 22.442,31.838 	"/>
	<polygon fill="#FFFFFF" points="12.635,32.958 12.917,45.332 21.898,43.241 21.481,31.945 	"/>
</g>
</svg>
