<?xml version="1.0" encoding="utf-8"?>
<!-- Generator: Adobe Illustrator 16.0.0, SVG Export Plug-In . SVG Version: 6.00 Build 0)  -->
<!DOCTYPE svg PUBLIC "-//W3C//DTD SVG 1.1//EN" "http://www.w3.org/Graphics/SVG/1.1/DTD/svg11.dtd">
<svg version="1.1" id="Capa_1" xmlns="http://www.w3.org/2000/svg" xmlns:xlink="http://www.w3.org/1999/xlink" x="0px" y="0px"
	 width="162.451px" height="39px" viewBox="0 0 162.451 39" enable-background="new 0 0 162.451 39" xml:space="preserve">
<g>
	<g>
		<g>
			<path fill="#FFFFFF" d="M112.924,2.229h1.377v7.819h-1.377V2.229z"/>
			<path fill="#FFFFFF" d="M117.088,7.443c0,1.197,0.889,1.67,1.988,1.67c1.197,0,1.65-0.595,1.65-1.18
				c0-0.609-0.326-0.845-0.645-0.967c-0.555-0.209-1.266-0.345-2.334-0.641c-1.332-0.363-1.729-1.171-1.729-1.979
				c0-1.569,1.439-2.3,2.855-2.3c1.631,0,2.996,0.862,2.996,2.486h-1.365c-0.068-1.006-0.74-1.374-1.689-1.374
				c-0.637,0-1.436,0.231-1.436,1.021c0,0.545,0.379,0.85,0.932,1.009c0.127,0.03,1.852,0.479,2.26,0.589
				c1.025,0.313,1.516,1.189,1.516,2.002c0,1.752-1.553,2.446-3.104,2.446c-1.789,0-3.23-0.854-3.258-2.782H117.088z"/>
			<path fill="#FFFFFF" d="M130.576,6.137c0,2.232-1.398,4.089-3.74,4.089s-3.74-1.856-3.74-4.089c0-2.233,1.398-4.09,3.74-4.09
				S130.576,3.903,130.576,6.137z M124.461,6.137c0,1.502,0.701,2.977,2.375,2.977c1.672,0,2.377-1.475,2.377-2.977
				s-0.705-2.978-2.377-2.978C125.162,3.159,124.461,4.635,124.461,6.137z"/>
			<path fill="#FFFFFF" d="M137.32,4.715c-0.227-0.894-0.809-1.556-1.951-1.556c-1.666,0-2.365,1.476-2.365,2.978
				s0.699,2.977,2.365,2.977c1.217,0,1.889-0.907,2.002-2.052h1.332c-0.104,1.866-1.438,3.164-3.334,3.164
				c-2.328,0-3.732-1.856-3.732-4.089c0-2.233,1.404-4.09,3.732-4.09c1.773,0.005,3.154,0.98,3.326,2.668H137.32z"/>
			<path fill="#FFFFFF" d="M139.885,6.477h3.182v1.181h-3.182V6.477z"/>
			<path fill="#FFFFFF" d="M146.742,2.229h1.453l3.023,7.819h-1.473l-0.734-2.073h-3.123l-0.73,2.073h-1.412L146.742,2.229z
				 M146.266,6.935h2.383l-1.17-3.362h-0.004h-0.033L146.266,6.935z"/>
			<path fill="#FFFFFF" d="M152.004,4.385h1.17v1.093h0.014c0.154-0.604,0.895-1.248,1.66-1.248c0.281,0,0.359,0.022,0.473,0.037
				v1.206c-0.182-0.022-0.363-0.049-0.541-0.049c-0.854,0-1.529,0.681-1.529,1.923v2.701h-1.246V4.385z"/>
			<path fill="#FFFFFF" d="M118.203,17.851c-0.227-0.89-0.807-1.553-1.953-1.553c-1.668,0-2.371,1.479-2.371,2.977
				c0,1.503,0.703,2.978,2.371,2.978c1.223,0,1.885-0.911,1.998-2.037h1.336c-0.109,1.866-1.434,3.159-3.334,3.159
				c-2.34,0-3.746-1.866-3.746-4.1c0-2.223,1.406-4.093,3.746-4.093c1.771,0.009,3.17,0.99,3.322,2.669H118.203z"/>
			<path fill="#FFFFFF" d="M125.619,21.922c0,0.313,0.064,0.436,0.299,0.436c0.082,0,0.174,0,0.301-0.022v0.861
				c-0.191,0.06-0.582,0.146-0.775,0.146c-0.514,0-0.877-0.182-0.979-0.694c-0.488,0.477-1.287,0.694-1.959,0.694
				c-1.012,0-1.934-0.554-1.934-1.656c0-1.412,1.135-1.644,2.178-1.767c0.9-0.153,1.707-0.067,1.707-0.793
				c0-0.641-0.68-0.768-1.18-0.768c-0.705,0-1.193,0.277-1.244,0.898h-1.252c0.086-1.457,1.324-1.883,2.576-1.883
				c1.104,0,2.262,0.448,2.262,1.643V21.922z M124.371,20.352c-0.385,0.25-0.98,0.244-1.537,0.335
				c-0.537,0.091-1.008,0.281-1.008,0.943c0,0.554,0.707,0.728,1.145,0.728c0.547,0,1.4-0.286,1.4-1.076V20.352z"/>
			<path fill="#FFFFFF" d="M127.227,17.522h1.172V18.3h0.025c0.346-0.649,1.035-0.926,1.752-0.926c1.779,0,2.641,1.357,2.641,3.008
				c0,1.525-0.762,2.96-2.432,2.96c-0.727,0-1.498-0.268-1.896-0.89h-0.023v2.822h-1.238V17.522z M130.014,18.358
				c-1.063,0-1.59,0.799-1.59,2.006c0,1.14,0.582,1.993,1.59,1.993c1.139,0,1.57-1.017,1.57-1.993
				C131.584,19.335,131.037,18.358,130.014,18.358z"/>
			<path fill="#FFFFFF" d="M134.914,15.182h1.479l-1.551,1.562h-0.906L134.914,15.182z M134.125,23.183v-5.66h1.262v5.66H134.125z"
				/>
			<path fill="#FFFFFF" d="M136.385,17.522h0.936v-1.688h1.262v1.688h1.125v0.932h-1.125v3.023c0,0.512,0.037,0.774,0.59,0.774
				c0.182,0,0.354,0,0.535-0.04v0.957c-0.281,0.027-0.535,0.064-0.816,0.064c-1.307,0-1.543-0.5-1.57-1.439v-3.34h-0.936V17.522z"/>
			<path fill="#FFFFFF" d="M145.795,23.183h-1.227v-0.785h-0.033c-0.295,0.571-0.979,0.944-1.605,0.944
				c-1.471,0-2.115-0.745-2.115-2.22v-3.6h1.252v3.474c0,0.993,0.402,1.361,1.09,1.361c1.035,0,1.379-0.672,1.379-1.548v-3.287h1.26
				V23.183z"/>
			<path fill="#FFFFFF" d="M147.365,15.368h1.236v7.814h-1.236V15.368z"/>
			<path fill="#FFFFFF" d="M149.92,20.352c0-1.739,1.039-2.978,2.857-2.978c1.816,0,2.859,1.238,2.859,2.978
				c0,1.742-1.043,2.99-2.859,2.99C150.959,23.342,149.92,22.094,149.92,20.352z M154.385,20.352c0-0.977-0.484-1.993-1.607-1.993
				c-1.115,0-1.605,1.017-1.605,1.993c0,0.979,0.49,2.006,1.605,2.006C153.9,22.357,154.385,21.331,154.385,20.352z"/>
			<path fill="#FFFFFF" d="M115.018,28.517h1.453l3.012,7.81h-1.461l-0.736-2.069h-3.129l-0.729,2.069h-1.414L115.018,28.517z
				 M114.535,33.213h2.389l-1.17-3.354h-0.012h-0.016L114.535,33.213z"/>
			<path fill="#FFFFFF" d="M120.273,30.672h1.18v1.089h0.023c0.131-0.607,0.885-1.243,1.646-1.243c0.281,0,0.363,0.018,0.467,0.032
				v1.202c-0.176-0.022-0.365-0.059-0.521-0.059c-0.871,0-1.547,0.699-1.547,1.942v2.69h-1.248V30.672z"/>
			<path fill="#FFFFFF" d="M129.582,36.032c0,1.693-0.998,2.541-2.781,2.541c-1.137,0-2.416-0.44-2.525-1.77h1.244
				c0.154,0.726,0.727,0.835,1.361,0.835c1.008,0,1.453-0.517,1.453-1.443v-0.867h-0.02c-0.35,0.622-0.998,0.998-1.695,0.998
				c-1.799,0-2.541-1.356-2.541-2.972c0-1.53,0.961-2.837,2.557-2.837c0.719,0,1.361,0.294,1.68,0.926h0.02v-0.771h1.248V36.032z
				 M128.334,33.372c0-0.976-0.436-1.874-1.521-1.874c-1.104,0-1.482,1.03-1.482,1.974c0,0.927,0.447,1.87,1.482,1.87
				C127.92,35.342,128.334,34.331,128.334,33.372z"/>
			<path fill="#FFFFFF" d="M132.037,33.826c0,0.876,0.48,1.666,1.525,1.666c0.717,0,1.158-0.313,1.379-0.94h1.182
				c-0.273,1.239-1.326,1.93-2.561,1.93c-1.779,0-2.768-1.239-2.768-2.974c0-1.615,1.051-2.99,2.73-2.99
				c1.783,0,2.883,1.606,2.67,3.309H132.037z M134.941,33c-0.027-0.785-0.566-1.502-1.416-1.502c-0.867,0-1.453,0.663-1.488,1.502
				H134.941z"/>
			<path fill="#FFFFFF" d="M137.371,30.672h1.184v0.826l0.027,0.022c0.363-0.626,1.008-1.003,1.752-1.003
				c1.234,0,2.006,0.654,2.006,1.929v3.88h-1.248v-3.554c-0.02-0.888-0.377-1.274-1.104-1.274c-0.834,0-1.369,0.663-1.369,1.488
				v3.34h-1.248V30.672z"/>
			<path fill="#FFFFFF" d="M143.299,30.672h0.941v-1.697h1.254v1.697h1.131v0.925h-1.131v3.023c0,0.513,0.047,0.772,0.6,0.772
				c0.176,0,0.357,0,0.531-0.037v0.959c-0.281,0.022-0.535,0.063-0.818,0.063c-1.293,0-1.537-0.499-1.566-1.435v-3.346h-0.941
				V30.672z"/>
			<path fill="#FFFFFF" d="M147.773,28.517h1.248v1.18h-1.248V28.517z M147.773,30.672h1.248v5.654h-1.248V30.672z"/>
			<path fill="#FFFFFF" d="M150.6,30.672h1.18v0.826l0.023,0.022c0.371-0.626,1.02-1.003,1.766-1.003c1.227,0,2,0.654,2,1.929v3.88
				h-1.248v-3.554c-0.016-0.888-0.371-1.274-1.107-1.274c-0.834,0-1.369,0.663-1.369,1.488v3.34H150.6V30.672z"/>
			<path fill="#FFFFFF" d="M161.838,35.07c0,0.3,0.072,0.422,0.299,0.422c0.076,0,0.178,0,0.314-0.02v0.864
				c-0.195,0.067-0.586,0.145-0.803,0.145c-0.49,0-0.854-0.173-0.953-0.69c-0.492,0.478-1.295,0.69-1.957,0.69
				c-1.016,0-1.938-0.546-1.938-1.647c0-1.417,1.119-1.648,2.178-1.775c0.891-0.158,1.693-0.059,1.693-0.794
				c0-0.645-0.666-0.767-1.166-0.767c-0.699,0-1.195,0.285-1.248,0.898h-1.252c0.094-1.456,1.328-1.879,2.572-1.879
				c1.107,0,2.26,0.445,2.26,1.644V35.07z M160.598,33.495c-0.385,0.249-0.982,0.236-1.533,0.345
				c-0.535,0.077-1.016,0.277-1.016,0.931c0,0.558,0.713,0.722,1.148,0.722c0.543,0,1.4-0.277,1.4-1.066V33.495z"/>
		</g>
		<rect x="105.059" y="0.008" fill="#FFFFFF" width="0.391" height="38.32"/>
	</g>
	<path fill="#FFFFFF" d="M52.099,26.851l1.997-4.362h2.705l-3.449,6.604c-1.121,2.188-1.539,2.877-4.044,2.877
		c-0.499,0-1.017-0.055-1.23-0.055l0.35-1.951c0.195,0,0.386,0.009,0.572,0.009c0.885,0,1.13-0.263,0.989-1.043l-1.193-6.441h2.822
		L52.099,26.851z"/>
	<path fill="#FFFFFF" d="M42.708,26.664c0.49-2.551-0.771-4.371-3.39-4.371c-2.27,0-4.285,1.498-4.684,3.804
		c-0.427,2.36,1.103,3.663,3.381,3.663c1.643,0,3.531-0.581,4.321-2.347h-2.678c-0.281,0.422-0.717,0.622-1.171,0.622
		c-0.735,0-1.289-0.546-1.144-1.371H42.708z M37.589,25.234c0.131-0.745,0.69-1.216,1.529-1.216c0.658,0,1.148,0.571,1.021,1.216
		H37.589z"/>
	<path fill="#FFFFFF" d="M47.247,29.564c-3.721,0.2-4.121-0.054-3.689-2.492l0.522-2.963h-1.008l0.291-1.621h1.044l0.39-2.201h2.769
		l-0.386,2.201h1.348l-0.282,1.621h-1.352l-0.454,2.572c-0.114,0.645-0.063,0.882,0.726,0.882h0.44L47.247,29.564z"/>
	<path fill="#FFFFFF" d="M10.838,22.665c0.004-0.33-0.137-0.539-0.345-0.671c-0.2-0.118-0.481-0.173-0.794-0.173
		c-0.694,0-1.048,0.204-1.103,0.559c-0.254,1.457,5.51,0.549,4.875,4.08c-0.395,2.26-2.478,3.345-5.146,3.345
		c-2.569,0-3.985-1.493-3.744-3.249h3.063c0,0.354,0.154,0.611,0.386,0.78c0.231,0.164,0.549,0.245,0.862,0.245
		c0.794,0,1.366-0.259,1.448-0.726c0.254-1.471-5.519-0.459-4.865-4.163c0.367-2.064,2.342-3.1,4.774-3.1
		c2.705,0,3.69,1.371,3.622,3.072H10.838z"/>
	<path fill="#FFFFFF" d="M14.083,26.105c-0.422,2.411,1.121,3.654,3.381,3.654c2.278,0,4.239-1.226,4.702-3.799
		c0.391-2.192-0.898-3.668-3.395-3.668C16.375,22.293,14.514,23.664,14.083,26.105z M18.477,24.195
		c0.744-0.04,1.058,0.73,0.876,1.766c-0.227,1.32-0.794,1.896-1.543,1.896c-0.717,0-1.125-0.576-0.88-1.896
		C17.065,25.176,17.519,24.195,18.477,24.195z"/>
	<path fill="#FFFFFF" d="M27.894,25.202c0.05-0.308-0.018-0.554-0.154-0.721c-0.15-0.2-0.382-0.286-0.686-0.286
		c-1.058,0-1.421,1.085-1.566,1.91c-0.19,1.062,0.091,1.752,0.922,1.752c0.731,0,1.094-0.494,1.28-1.043h2.837
		C29.9,28.961,28.03,29.76,26.07,29.76c-2.279,0-3.813-1.28-3.396-3.663c0.427-2.41,2.37-3.808,4.711-3.808
		c1.897,0,3.536,0.816,3.368,2.913H27.894z"/>
	<path fill="#FFFFFF" d="M32.369,19.593h2.814l-0.358,2.011h-2.819L32.369,19.593z M30.608,29.564l1.243-7.076h2.814l-1.243,7.076
		H30.608z"/>
	<path fill="#FFFFFF" d="M72.119,15.622c-0.129,1.466-0.201,2.169-0.201,3.698c0,0.531,0.01,0.694,0.027,1.239
		c0.018,0.577,0.508,1.044,1.084,1.017c0.576-0.019,1.039-0.508,1.027-1.084c-0.014-0.531-0.027-0.653-0.027-1.172
		c0-1.47,0.063-2.12,0.186-3.504c0.047-0.577-0.377-1.094-0.957-1.143C72.672,14.623,72.164,15.059,72.119,15.622z"/>
	<path fill="#FFFFFF" d="M69.078,15.585c-0.201,1.471-0.305,2.188-0.305,3.735c0,0.55,0.012,0.704,0.041,1.258
		c0.027,0.577,0.525,1.025,1.098,0.998c0.586-0.032,1.035-0.522,1.012-1.104c-0.025-0.516-0.041-0.639-0.041-1.152
		c0-1.452,0.092-2.078,0.283-3.459c0.072-0.58-0.328-1.097-0.908-1.184C69.686,14.609,69.15,15.004,69.078,15.585z"/>
	<path fill="#FFFFFF" d="M69.799,26.746c0.568,2.269,1.357,3.83,2.361,5.45c0.299,0.485,0.947,0.648,1.445,0.345
		c0.492-0.312,0.645-0.962,0.346-1.452c-0.865-1.411-1.602-2.822-2.109-4.843c-0.137-0.571-0.709-0.915-1.271-0.775
		C69.998,25.607,69.658,26.188,69.799,26.746z"/>
	<path fill="#FFFFFF" d="M81.176,11.628h-4.881c-0.592,0-1.059,0.472-1.059,1.053c0,0.576,0.467,1.053,1.059,1.053h4.881
		c0.584,0,1.059-0.477,1.059-1.053C82.234,12.1,81.76,11.628,81.176,11.628z"/>
	<path fill="#FFFFFF" d="M67.268,22.488h-4.893c-0.582,0-1.059,0.469-1.059,1.053c0,0.586,0.477,1.059,1.059,1.059h4.893
		c0.576,0,1.047-0.473,1.047-1.059C68.314,22.957,67.844,22.488,67.268,22.488z"/>
	<path fill="#FFFFFF" d="M92.797,14.682H87.9c-0.578,0-1.051,0.478-1.051,1.058c0,0.581,0.473,1.049,1.051,1.049h4.896
		c0.58,0,1.043-0.468,1.043-1.049C93.84,15.159,93.377,14.682,92.797,14.682z"/>
	<path fill="#FFFFFF" d="M81.881,14.682h-5.586c-0.592,0-1.059,0.478-1.059,1.058c0,0.581,0.467,1.049,1.059,1.049h5.586
		c0.584,0,1.059-0.468,1.059-1.049C82.939,15.159,82.465,14.682,81.881,14.682z"/>
	<path fill="#FFFFFF" d="M78.881,22.488h-5.59c-0.584,0-1.055,0.469-1.055,1.053c0,0.586,0.471,1.059,1.055,1.059h5.59
		c0.584,0,1.059-0.473,1.059-1.059C79.939,22.957,79.465,22.488,78.881,22.488z"/>
	<path fill="#FFFFFF" d="M78.881,25.438h-4.885c-0.588,0-1.051,0.473-1.051,1.063c0,0.571,0.463,1.049,1.051,1.049h4.885
		c0.584,0,1.059-0.478,1.059-1.049C79.939,25.911,79.465,25.438,78.881,25.438z"/>
	<path fill="#FFFFFF" d="M75.6,4.221c-1.076,1.211-1.797,2.641-2.473,5.273c-0.146,0.559,0.189,1.141,0.756,1.285
		c0.568,0.145,1.141-0.195,1.285-0.767c0.58-2.27,1.172-3.445,2.016-4.399c0.381-0.436,0.344-1.103-0.1-1.483
		C76.648,3.744,75.98,3.781,75.6,4.221z"/>
	<path fill="#FFFFFF" d="M79.408,35.037c1.07-1.211,1.787-2.641,2.469-5.272c0.145-0.563-0.201-1.135-0.758-1.281
		c-0.559-0.145-1.139,0.205-1.285,0.759c-0.58,2.274-1.166,3.454-2.006,4.406c-0.391,0.44-0.35,1.104,0.09,1.484
		C78.354,35.515,79.018,35.479,79.408,35.037z"/>
	<path fill="#FFFFFF" d="M83.057,23.632c0.127-1.46,0.189-2.165,0.189-3.689c0-0.545,0-0.69-0.018-1.239
		c-0.018-0.581-0.498-1.039-1.094-1.017c-0.576,0.018-1.035,0.509-1.016,1.085l0,0c0.012,0.518,0.027,0.649,0.027,1.171
		c0,1.462-0.059,2.115-0.188,3.504c-0.053,0.581,0.373,1.085,0.949,1.139C82.492,24.641,83.012,24.218,83.057,23.632z"/>
	<path fill="#FFFFFF" d="M86.098,23.678c0.199-1.476,0.305-2.196,0.305-3.735c0-0.55-0.02-0.703-0.047-1.257
		c-0.021-0.581-0.521-1.035-1.102-0.999c-0.586,0.027-1.025,0.522-1.01,1.099c0.033,0.521,0.037,0.641,0.037,1.157
		c0,1.448-0.082,2.074-0.271,3.458c-0.076,0.577,0.326,1.112,0.898,1.176C85.484,24.653,86.02,24.254,86.098,23.678z"/>
	<path fill="#FFFFFF" d="M85.371,12.508c-0.572-2.296-1.389-3.895-2.4-5.514c-0.313-0.495-0.957-0.645-1.457-0.332
		c-0.49,0.305-0.645,0.953-0.338,1.447c0.891,1.422,1.635,2.852,2.146,4.911c0.143,0.563,0.725,0.908,1.277,0.772
		C85.166,13.652,85.508,13.07,85.371,12.508z"/>
	<path fill="#FFFFFF" d="M70.279,11.628h-4.896c-0.59,0-1.063,0.472-1.063,1.053c0,0.576,0.473,1.053,1.063,1.053h4.896
		c0.582,0,1.051-0.477,1.051-1.053C71.33,12.1,70.861,11.628,70.279,11.628z"/>
	<path fill="#FFFFFF" d="M89.838,25.438h-4.889c-0.576,0-1.049,0.473-1.049,1.063c0,0.571,0.473,1.049,1.049,1.049h4.889
		c0.588,0,1.066-0.478,1.066-1.049C90.904,25.911,90.426,25.438,89.838,25.438z"/>
	<polygon fill="#FFFFFF" points="0,18.717 1.72,8.985 4.901,8.985 3.186,18.717 	"/>
	<path fill="#FFFFFF" d="M5.555,11.646h2.569l-0.191,1.107c0.79-0.854,1.562-1.307,2.614-1.303c1.879,0,2.56,1.1,2.22,3.042
		l-0.754,4.225H9.204l0.663-3.721c0.123-0.709,0.036-1.327-0.763-1.327c-0.858,0-1.189,0.554-1.339,1.449l-0.64,3.599H4.312
		L5.555,11.646z"/>
	<path fill="#FFFFFF" d="M17.519,18.717c-3.731,0.213-4.13-0.05-3.704-2.491l0.526-2.969h-0.999l0.282-1.611h1.044l0.39-2.201h2.769
		l-0.39,2.201h1.352l-0.29,1.611h-1.344l-0.458,2.578c-0.113,0.648-0.05,0.876,0.722,0.876h0.454L17.519,18.717z"/>
	<path fill="#FFFFFF" d="M26.487,15.816c0.495-2.546-0.771-4.366-3.395-4.366c-2.278,0-4.275,1.49-4.684,3.808
		c-0.422,2.352,1.108,3.654,3.386,3.654c1.643,0,3.54-0.581,4.33-2.338h-2.687c-0.282,0.413-0.722,0.618-1.167,0.618
		c-0.74,0-1.293-0.55-1.144-1.376H26.487z M21.372,14.388c0.132-0.741,0.685-1.216,1.53-1.216c0.663,0,1.144,0.576,1.026,1.216
		H21.372z"/>
	<path fill="#FFFFFF" d="M27.867,11.646h2.551l-0.254,1.421h0.032c0.585-1.099,1.366-1.63,2.464-1.616
		c0.127,0,0.245,0.032,0.363,0.042l-0.499,2.799c-0.182-0.022-0.372-0.068-0.563-0.068c-1.153,0-1.833,0.542-2.096,2.048
		l-0.436,2.446h-2.805L27.867,11.646z"/>
	<path fill="#FFFFFF" d="M33.749,11.646h2.564l-0.191,1.107c0.781-0.854,1.557-1.307,2.619-1.303c1.865,0,2.56,1.1,2.215,3.042
		l-0.744,4.225h-2.814l0.654-3.721c0.122-0.709,0.045-1.327-0.758-1.327c-0.858,0-1.185,0.554-1.339,1.449l-0.635,3.599h-2.824
		L33.749,11.646z"/>
	<path fill="#FFFFFF" d="M49.507,15.816c0.499-2.546-0.772-4.366-3.391-4.366c-2.274,0-4.284,1.49-4.697,3.808
		c-0.409,2.352,1.117,3.654,3.386,3.654c1.661,0,3.54-0.581,4.339-2.338h-2.687c-0.281,0.413-0.722,0.618-1.162,0.618
		c-0.749,0-1.308-0.55-1.153-1.376H49.507z M44.388,14.388c0.136-0.741,0.689-1.216,1.534-1.216c0.663,0,1.144,0.576,1.026,1.216
		H44.388z"/>
	<path fill="#FFFFFF" d="M54.051,18.717c-3.727,0.213-4.126-0.05-3.7-2.491l0.527-2.969h-0.999l0.281-1.611h1.044l0.385-2.201h2.777
		l-0.395,2.201h1.352l-0.279,1.611h-1.354l-0.453,2.578c-0.119,0.648-0.064,0.876,0.721,0.876H54.4L54.051,18.717z"/>
	<path fill="#FFFFFF" d="M77.211,0C66.775,0,58.279,8.328,58.004,18.703h2.104c0.428-9.735,8.436-17.492,18.273-17.492
		c7.117,0,13.271,4.063,16.305,9.989C91.635,4.593,84.963,0,77.211,0z"/>
	<path fill="#FFFFFF" d="M78.354,39c10.441,0,18.926-8.328,19.209-18.703h-2.111c-0.412,9.726-8.428,17.496-18.268,17.496
		c-7.113,0-13.271-4.066-16.299-9.993C63.926,34.403,70.598,39,78.354,39z"/>
	<path fill="#FFFFFF" d="M91.635,36.698h-0.807v2.261h-0.471v-2.261h-0.811v-0.384h2.088V36.698z M93.566,38.256l0.746-1.941h0.717
		v2.645h-0.473v-2.155h-0.016l-0.814,2.155h-0.322l-0.836-2.155h-0.008v2.155h-0.463v-2.645h0.713L93.566,38.256z"/>
</g>
</svg>
